  0
SECTION
  2
HEADER
  9
$ACADVER
  1
AC1027
  9
$ACADMAINTVER
 70
105
  9
$DWGCODEPAGE
  3
ANSI_1252
  9
$LASTSAVEDBY
  1
ezdxf
  9
$REQUIREDVERSIONS
160
0
  9
$INSBASE
 10
0.0
 20
0.0
 30
0.0
  9
$EXTMIN
 10
1e+20
 20
1e+20
 30
1e+20
  9
$EXTMAX
 10
-1e+20
 20
-1e+20
 30
-1e+20
  9
$LIMMIN
 10
0.0
 20
0.0
  9
$LIMMAX
 10
420.0
 20
297.0
  9
$ORTHOMODE
 70
0
  9
$REGENMODE
 70
1
  9
$FILLMODE
 70
1
  9
$QTEXTMODE
 70
0
  9
$MIRRTEXT
 70
1
  9
$LTSCALE
 40
1.0
  9
$ATTMODE
 70
1
  9
$TEXTSIZE
 40
2.5
  9
$TRACEWID
 40
1.0
  9
$TEXTSTYLE
  7
Standard
  9
$CLAYER
  8
0
  9
$CELTYPE
  6
ByLayer
  9
$CECOLOR
 62
256
  9
$CELTSCALE
 40
1.0
  9
$DISPSILH
 70
0
  9
$DIMSCALE
 40
1.0
  9
$DIMASZ
 40
2.5
  9
$DIMEXO
 40
0.625
  9
$DIMDLI
 40
3.75
  9
$DIMRND
 40
0.0
  9
$DIMDLE
 40
0.0
  9
$DIMEXE
 40
1.25
  9
$DIMTP
 40
0.0
  9
$DIMTM
 40
0.0
  9
$DIMTXT
 40
2.5
  9
$DIMCEN
 40
2.5
  9
$DIMTSZ
 40
0.0
  9
$DIMTOL
 70
0
  9
$DIMLIM
 70
0
  9
$DIMTIH
 70
0
  9
$DIMTOH
 70
0
  9
$DIMSE1
 70
0
  9
$DIMSE2
 70
0
  9
$DIMTAD
 70
1
  9
$DIMZIN
 70
8
  9
$DIMBLK
  1

  9
$DIMASO
 70
1
  9
$DIMSHO
 70
1
  9
$DIMPOST
  1

  9
$DIMAPOST
  1

  9
$DIMALT
 70
0
  9
$DIMALTD
 70
3
  9
$DIMALTF
 40
0.03937007874
  9
$DIMLFAC
 40
1.0
  9
$DIMTOFL
 70
1
  9
$DIMTVP
 40
0.0
  9
$DIMTIX
 70
0
  9
$DIMSOXD
 70
0
  9
$DIMSAH
 70
0
  9
$DIMBLK1
  1

  9
$DIMBLK2
  1

  9
$DIMSTYLE
  2
ISO-25
  9
$DIMCLRD
 70
0
  9
$DIMCLRE
 70
0
  9
$DIMCLRT
 70
0
  9
$DIMTFAC
 40
1.0
  9
$DIMGAP
 40
0.625
  9
$DIMJUST
 70
0
  9
$DIMSD1
 70
0
  9
$DIMSD2
 70
0
  9
$DIMTOLJ
 70
0
  9
$DIMTZIN
 70
8
  9
$DIMALTZ
 70
0
  9
$DIMALTTZ
 70
0
  9
$DIMUPT
 70
0
  9
$DIMDEC
 70
2
  9
$DIMTDEC
 70
2
  9
$DIMALTU
 70
2
  9
$DIMALTTD
 70
3
  9
$DIMTXSTY
  7
Standard
  9
$DIMAUNIT
 70
0
  9
$DIMADEC
 70
0
  9
$DIMALTRND
 40
0.0
  9
$DIMAZIN
 70
0
  9
$DIMDSEP
 70
44
  9
$DIMATFIT
 70
3
  9
$DIMFRAC
 70
0
  9
$DIMLDRBLK
  1

  9
$DIMLUNIT
 70
2
  9
$DIMLWD
 70
-2
  9
$DIMLWE
 70
-2
  9
$DIMTMOVE
 70
0
  9
$DIMFXL
 40
1.0
  9
$DIMFXLON
 70
0
  9
$DIMJOGANG
 40
0.785398163397
  9
$DIMTFILL
 70
0
  9
$DIMTFILLCLR
 70
0
  9
$DIMARCSYM
 70
0
  9
$DIMLTYPE
  6

  9
$DIMLTEX1
  6

  9
$DIMLTEX2
  6

  9
$DIMTXTDIRECTION
 70
0
  9
$LUNITS
 70
2
  9
$LUPREC
 70
4
  9
$SKETCHINC
 40
1.0
  9
$FILLETRAD
 40
10.0
  9
$AUNITS
 70
0
  9
$AUPREC
 70
2
  9
$MENU
  1
.
  9
$ELEVATION
 40
0.0
  9
$PELEVATION
 40
0.0
  9
$THICKNESS
 40
0.0
  9
$LIMCHECK
 70
0
  9
$CHAMFERA
 40
0.0
  9
$CHAMFERB
 40
0.0
  9
$CHAMFERC
 40
0.0
  9
$CHAMFERD
 40
0.0
  9
$SKPOLY
 70
0
  9
$TDCREATE
 40
2461042.3317824076
  9
$TDUCREATE
 40
2458532.153996898
  9
$TDUPDATE
 40
2461042.3317824076
  9
$TDUUPDATE
 40
2458532.1544311
  9
$TDINDWG
 40
0.0
  9
$TDUSRTIMER
 40
0.0
  9
$USRTIMER
 70
1
  9
$ANGBASE
 50
0.0
  9
$ANGDIR
 70
0
  9
$PDMODE
 70
0
  9
$PDSIZE
 40
0.0
  9
$PLINEWID
 40
0.0
  9
$SPLFRAME
 70
0
  9
$SPLINETYPE
 70
6
  9
$SPLINESEGS
 70
8
  9
$HANDSEED
  5
34
  9
$SURFTAB1
 70
6
  9
$SURFTAB2
 70
6
  9
$SURFTYPE
 70
6
  9
$SURFU
 70
6
  9
$SURFV
 70
6
  9
$UCSBASE
  2

  9
$UCSNAME
  2

  9
$UCSORG
 10
0.0
 20
0.0
 30
0.0
  9
$UCSXDIR
 10
1.0
 20
0.0
 30
0.0
  9
$UCSYDIR
 10
0.0
 20
1.0
 30
0.0
  9
$UCSORTHOREF
  2

  9
$UCSORTHOVIEW
 70
0
  9
$UCSORGTOP
 10
0.0
 20
0.0
 30
0.0
  9
$UCSORGBOTTOM
 10
0.0
 20
0.0
 30
0.0
  9
$UCSORGLEFT
 10
0.0
 20
0.0
 30
0.0
  9
$UCSORGRIGHT
 10
0.0
 20
0.0
 30
0.0
  9
$UCSORGFRONT
 10
0.0
 20
0.0
 30
0.0
  9
$UCSORGBACK
 10
0.0
 20
0.0
 30
0.0
  9
$PUCSBASE
  2

  9
$PUCSNAME
  2

  9
$PUCSORG
 10
0.0
 20
0.0
 30
0.0
  9
$PUCSXDIR
 10
1.0
 20
0.0
 30
0.0
  9
$PUCSYDIR
 10
0.0
 20
1.0
 30
0.0
  9
$PUCSORTHOREF
  2

  9
$PUCSORTHOVIEW
 70
0
  9
$PUCSORGTOP
 10
0.0
 20
0.0
 30
0.0
  9
$PUCSORGBOTTOM
 10
0.0
 20
0.0
 30
0.0
  9
$PUCSORGLEFT
 10
0.0
 20
0.0
 30
0.0
  9
$PUCSORGRIGHT
 10
0.0
 20
0.0
 30
0.0
  9
$PUCSORGFRONT
 10
0.0
 20
0.0
 30
0.0
  9
$PUCSORGBACK
 10
0.0
 20
0.0
 30
0.0
  9
$USERI1
 70
0
  9
$USERI2
 70
0
  9
$USERI3
 70
0
  9
$USERI4
 70
0
  9
$USERI5
 70
0
  9
$USERR1
 40
0.0
  9
$USERR2
 40
0.0
  9
$USERR3
 40
0.0
  9
$USERR4
 40
0.0
  9
$USERR5
 40
0.0
  9
$WORLDVIEW
 70
1
  9
$SHADEDGE
 70
3
  9
$SHADEDIF
 70
70
  9
$TILEMODE
 70
1
  9
$MAXACTVP
 70
64
  9
$PINSBASE
 10
0.0
 20
0.0
 30
0.0
  9
$PLIMCHECK
 70
0
  9
$PEXTMIN
 10
1e+20
 20
1e+20
 30
1e+20
  9
$PEXTMAX
 10
-1e+20
 20
-1e+20
 30
-1e+20
  9
$PLIMMIN
 10
0.0
 20
0.0
  9
$PLIMMAX
 10
420.0
 20
297.0
  9
$UNITMODE
 70
0
  9
$VISRETAIN
 70
1
  9
$PLINEGEN
 70
0
  9
$PSLTSCALE
 70
1
  9
$TREEDEPTH
 70
3020
  9
$CMLSTYLE
  2
Standard
  9
$CMLJUST
 70
0
  9
$CMLSCALE
 40
20.0
  9
$PROXYGRAPHICS
 70
1
  9
$MEASUREMENT
 70
1
  9
$CELWEIGHT
370
-1
  9
$ENDCAPS
280
0
  9
$JOINSTYLE
280
0
  9
$LWDISPLAY
290
0
  9
$INSUNITS
 70
4
  9
$HYPERLINKBASE
  1

  9
$STYLESHEET
  1

  9
$XEDIT
290
1
  9
$CEPSNTYPE
380
0
  9
$PSTYLEMODE
290
1
  9
$FINGERPRINTGUID
  2
{5EF3E841-66C6-4243-9C9F-789B46006B92}
  9
$VERSIONGUID
  2
{3C288EF7-9F30-44A7-8C50-8BB94E1836D7}
  9
$EXTNAMES
290
1
  9
$PSVPSCALE
 40
0.0
  9
$OLESTARTUP
290
0
  9
$SORTENTS
280
127
  9
$INDEXCTL
280
0
  9
$HIDETEXT
280
1
  9
$XCLIPFRAME
280
1
  9
$HALOGAP
280
0
  9
$OBSCOLOR
 70
257
  9
$OBSLTYPE
280
0
  9
$INTERSECTIONDISPLAY
280
0
  9
$INTERSECTIONCOLOR
 70
257
  9
$DIMASSOC
280
2
  9
$PROJECTNAME
  1

  9
$CAMERADISPLAY
290
0
  9
$LENSLENGTH
 40
50.0
  9
$CAMERAHEIGHT
 40
0.0
  9
$STEPSPERSEC
 40
24.0
  9
$STEPSIZE
 40
100.0
  9
$3DDWFPREC
 40
2.0
  9
$PSOLWIDTH
 40
0.005
  9
$PSOLHEIGHT
 40
0.08
  9
$LOFTANG1
 40
1.570796326795
  9
$LOFTANG2
 40
1.570796326795
  9
$LOFTMAG1
 40
0.0
  9
$LOFTMAG2
 40
0.0
  9
$LOFTPARAM
 70
7
  9
$LOFTNORMALS
280
1
  9
$LATITUDE
 40
37.795
  9
$LONGITUDE
 40
-122.394
  9
$NORTHDIRECTION
 40
0.0
  9
$TIMEZONE
 70
-8000
  9
$LIGHTGLYPHDISPLAY
280
1
  9
$TILEMODELIGHTSYNCH
280
1
  9
$CMATERIAL
347
20
  9
$SOLIDHIST
280
0
  9
$SHOWHIST
280
1
  9
$DWFFRAME
280
2
  9
$DGNFRAME
280
2
  9
$REALWORLDSCALE
290
1
  9
$INTERFERECOLOR
 62
256
  9
$CSHADOW
280
0
  9
$SHADOWPLANELOCATION
 40
0.0
  0
ENDSEC
  0
SECTION
  2
CLASSES
  0
CLASS
  1
ACDBDICTIONARYWDFLT
  2
AcDbDictionaryWithDefault
  3
ObjectDBX Classes
 90
0
 91
0
280
0
281
0
  0
CLASS
  1
SUN
  2
AcDbSun
  3
SCENEOE
 90
1153
 91
0
280
0
281
0
  0
CLASS
  1
VISUALSTYLE
  2
AcDbVisualStyle
  3
ObjectDBX Classes
 90
4095
 91
0
280
0
281
0
  0
CLASS
  1
MATERIAL
  2
AcDbMaterial
  3
ObjectDBX Classes
 90
1153
 91
0
280
0
281
0
  0
CLASS
  1
SCALE
  2
AcDbScale
  3
ObjectDBX Classes
 90
1153
 91
0
280
0
281
0
  0
CLASS
  1
TABLESTYLE
  2
AcDbTableStyle
  3
ObjectDBX Classes
 90
4095
 91
0
280
0
281
0
  0
CLASS
  1
MLEADERSTYLE
  2
AcDbMLeaderStyle
  3
ACDB_MLEADERSTYLE_CLASS
 90
4095
 91
0
280
0
281
0
  0
CLASS
  1
DICTIONARYVAR
  2
AcDbDictionaryVar
  3
ObjectDBX Classes
 90
0
 91
0
280
0
281
0
  0
CLASS
  1
CELLSTYLEMAP
  2
AcDbCellStyleMap
  3
ObjectDBX Classes
 90
1152
 91
0
280
0
281
0
  0
CLASS
  1
MENTALRAYRENDERSETTINGS
  2
AcDbMentalRayRenderSettings
  3
SCENEOE
 90
1024
 91
0
280
0
281
0
  0
CLASS
  1
ACDBDETAILVIEWSTYLE
  2
AcDbDetailViewStyle
  3
ObjectDBX Classes
 90
1025
 91
0
280
0
281
0
  0
CLASS
  1
ACDBSECTIONVIEWSTYLE
  2
AcDbSectionViewStyle
  3
ObjectDBX Classes
 90
1025
 91
0
280
0
281
0
  0
CLASS
  1
RASTERVARIABLES
  2
AcDbRasterVariables
  3
ISM
 90
0
 91
0
280
0
281
0
  0
CLASS
  1
ACDBPLACEHOLDER
  2
AcDbPlaceHolder
  3
ObjectDBX Classes
 90
0
 91
0
280
0
281
0
  0
CLASS
  1
LAYOUT
  2
AcDbLayout
  3
ObjectDBX Classes
 90
0
 91
0
280
0
281
0
  0
ENDSEC
  0
SECTION
  2
TABLES
  0
TABLE
  2
VPORT
  5
8
330
0
100
AcDbSymbolTable
 70
1
  0
VPORT
  5
30
330
8
100
AcDbSymbolTableRecord
100
AcDbViewportTableRecord
  2
*Active
 70
0
 10
0.0
 20
0.0
 11
1.0
 21
1.0
 12
34.186670721546115
 22
2.4235426594172784
 13
0.0
 23
0.0
 14
0.5
 24
0.5
 15
0.5
 25
0.5
 16
0.0
 26
0.0
 36
1.0
 17
0.0
 27
0.0
 37
0.0
 40
33.81267072154611
 41
1.34
 42
50.0
 43
0.0
 44
0.0
 50
0.0
 51
0.0
 71
0
 72
1000
 73
1
 74
3
 75
0
 76
0
 77
0
 78
0
281
0
 65
1
110
0.0
120
0.0
130
0.0
111
1.0
121
0.0
131
0.0
112
0.0
122
1.0
132
0.0
 79
0
146
0.0
  0
ENDTAB
  0
TABLE
  2
LTYPE
  5
2
330
0
100
AcDbSymbolTable
 70
3
  0
LTYPE
  5
24
330
2
100
AcDbSymbolTableRecord
100
AcDbLinetypeTableRecord
  2
ByBlock
 70
0
  3

 72
65
 73
0
 40
0.0
  0
LTYPE
  5
25
330
2
100
AcDbSymbolTableRecord
100
AcDbLinetypeTableRecord
  2
ByLayer
 70
0
  3

 72
65
 73
0
 40
0.0
  0
LTYPE
  5
26
330
2
100
AcDbSymbolTableRecord
100
AcDbLinetypeTableRecord
  2
Continuous
 70
0
  3

 72
65
 73
0
 40
0.0
  0
ENDTAB
  0
TABLE
  2
LAYER
  5
1
330
0
100
AcDbSymbolTable
 70
2
  0
LAYER
  5
27
330
1
100
AcDbSymbolTableRecord
100
AcDbLayerTableRecord
  2
0
 70
0
 62
7
  6
Continuous
370
-3
390
13
347
21
  0
LAYER
  5
28
330
1
100
AcDbSymbolTableRecord
100
AcDbLayerTableRecord
  2
Defpoints
 70
0
 62
7
  6
Continuous
290
0
370
-3
390
13
347
21
  0
ENDTAB
  0
TABLE
  2
STYLE
  5
5
330
0
100
AcDbSymbolTable
 70
1
  0
STYLE
  5
29
330
5
100
AcDbSymbolTableRecord
100
AcDbTextStyleTableRecord
  2
Standard
 70
0
 40
0.0
 41
1.0
 50
0.0
 71
0
 42
2.5
  3
txt
  4

  0
ENDTAB
  0
TABLE
  2
VIEW
  5
7
330
0
100
AcDbSymbolTable
 70
0
  0
ENDTAB
  0
TABLE
  2
UCS
  5
6
330
0
100
AcDbSymbolTable
 70
0
  0
ENDTAB
  0
TABLE
  2
APPID
  5
3
330
0
100
AcDbSymbolTable
 70
3
  0
APPID
  5
2A
330
3
100
AcDbSymbolTableRecord
100
AcDbRegAppTableRecord
  2
ACAD
 70
0
  0
APPID
  5
31
330
3
100
AcDbSymbolTableRecord
100
AcDbRegAppTableRecord
  2
HATCHBACKGROUNDCOLOR
 70
0
  0
APPID
  5
32
330
3
100
AcDbSymbolTableRecord
100
AcDbRegAppTableRecord
  2
EZDXF
 70
0
  0
ENDTAB
  0
TABLE
  2
DIMSTYLE
  5
4
330
0
100
AcDbSymbolTable
 70
1
100
AcDbDimStyleTable
  0
DIMSTYLE
105
2B
330
4
100
AcDbSymbolTableRecord
100
AcDbDimStyleTableRecord
  2
Standard
 70
0
 40
1.0
 41
2.5
 42
0.625
 43
3.75
 44
1.25
 45
0.0
 46
0.0
 47
0.0
 48
0.0
 49
2.5
140
2.5
141
2.5
142
0.0
143
0.03937007874
144
1.0
145
0.0
146
1.0
147
0.625
148
0.0
 69
0
 70
0
 71
0
 72
0
 73
0
 74
0
 75
0
 76
0
 77
1
 78
8
 79
3
170
0
171
3
172
1
173
0
174
0
175
0
176
0
177
0
178
0
179
2
271
2
272
2
273
2
274
3
275
0
276
0
277
2
278
44
279
0
280
0
281
0
282
0
283
0
284
8
285
0
286
0
288
0
289
3
290
0
371
-2
372
-2
  0
ENDTAB
  0
TABLE
  2
BLOCK_RECORD
  5
9
330
0
100
AcDbSymbolTable
 70
2
  0
BLOCK_RECORD
  5
17
330
9
100
AcDbSymbolTableRecord
100
AcDbBlockTableRecord
  2
*Model_Space
340
1A
 70
0
280
1
281
0
  0
BLOCK_RECORD
  5
1B
330
9
100
AcDbSymbolTableRecord
100
AcDbBlockTableRecord
  2
*Paper_Space
340
1E
 70
0
280
1
281
0
  0
ENDTAB
  0
ENDSEC
  0
SECTION
  2
BLOCKS
  0
BLOCK
  5
18
330
17
100
AcDbEntity
  8
0
100
AcDbBlockBegin
  2
*Model_Space
 70
0
 10
0.0
 20
0.0
 30
0.0
  3
*Model_Space
  1

  0
ENDBLK
  5
19
330
17
100
AcDbEntity
  8
0
100
AcDbBlockEnd
  0
BLOCK
  5
1C
330
1B
100
AcDbEntity
  8
0
100
AcDbBlockBegin
  2
*Paper_Space
 70
0
 10
0.0
 20
0.0
 30
0.0
  3
*Paper_Space
  1

  0
ENDBLK
  5
1D
330
1B
100
AcDbEntity
  8
0
100
AcDbBlockEnd
  0
ENDSEC
  0
SECTION
  2
ENTITIES
  0
SPLINE
  5
2F
330
17
100
AcDbEntity
  8
0
100
AcDbSpline
 70
0
 71
3
 72
206
 73
202
 74
0
 40
0.0
 40
0.0
 40
0.0
 40
0.0
 40
0.6994361874836804
 40
1.393918184988797
 40
2.080707382108018
 40
2.770246202572534
 40
3.4605382451518727
 40
4.151363941712466
 40
4.842435573368657
 40
5.532885952769949
 40
6.223267621367304
 40
6.913564562511266
 40
7.603961607272337
 40
8.294385056448004
 40
8.984838877121557
 40
9.67511384452389
 40
10.365140200567655
 40
11.055112854144127
 40
11.745226892218009
 40
12.435574191889252
 40
13.126106230474388
 40
13.81667560874342
 40
14.507056374848686
 40
15.197264913225089
 40
15.887409775830841
 40
16.577538238538086
 40
17.267667717190307
 40
17.957805751229127
 40
18.647963969691236
 40
19.33814616356937
 40
20.028346405885546
 40
20.718551121625847
 40
21.408742722595893
 40
22.09891778478422
 40
22.78908148747416
 40
23.479237658594126
 40
24.1693890588344
 40
24.859537188081852
 40
25.549681658565586
 40
26.23982378956682
 40
26.92996732575517
 40
27.620114104320475
 40
28.310264054081227
 40
29.0004167166144
 40
29.690572744933007
 40
30.380734737210894
 40
31.070900546778685
 40
31.761063709106523
 40
32.45122094468841
 40
33.141372500529535
 40
33.83152063777376
 40
34.52166714394163
 40
35.21181222968641
 40
35.90195547553066
 40
36.59209999799059
 40
37.282248692629274
 40
37.97240204522071
 40
38.66255868249975
 40
39.352716716960735
 40
40.04287524383923
 40
40.73303416105635
 40
41.42319245452458
 40
42.11334866263138
 40
42.80350217892782
 40
43.493653129018384
 40
44.18380206107781
 40
44.87394949721968
 40
45.56409594961682
 40
46.25424230801974
 40
46.94438976344203
 40
47.63453969538945
 40
48.324693609903434
 40
49.01485307540567
 40
49.7050195979698
 40
50.39519134138953
 40
51.08536158314953
 40
51.77552314672668
 40
52.465668994001085
 40
53.15579244422142
 40
53.84588811669059
 40
54.53596787993645
 40
55.22606057325644
 40
55.91619637571359
 40
56.606406090881016
 40
57.29672070504208
 40
57.987120735632914
 40
58.677480273435854
 40
59.36766172683193
 40
60.05753119360944
 40
60.74698209482796
 40
61.43629265999582
 40
62.126083122660496
 40
62.816970683779495
 40
63.50945873480309
 40
64.20226011235734
 40
64.8924656600126
 40
65.57718580015154
 40
66.25810535770599
 40
66.95276421664089
 40
67.67075357644622
 40
68.36602675636485
 40
68.97354270710197
 40
69.63079612244209
 40
70.39908920288815
 40
71.02149603406698
 40
71.73011491831684
 40
72.44044603369785
 40
73.12829330060264
 40
73.80913409269857
 40
74.49580264203479
 40
75.18722677260621
 40
75.88027311133959
 40
76.57215457325003
 40
77.26253602333551
 40
77.952058218286
 40
78.64136355058831
 40
79.33100586690792
 40
80.02103351927639
 40
80.71131083697966
 40
81.40170048843153
 40
82.09206456509928
 40
82.78231916979898
 40
83.47248440163223
 40
84.16259138424876
 40
84.8526705903207
 40
85.54275193538669
 40
86.23285858058198
 40
86.9229898227488
 40
87.61313909489725
 40
88.30329957144032
 40
88.99346429531697
 40
89.68362628417228
 40
90.37378101405794
 40
91.06392926202703
 40
91.75407256604103
 40
92.44421257947751
 40
93.13435108281796
 40
93.82448994457576
 40
94.5146307919217
 40
95.20477356690229
 40
95.89491770109798
 40
96.58506275152685
 40
97.27520837290871
 40
97.9653542726093
 40
98.65550016409952
 40
99.34564581610331
 40
100.03579111727241
 40
100.72593601269602
 40
101.41608042284663
 40
102.10622431445834
 40
102.7963678127028
 40
103.48651127028846
 40
104.17665519132207
 40
104.86679949906797
 40
105.55694396928506
 40
106.24708857853861
 40
106.93723346196118
 40
107.6273786975244
 40
108.31752410907798
 40
109.00766923659276
 40
109.6978137397002
 40
110.38795796151095
 40
111.07810212721073
 40
111.76824626367052
 40
112.4583903302117
 40
113.14853437002549
 40
113.83867859506988
 40
114.52882314069291
 40
115.21896784019094
 40
115.90911257095357
 40
116.59925728506668
 40
117.28940198373043
 40
117.97954668991675
 40
118.66969141943915
 40
119.35983615655802
 40
120.04998090254198
 40
120.74012565874142
 40
121.4302704113226
 40
122.1204151445112
 40
122.81055988178002
 40
123.50070466231246
 40
124.19084954647477
 40
124.8809946756255
 40
125.57114017519376
 40
126.2612855545328
 40
126.95143050934645
 40
127.64157539885021
 40
128.3317207304667
 40
129.02186615382945
 40
129.7120117284906
 40
130.40215700978777
 40
131.09230035127476
 40
131.78244085889636
 40
132.47258267203856
 40
133.16272636915048
 40
133.85264746341977
 40
134.54261372991832
 40
135.23318376818506
 40
135.9242859022605
 40
136.61830302454888
 40
137.27148544561598
 40
137.27148544561598
 40
137.27148544561598
 40
137.27148544561598
 10
0.374
 20
-0.1530706983751702
 30
0.0
 10
0.47368071080118723
 20
0.05953673355882084
 30
0.0
 10
0.7114751520848941
 20
0.45933410277175235
 30
0.0
 10
1.151166195443508
 20
0.9981509832708183
 30
0.0
 10
1.6236550025177412
 20
1.502093642988077
 30
0.0
 10
2.1436367351989842
 20
1.9555561601053992
 30
0.0
 10
2.6957899991210774
 20
2.3705239596870147
 30
0.0
 10
3.2760648579316154
 20
2.746155706726494
 30
0.0
 10
3.8776476140682683
 20
3.08644872956071
 30
0.0
 10
4.497371591594757
 20
3.3920034607792875
 30
0.0
 10
5.130693706939816
 20
3.6673998553620173
 30
0.0
 10
5.77538454090738
 20
3.914871856218886
 30
0.0
 10
6.429184422451747
 20
4.137071880594394
 30
0.0
 10
7.090380112982453
 20
4.33628164635061
 30
0.0
 10
7.757615235236186
 20
4.514000046819561
 30
0.0
 10
8.429851569985885
 20
4.67112885835029
 30
0.0
 10
9.106281424583669
 20
4.808256002586598
 30
0.0
 10
9.78630486887645
 20
4.925920251344888
 30
0.0
 10
10.469366260712377
 20
5.025092658266454
 30
0.0
 10
11.154858676656124
 20
5.107225912117915
 30
0.0
 10
11.842139545678455
 20
5.174149343181219
 30
0.0
 10
12.530554912197742
 20
5.22811378167667
 30
0.0
 10
13.219595043913076
 20
5.271542452724914
 30
0.0
 10
13.908966113418314
 20
5.306535592694853
 30
0.0
 10
14.598570944127541
 20
5.3344878601428585
 30
0.0
 10
15.288374174712418
 20
5.3561429062183805
 30
0.0
 10
15.978332919914717
 20
5.371952852517302
 30
0.0
 10
16.66840565860414
 20
5.382201167826386
 30
0.0
 10
17.358551492184308
 20
5.387357925434026
 30
0.0
 10
18.048736005436975
 20
5.387937832461335
 30
0.0
 10
18.738926321956576
 20
5.3843961723222495
 30
0.0
 10
19.4290900197469
 20
5.377137817278964
 30
0.0
 10
20.11920113824202
 20
5.366510032120567
 30
0.0
 10
20.809244027668726
 20
5.352809696944546
 30
0.0
 10
21.499212657815345
 20
5.336272261478003
 30
0.0
 10
22.18910446417655
 20
5.317080635709364
 30
0.0
 10
22.8789166337274
 20
5.295382649914257
 30
0.0
 10
23.568646036000004
 20
5.271312446273237
 30
0.0
 10
24.258291295961897
 20
5.245026975180642
 30
0.0
 10
24.947853876598604
 20
5.2166965186669785
 30
0.0
 10
25.637337414539626
 20
5.186489550784924
 30
0.0
 10
26.326747349616934
 20
5.154594055596542
 30
0.0
 10
27.016089936225328
 20
5.12121471646671
 30
0.0
 10
27.705371349453202
 20
5.086535793138376
 30
0.0
 10
28.394597498366455
 20
5.050699189807654
 30
0.0
 10
29.083771372724488
 20
5.013789457097941
 30
0.0
 10
29.77289047311781
 20
4.975827445003043
 30
0.0
 10
30.461946782647882
 20
4.936769605507432
 30
0.0
 10
31.15092966269792
 20
4.89651730308737
 30
0.0
 10
31.839827515408643
 20
4.854916232405489
 30
0.0
 10
32.52862817501553
 20
4.811791010618249
 30
0.0
 10
33.21732028050246
 20
4.766997299307472
 30
0.0
 10
33.90589340423385
 20
4.7204333827061316
 30
0.0
 10
34.594338885480774
 20
4.67202761759252
 30
0.0
 10
35.28265112595089
 20
4.621746012438761
 30
0.0
 10
35.970827113543535
 20
4.569588371408264
 30
0.0
 10
36.658864886210196
 20
4.515586971686043
 30
0.0
 10
37.3467628796702
 20
4.459795348057325
 30
0.0
 10
38.034519695046775
 20
4.402269309757006
 30
0.0
 10
38.72213293153641
 20
4.343043147089574
 30
0.0
 10
39.4095996701471
 20
4.28213925010642
 30
0.0
 10
40.09691599086283
 20
4.2195692595437455
 30
0.0
 10
40.784076835014226
 20
4.15533357226281
 30
0.0
 10
41.47107661802662
 20
4.089423150650032
 30
0.0
 10
42.15790967505571
 20
4.0218220314458755
 30
0.0
 10
42.84457023625746
 20
3.952510721743131
 30
0.0
 10
43.53105280214946
 20
3.8814725669974357
 30
0.0
 10
44.21735205341624
 20
3.8086927315542325
 30
0.0
 10
44.90346269100093
 20
3.734155573824129
 30
0.0
 10
45.58937953439731
 20
3.6578450248382643
 30
0.0
 10
46.2750974000679
 20
3.579744307948425
 30
0.0
 10
46.960611109861325
 20
3.4998367778160335
 30
0.0
 10
47.645915459005714
 20
3.418106357402696
 30
0.0
 10
48.33100415902682
 20
3.3345383769472896
 30
0.0
 10
49.01586812668287
 20
3.2491190802370267
 30
0.0
 10
49.70049543771688
 20
3.161836268133727
 30
0.0
 10
50.38487259380837
 20
3.072679932931677
 30
0.0
 10
51.068985949092685
 20
2.981639566527642
 30
0.0
 10
51.75282212453722
 20
2.888702915726842
 30
0.0
 10
52.43637332415703
 20
2.7938529581778577
 30
0.0
 10
53.11964318913829
 20
2.6970700951539466
 30
0.0
 10
53.802646920086715
 20
2.5983329487146754
 30
0.0
 10
54.48540522837317
 20
2.497615353868492
 30
0.0
 10
55.167938925920986
 20
2.3948883339566205
 30
0.0
 10
55.85025192747886
 20
2.290123443660068
 30
0.0
 10
56.532296482541476
 20
2.183301456250359
 30
0.0
 10
57.21396622179414
 20
2.074393828176968
 30
0.0
 10
57.89511497636733
 20
1.9633676378951446
 30
0.0
 10
58.57560086099412
 20
1.850179320810598
 30
0.0
 10
59.2554071416175
 20
1.7346984797863632
 30
0.0
 10
59.93476912524385
 20
1.616785273377987
 30
0.0
 10
60.614172419085804
 20
1.4963368508923638
 30
0.0
 10
61.29418126380945
 20
1.3732592512170123
 30
0.0
 10
61.97479792026948
 20
1.24794062598799
 30
0.0
 10
62.65479332516757
 20
1.120459132956163
 30
0.0
 10
63.33170054134438
 20
0.990808327065067
 30
0.0
 10
64.00344391931085
 20
0.8544834599272143
 30
0.0
 10
64.6765521725244
 20
0.7210267349496838
 30
0.0
 10
65.35802227608798
 20
0.5594064780762428
 30
0.0
 10
66.03506085631334
 20
0.4100551521212663
 30
0.0
 10
66.72896139649316
 20
0.2776195592969833
 30
0.0
 10
67.25725104745183
 20
0.14666941601118952
 30
0.0
 10
68.39543911475164
 20
0.06772636782928172
 30
0.0
 10
67.16122788722747
 20
0.033828396442258865
 30
0.0
 10
66.59129382796338
 20
0.024638049911903076
 30
0.0
 10
65.87439592317526
 20
0.049245330993321984
 30
0.0
 10
65.18345879727336
 20
0.08866423155041304
 30
0.0
 10
64.48953326073556
 20
0.13893830819993833
 30
0.0
 10
63.805381080526324
 20
0.16116958241262108
 30
0.0
 10
63.1194173598778
 20
0.18785648944005126
 30
0.0
 10
62.42932285094582
 20
0.20649326824884823
 30
0.0
 10
61.73737855280568
 20
0.22247726119257194
 30
0.0
 10
61.04572813701188
 20
0.23531398803905848
 30
0.0
 10
60.35520103255465
 20
0.24519095573438537
 30
0.0
 10
59.665498276600005
 20
0.25216715702608244
 30
0.0
 10
58.976020333065975
 20
0.25649473147045165
 30
0.0
 10
58.28636334544603
 20
0.2584196220495526
 30
0.0
 10
57.596379929923806
 20
0.2581843887478505
 30
0.0
 10
56.906151072878316
 20
0.25596907889895215
 30
0.0
 10
56.215818494813696
 20
0.25192389700371937
 30
0.0
 10
55.52550562427988
 20
0.24618112084745117
 30
0.0
 10
54.835282562034315
 20
0.23886310977360242
 30
0.0
 10
54.14516211430936
 20
0.23010132379244685
 30
0.0
 10
53.45511818052911
 20
0.22002359765292223
 30
0.0
 10
52.76512074615883
 20
0.2087522982406405
 30
0.0
 10
52.075141896837124
 20
0.19640521472458677
 30
0.0
 10
51.385163622064205
 20
0.18309692667725516
 30
0.0
 10
50.69517962834488
 20
0.16894043124683458
 30
0.0
 10
50.005193202041596
 20
0.1540487447441267
 30
0.0
 10
49.31520946110245
 20
0.13853006785061137
 30
0.0
 10
48.62523353566616
 20
0.12248539323284001
 30
0.0
 10
47.93526975785083
 20
0.10600738136480076
 30
0.0
 10
47.24531989863791
 20
0.08918085006078776
 30
0.0
 10
46.55538300272328
 20
0.07208084607806714
 30
0.0
 10
45.86545613128611
 20
0.054775857059606296
 30
0.0
 10
45.175536130639976
 20
0.03732723735527716
 30
0.0
 10
44.485619876175654
 20
0.019789377763692353
 30
0.0
 10
43.79570433798335
 20
0.002212481958055461
 30
0.0
 10
43.10578714369296
 20
-0.01535532250297687
 30
0.0
 10
42.41586690354995
 20
-0.03287251715712032
 30
0.0
 10
41.7259430713269
 20
-0.05030327589817715
 30
0.0
 10
41.03601532243204
 20
-0.06761624410796262
 30
0.0
 10
40.346083340926015
 20
-0.08478346116616806
 30
0.0
 10
39.65614681665987
 20
-0.10177860783040184
 30
0.0
 10
38.9662053850204
 20
-0.11857388100445079
 30
0.0
 10
38.276258665560334
 20
-0.1351423225203645
 30
0.0
 10
37.586306252864155
 20
-0.1514580505776733
 30
0.0
 10
36.896347757373775
 20
-0.16749683789423997
 30
0.0
 10
36.20638269920415
 20
-0.18323037343685464
 30
0.0
 10
35.516410581598954
 20
-0.1986305516365855
 30
0.0
 10
34.826430932992814
 20
-0.21367512278829862
 30
0.0
 10
34.1364433330406
 20
-0.2283510171248743
 30
0.0
 10
33.44644770314018
 20
-0.2426573686538084
 30
0.0
 10
32.75644442789285
 20
-0.2566066518557478
 30
0.0
 10
32.06643429415774
 20
-0.27022382975300213
 30
0.0
 10
31.376418214151563
 20
-0.2835459017977918
 30
0.0
 10
30.68639720399011
 20
-0.2966232590194133
 30
0.0
 10
29.99637226748179
 20
-0.309505888569506
 30
0.0
 10
29.306344312091245
 20
-0.3222300857999458
 30
0.0
 10
28.616314102233154
 20
-0.3348179988926393
 30
0.0
 10
27.926281942511483
 20
-0.34727662305542495
 30
0.0
 10
27.236247619592515
 20
-0.3595969703075947
 30
0.0
 10
26.546210535128363
 20
-0.371754870666566
 30
0.0
 10
25.856170004582356
 20
-0.3837128309392907
 30
0.0
 10
25.166125333387843
 20
-0.39542724945961544
 30
0.0
 10
24.476075856890276
 20
-0.40685718387268927
 30
0.0
 10
23.786021059197097
 20
-0.41797141346492667
 30
0.0
 10
23.095960592817683
 20
-0.4287423020708369
 30
0.0
 10
22.405894332369027
 20
-0.4391467848580858
 30
0.0
 10
21.715822309994124
 20
-0.44916591374456927
 30
0.0
 10
21.02574457738771
 20
-0.45878389272082787
 30
0.0
 10
20.335661187349356
 20
-0.46798660160136313
 30
0.0
 10
19.64557219207256
 20
-0.4767595897874958
 30
0.0
 10
18.95547764785251
 20
-0.48508601163248
 30
0.0
 10
18.2653776766552
 20
-0.49295121587130225
 30
0.0
 10
17.575272446492153
 20
-0.5003417417213657
 30
0.0
 10
16.885162118973206
 20
-0.5072408520891032
 30
0.0
 10
16.195046843721375
 20
-0.5136261573696815
 30
0.0
 10
15.50492674832202
 20
-0.5194675190020113
 30
0.0
 10
14.81480200869203
 20
-0.52473412460421
 30
0.0
 10
14.124672784507306
 20
-0.5293856130433333
 30
0.0
 10
13.434539207364205
 20
-0.5333652986109235
 30
0.0
 10
12.744401453823931
 20
-0.5365974374435438
 30
0.0
 10
12.054260063997306
 20
-0.5389875905483065
 30
0.0
 10
11.364116034891838
 20
-0.5404249572131301
 30
0.0
 10
10.67397072447853
 20
-0.5407763298604958
 30
0.0
 10
9.98382581857697
 20
-0.5398812562592495
 30
0.0
 10
9.293683936274862
 20
-0.5375689085526653
 30
0.0
 10
8.603548688620995
 20
-0.533709877013498
 30
0.0
 10
7.913424344417895
 20
-0.5282217271956982
 30
0.0
 10
7.2233173237920605
 20
-0.5209406062363173
 30
0.0
 10
6.533233770719318
 20
-0.5117753229617122
 30
0.0
 10
5.843188493639891
 20
-0.5001927127813782
 30
0.0
 10
5.153158071428355
 20
-0.48774089778505064
 30
0.0
 10
4.463334539582399
 20
-0.468337347163334
 30
0.0
 10
3.7732830223654252
 20
-0.46508378126218536
 30
0.0
 10
3.083379595076909
 20
-0.445253546978612
 30
0.0
 10
2.393461717226388
 20
-0.4133263216809638
 30
0.0
 10
1.7037323626682956
 20
-0.3588118717755273
 30
0.0
 10
1.0275235864686532
 20
-0.2871963124459932
 30
0.0
 10
0.5860418553884663
 20
-0.2047801656399713
 30
0.0
 10
0.374
 20
-0.1530706983751702
 30
0.0
  0
ENDSEC
  0
SECTION
  2
OBJECTS
  0
DICTIONARY
  5
A
330
0
100
AcDbDictionary
281
1
  3
ACAD_COLOR
350
B
  3
ACAD_GROUP
350
C
  3
ACAD_LAYOUT
350
D
  3
ACAD_MATERIAL
350
E
  3
ACAD_MLEADERSTYLE
350
F
  3
ACAD_MLINESTYLE
350
10
  3
ACAD_PLOTSETTINGS
350
11
  3
ACAD_PLOTSTYLENAME
350
12
  3
ACAD_SCALELIST
350
14
  3
ACAD_TABLESTYLE
350
15
  3
ACAD_VISUALSTYLE
350
16
  3
EZDXF_META
350
2D
  0
DICTIONARY
  5
B
330
A
100
AcDbDictionary
281
1
  0
DICTIONARY
  5
C
330
A
100
AcDbDictionary
281
1
  0
DICTIONARY
  5
D
330
A
100
AcDbDictionary
281
1
  3
Model
350
1A
  3
Layout1
350
1E
  0
DICTIONARY
  5
E
330
A
100
AcDbDictionary
281
1
  3
ByBlock
350
1F
  3
ByLayer
350
20
  3
Global
350
21
  0
DICTIONARY
  5
F
330
A
100
AcDbDictionary
281
1
  3
Standard
350
2C
  0
DICTIONARY
  5
10
330
A
100
AcDbDictionary
281
1
  3
Standard
350
22
  0
DICTIONARY
  5
11
330
A
100
AcDbDictionary
281
1
  0
ACDBDICTIONARYWDFLT
  5
12
330
A
100
AcDbDictionary
281
1
  3
Normal
350
13
100
AcDbDictionaryWithDefault
340
13
  0
ACDBPLACEHOLDER
  5
13
330
12
  0
DICTIONARY
  5
14
330
A
100
AcDbDictionary
281
1
  0
DICTIONARY
  5
15
330
A
100
AcDbDictionary
281
1
  0
DICTIONARY
  5
16
330
A
100
AcDbDictionary
281
1
  0
LAYOUT
  5
1A
330
D
100
AcDbPlotSettings
  1

  4
A3
  6

 40
7.5
 41
20.0
 42
7.5
 43
20.0
 44
420.0
 45
297.0
 46
0.0
 47
0.0
 48
0.0
 49
0.0
140
0.0
141
0.0
142
1.0
143
1.0
 70
1024
 72
1
 73
0
 74
5
  7

 75
16
 76
0
 77
2
 78
300
147
1.0
148
0.0
149
0.0
100
AcDbLayout
  1
Model
 70
1
 71
0
 10
0.0
 20
0.0
 11
420.0
 21
297.0
 12
0.0
 22
0.0
 32
0.0
 14
1e+20
 24
1e+20
 34
1e+20
 15
-1e+20
 25
-1e+20
 35
-1e+20
146
0.0
 13
0.0
 23
0.0
 33
0.0
 16
1.0
 26
0.0
 36
0.0
 17
0.0
 27
1.0
 37
0.0
 76
1
330
17
  0
LAYOUT
  5
1E
330
D
100
AcDbPlotSettings
  1

  4
A3
  6

 40
7.5
 41
20.0
 42
7.5
 43
20.0
 44
420.0
 45
297.0
 46
0.0
 47
0.0
 48
0.0
 49
0.0
140
0.0
141
0.0
142
1.0
143
1.0
 70
0
 72
1
 73
0
 74
5
  7

 75
16
 76
0
 77
2
 78
300
147
1.0
148
0.0
149
0.0
100
AcDbLayout
  1
Layout1
 70
1
 71
1
 10
0.0
 20
0.0
 11
420.0
 21
297.0
 12
0.0
 22
0.0
 32
0.0
 14
1e+20
 24
1e+20
 34
1e+20
 15
-1e+20
 25
-1e+20
 35
-1e+20
146
0.0
 13
0.0
 23
0.0
 33
0.0
 16
1.0
 26
0.0
 36
0.0
 17
0.0
 27
1.0
 37
0.0
 76
1
330
1B
  0
MATERIAL
  5
1F
102
{ACAD_REACTORS
330
E
102
}
330
E
100
AcDbMaterial
  1
ByBlock
  2

 70
0
 40
1.0
 71
1
 41
1.0
 91
-1023410177
 42
1.0
 72
1
  3

 73
1
 74
1
 75
1
 44
0.5
 73
0
 45
1.0
 46
1.0
 77
1
  4

 78
1
 79
1
170
1
 48
1.0
171
1
  6

172
1
173
1
174
1
140
1.0
141
1.0
175
1
  7

176
1
177
1
178
1
143
1.0
179
1
  8

270
1
271
1
272
1
145
1.0
146
1.0
273
1
  9

274
1
275
1
276
1
 42
1.0
 72
1
  3

 73
1
 74
1
 75
1
 94
63
  0
MATERIAL
  5
20
102
{ACAD_REACTORS
330
E
102
}
330
E
100
AcDbMaterial
  1
ByLayer
  2

 70
0
 40
1.0
 71
1
 41
1.0
 91
-1023410177
 42
1.0
 72
1
  3

 73
1
 74
1
 75
1
 44
0.5
 73
0
 45
1.0
 46
1.0
 77
1
  4

 78
1
 79
1
170
1
 48
1.0
171
1
  6

172
1
173
1
174
1
140
1.0
141
1.0
175
1
  7

176
1
177
1
178
1
143
1.0
179
1
  8

270
1
271
1
272
1
145
1.0
146
1.0
273
1
  9

274
1
275
1
276
1
 42
1.0
 72
1
  3

 73
1
 74
1
 75
1
 94
63
  0
MATERIAL
  5
21
102
{ACAD_REACTORS
330
E
102
}
330
E
100
AcDbMaterial
  1
Global
  2

 70
0
 40
1.0
 71
1
 41
1.0
 91
-1023410177
 42
1.0
 72
1
  3

 73
1
 74
1
 75
1
 44
0.5
 73
0
 45
1.0
 46
1.0
 77
1
  4

 78
1
 79
1
170
1
 48
1.0
171
1
  6

172
1
173
1
174
1
140
1.0
141
1.0
175
1
  7

176
1
177
1
178
1
143
1.0
179
1
  8

270
1
271
1
272
1
145
1.0
146
1.0
273
1
  9

274
1
275
1
276
1
 42
1.0
 72
1
  3

 73
1
 74
1
 75
1
 94
63
  0
MLINESTYLE
  5
22
102
{ACAD_REACTORS
330
10
102
}
330
10
100
AcDbMlineStyle
  2
Standard
 70
0
  3

 62
256
 51
90.0
 52
90.0
 71
2
 49
0.5
 62
256
  6
BYLAYER
 49
-0.5
 62
256
  6
BYLAYER
  0
MLEADERSTYLE
  5
2C
102
{ACAD_REACTORS
330
F
102
}
330
F
100
AcDbMLeaderStyle
179
2
170
2
171
1
172
0
 90
2
 40
0.0
 41
0.0
173
1
 91
-1056964608
 92
-2
290
1
 42
2.0
291
1
 43
8.0
  3
Standard
 44
4.0
300

342
29
174
1
175
1
176
0
178
1
 93
-1056964608
 45
4.0
292
0
297
0
 46
4.0
 94
-1056964608
 47
1.0
 49
1.0
140
1.0
294
1
141
0.0
177
0
142
1.0
295
0
296
0
143
3.75
271
0
272
9
273
9
  0
DICTIONARY
  5
2D
330
A
100
AcDbDictionary
280
1
281
1
  3
CREATED_BY_EZDXF
350
2E
  3
WRITTEN_BY_EZDXF
350
33
  0
DICTIONARYVAR
  5
2E
330
2D
100
DictionaryVariables
280
0
  1
1.4.2 @ 2026-01-01T13:57:46.543170+00:00
  0
DICTIONARYVAR
  5
33
330
2D
100
DictionaryVariables
280
0
  1
1.4.2 @ 2026-01-01T13:57:46.558390+00:00
  0
ENDSEC
  0
EOF
