  0
SECTION
  2
HEADER
  9
$ACADVER
  1
AC1027
  9
$ACADMAINTVER
 70
105
  9
$DWGCODEPAGE
  3
ANSI_1252
  9
$LASTSAVEDBY
  1
ezdxf
  9
$REQUIREDVERSIONS
160
0
  9
$INSBASE
 10
0.0
 20
0.0
 30
0.0
  9
$EXTMIN
 10
1e+20
 20
1e+20
 30
1e+20
  9
$EXTMAX
 10
-1e+20
 20
-1e+20
 30
-1e+20
  9
$LIMMIN
 10
0.0
 20
0.0
  9
$LIMMAX
 10
420.0
 20
297.0
  9
$ORTHOMODE
 70
0
  9
$REGENMODE
 70
1
  9
$FILLMODE
 70
1
  9
$QTEXTMODE
 70
0
  9
$MIRRTEXT
 70
1
  9
$LTSCALE
 40
1.0
  9
$ATTMODE
 70
1
  9
$TEXTSIZE
 40
2.5
  9
$TRACEWID
 40
1.0
  9
$TEXTSTYLE
  7
Standard
  9
$CLAYER
  8
0
  9
$CELTYPE
  6
ByLayer
  9
$CECOLOR
 62
256
  9
$CELTSCALE
 40
1.0
  9
$DISPSILH
 70
0
  9
$DIMSCALE
 40
1.0
  9
$DIMASZ
 40
2.5
  9
$DIMEXO
 40
0.625
  9
$DIMDLI
 40
3.75
  9
$DIMRND
 40
0.0
  9
$DIMDLE
 40
0.0
  9
$DIMEXE
 40
1.25
  9
$DIMTP
 40
0.0
  9
$DIMTM
 40
0.0
  9
$DIMTXT
 40
2.5
  9
$DIMCEN
 40
2.5
  9
$DIMTSZ
 40
0.0
  9
$DIMTOL
 70
0
  9
$DIMLIM
 70
0
  9
$DIMTIH
 70
0
  9
$DIMTOH
 70
0
  9
$DIMSE1
 70
0
  9
$DIMSE2
 70
0
  9
$DIMTAD
 70
1
  9
$DIMZIN
 70
8
  9
$DIMBLK
  1

  9
$DIMASO
 70
1
  9
$DIMSHO
 70
1
  9
$DIMPOST
  1

  9
$DIMAPOST
  1

  9
$DIMALT
 70
0
  9
$DIMALTD
 70
3
  9
$DIMALTF
 40
0.03937007874
  9
$DIMLFAC
 40
1.0
  9
$DIMTOFL
 70
1
  9
$DIMTVP
 40
0.0
  9
$DIMTIX
 70
0
  9
$DIMSOXD
 70
0
  9
$DIMSAH
 70
0
  9
$DIMBLK1
  1

  9
$DIMBLK2
  1

  9
$DIMSTYLE
  2
ISO-25
  9
$DIMCLRD
 70
0
  9
$DIMCLRE
 70
0
  9
$DIMCLRT
 70
0
  9
$DIMTFAC
 40
1.0
  9
$DIMGAP
 40
0.625
  9
$DIMJUST
 70
0
  9
$DIMSD1
 70
0
  9
$DIMSD2
 70
0
  9
$DIMTOLJ
 70
0
  9
$DIMTZIN
 70
8
  9
$DIMALTZ
 70
0
  9
$DIMALTTZ
 70
0
  9
$DIMUPT
 70
0
  9
$DIMDEC
 70
2
  9
$DIMTDEC
 70
2
  9
$DIMALTU
 70
2
  9
$DIMALTTD
 70
3
  9
$DIMTXSTY
  7
Standard
  9
$DIMAUNIT
 70
0
  9
$DIMADEC
 70
0
  9
$DIMALTRND
 40
0.0
  9
$DIMAZIN
 70
0
  9
$DIMDSEP
 70
44
  9
$DIMATFIT
 70
3
  9
$DIMFRAC
 70
0
  9
$DIMLDRBLK
  1

  9
$DIMLUNIT
 70
2
  9
$DIMLWD
 70
-2
  9
$DIMLWE
 70
-2
  9
$DIMTMOVE
 70
0
  9
$DIMFXL
 40
1.0
  9
$DIMFXLON
 70
0
  9
$DIMJOGANG
 40
0.785398163397
  9
$DIMTFILL
 70
0
  9
$DIMTFILLCLR
 70
0
  9
$DIMARCSYM
 70
0
  9
$DIMLTYPE
  6

  9
$DIMLTEX1
  6

  9
$DIMLTEX2
  6

  9
$DIMTXTDIRECTION
 70
0
  9
$LUNITS
 70
2
  9
$LUPREC
 70
4
  9
$SKETCHINC
 40
1.0
  9
$FILLETRAD
 40
10.0
  9
$AUNITS
 70
0
  9
$AUPREC
 70
2
  9
$MENU
  1
.
  9
$ELEVATION
 40
0.0
  9
$PELEVATION
 40
0.0
  9
$THICKNESS
 40
0.0
  9
$LIMCHECK
 70
0
  9
$CHAMFERA
 40
0.0
  9
$CHAMFERB
 40
0.0
  9
$CHAMFERC
 40
0.0
  9
$CHAMFERD
 40
0.0
  9
$SKPOLY
 70
0
  9
$TDCREATE
 40
2461042.3319560187
  9
$TDUCREATE
 40
2458532.153996898
  9
$TDUPDATE
 40
2461042.3319560187
  9
$TDUUPDATE
 40
2458532.1544311
  9
$TDINDWG
 40
0.0
  9
$TDUSRTIMER
 40
0.0
  9
$USRTIMER
 70
1
  9
$ANGBASE
 50
0.0
  9
$ANGDIR
 70
0
  9
$PDMODE
 70
0
  9
$PDSIZE
 40
0.0
  9
$PLINEWID
 40
0.0
  9
$SPLFRAME
 70
0
  9
$SPLINETYPE
 70
6
  9
$SPLINESEGS
 70
8
  9
$HANDSEED
  5
34
  9
$SURFTAB1
 70
6
  9
$SURFTAB2
 70
6
  9
$SURFTYPE
 70
6
  9
$SURFU
 70
6
  9
$SURFV
 70
6
  9
$UCSBASE
  2

  9
$UCSNAME
  2

  9
$UCSORG
 10
0.0
 20
0.0
 30
0.0
  9
$UCSXDIR
 10
1.0
 20
0.0
 30
0.0
  9
$UCSYDIR
 10
0.0
 20
1.0
 30
0.0
  9
$UCSORTHOREF
  2

  9
$UCSORTHOVIEW
 70
0
  9
$UCSORGTOP
 10
0.0
 20
0.0
 30
0.0
  9
$UCSORGBOTTOM
 10
0.0
 20
0.0
 30
0.0
  9
$UCSORGLEFT
 10
0.0
 20
0.0
 30
0.0
  9
$UCSORGRIGHT
 10
0.0
 20
0.0
 30
0.0
  9
$UCSORGFRONT
 10
0.0
 20
0.0
 30
0.0
  9
$UCSORGBACK
 10
0.0
 20
0.0
 30
0.0
  9
$PUCSBASE
  2

  9
$PUCSNAME
  2

  9
$PUCSORG
 10
0.0
 20
0.0
 30
0.0
  9
$PUCSXDIR
 10
1.0
 20
0.0
 30
0.0
  9
$PUCSYDIR
 10
0.0
 20
1.0
 30
0.0
  9
$PUCSORTHOREF
  2

  9
$PUCSORTHOVIEW
 70
0
  9
$PUCSORGTOP
 10
0.0
 20
0.0
 30
0.0
  9
$PUCSORGBOTTOM
 10
0.0
 20
0.0
 30
0.0
  9
$PUCSORGLEFT
 10
0.0
 20
0.0
 30
0.0
  9
$PUCSORGRIGHT
 10
0.0
 20
0.0
 30
0.0
  9
$PUCSORGFRONT
 10
0.0
 20
0.0
 30
0.0
  9
$PUCSORGBACK
 10
0.0
 20
0.0
 30
0.0
  9
$USERI1
 70
0
  9
$USERI2
 70
0
  9
$USERI3
 70
0
  9
$USERI4
 70
0
  9
$USERI5
 70
0
  9
$USERR1
 40
0.0
  9
$USERR2
 40
0.0
  9
$USERR3
 40
0.0
  9
$USERR4
 40
0.0
  9
$USERR5
 40
0.0
  9
$WORLDVIEW
 70
1
  9
$SHADEDGE
 70
3
  9
$SHADEDIF
 70
70
  9
$TILEMODE
 70
1
  9
$MAXACTVP
 70
64
  9
$PINSBASE
 10
0.0
 20
0.0
 30
0.0
  9
$PLIMCHECK
 70
0
  9
$PEXTMIN
 10
1e+20
 20
1e+20
 30
1e+20
  9
$PEXTMAX
 10
-1e+20
 20
-1e+20
 30
-1e+20
  9
$PLIMMIN
 10
0.0
 20
0.0
  9
$PLIMMAX
 10
420.0
 20
297.0
  9
$UNITMODE
 70
0
  9
$VISRETAIN
 70
1
  9
$PLINEGEN
 70
0
  9
$PSLTSCALE
 70
1
  9
$TREEDEPTH
 70
3020
  9
$CMLSTYLE
  2
Standard
  9
$CMLJUST
 70
0
  9
$CMLSCALE
 40
20.0
  9
$PROXYGRAPHICS
 70
1
  9
$MEASUREMENT
 70
1
  9
$CELWEIGHT
370
-1
  9
$ENDCAPS
280
0
  9
$JOINSTYLE
280
0
  9
$LWDISPLAY
290
0
  9
$INSUNITS
 70
4
  9
$HYPERLINKBASE
  1

  9
$STYLESHEET
  1

  9
$XEDIT
290
1
  9
$CEPSNTYPE
380
0
  9
$PSTYLEMODE
290
1
  9
$FINGERPRINTGUID
  2
{3E42727F-074A-40B7-94FA-D9D3F065CFC3}
  9
$VERSIONGUID
  2
{7E59D4BB-9593-4DD5-9AD1-E91680092314}
  9
$EXTNAMES
290
1
  9
$PSVPSCALE
 40
0.0
  9
$OLESTARTUP
290
0
  9
$SORTENTS
280
127
  9
$INDEXCTL
280
0
  9
$HIDETEXT
280
1
  9
$XCLIPFRAME
280
1
  9
$HALOGAP
280
0
  9
$OBSCOLOR
 70
257
  9
$OBSLTYPE
280
0
  9
$INTERSECTIONDISPLAY
280
0
  9
$INTERSECTIONCOLOR
 70
257
  9
$DIMASSOC
280
2
  9
$PROJECTNAME
  1

  9
$CAMERADISPLAY
290
0
  9
$LENSLENGTH
 40
50.0
  9
$CAMERAHEIGHT
 40
0.0
  9
$STEPSPERSEC
 40
24.0
  9
$STEPSIZE
 40
100.0
  9
$3DDWFPREC
 40
2.0
  9
$PSOLWIDTH
 40
0.005
  9
$PSOLHEIGHT
 40
0.08
  9
$LOFTANG1
 40
1.570796326795
  9
$LOFTANG2
 40
1.570796326795
  9
$LOFTMAG1
 40
0.0
  9
$LOFTMAG2
 40
0.0
  9
$LOFTPARAM
 70
7
  9
$LOFTNORMALS
280
1
  9
$LATITUDE
 40
37.795
  9
$LONGITUDE
 40
-122.394
  9
$NORTHDIRECTION
 40
0.0
  9
$TIMEZONE
 70
-8000
  9
$LIGHTGLYPHDISPLAY
280
1
  9
$TILEMODELIGHTSYNCH
280
1
  9
$CMATERIAL
347
20
  9
$SOLIDHIST
280
0
  9
$SHOWHIST
280
1
  9
$DWFFRAME
280
2
  9
$DGNFRAME
280
2
  9
$REALWORLDSCALE
290
1
  9
$INTERFERECOLOR
 62
256
  9
$CSHADOW
280
0
  9
$SHADOWPLANELOCATION
 40
0.0
  0
ENDSEC
  0
SECTION
  2
CLASSES
  0
CLASS
  1
ACDBDICTIONARYWDFLT
  2
AcDbDictionaryWithDefault
  3
ObjectDBX Classes
 90
0
 91
0
280
0
281
0
  0
CLASS
  1
SUN
  2
AcDbSun
  3
SCENEOE
 90
1153
 91
0
280
0
281
0
  0
CLASS
  1
VISUALSTYLE
  2
AcDbVisualStyle
  3
ObjectDBX Classes
 90
4095
 91
0
280
0
281
0
  0
CLASS
  1
MATERIAL
  2
AcDbMaterial
  3
ObjectDBX Classes
 90
1153
 91
0
280
0
281
0
  0
CLASS
  1
SCALE
  2
AcDbScale
  3
ObjectDBX Classes
 90
1153
 91
0
280
0
281
0
  0
CLASS
  1
TABLESTYLE
  2
AcDbTableStyle
  3
ObjectDBX Classes
 90
4095
 91
0
280
0
281
0
  0
CLASS
  1
MLEADERSTYLE
  2
AcDbMLeaderStyle
  3
ACDB_MLEADERSTYLE_CLASS
 90
4095
 91
0
280
0
281
0
  0
CLASS
  1
DICTIONARYVAR
  2
AcDbDictionaryVar
  3
ObjectDBX Classes
 90
0
 91
0
280
0
281
0
  0
CLASS
  1
CELLSTYLEMAP
  2
AcDbCellStyleMap
  3
ObjectDBX Classes
 90
1152
 91
0
280
0
281
0
  0
CLASS
  1
MENTALRAYRENDERSETTINGS
  2
AcDbMentalRayRenderSettings
  3
SCENEOE
 90
1024
 91
0
280
0
281
0
  0
CLASS
  1
ACDBDETAILVIEWSTYLE
  2
AcDbDetailViewStyle
  3
ObjectDBX Classes
 90
1025
 91
0
280
0
281
0
  0
CLASS
  1
ACDBSECTIONVIEWSTYLE
  2
AcDbSectionViewStyle
  3
ObjectDBX Classes
 90
1025
 91
0
280
0
281
0
  0
CLASS
  1
RASTERVARIABLES
  2
AcDbRasterVariables
  3
ISM
 90
0
 91
0
280
0
281
0
  0
CLASS
  1
ACDBPLACEHOLDER
  2
AcDbPlaceHolder
  3
ObjectDBX Classes
 90
0
 91
0
280
0
281
0
  0
CLASS
  1
LAYOUT
  2
AcDbLayout
  3
ObjectDBX Classes
 90
0
 91
0
280
0
281
0
  0
ENDSEC
  0
SECTION
  2
TABLES
  0
TABLE
  2
VPORT
  5
8
330
0
100
AcDbSymbolTable
 70
1
  0
VPORT
  5
30
330
8
100
AcDbSymbolTableRecord
100
AcDbViewportTableRecord
  2
*Active
 70
0
 10
0.0
 20
0.0
 11
1.0
 21
1.0
 12
16.09134350990214
 22
1.0668843908387613
 13
0.0
 23
0.0
 14
0.5
 24
0.5
 15
0.5
 25
0.5
 16
0.0
 26
0.0
 36
1.0
 17
0.0
 27
0.0
 37
0.0
 40
15.91540903070771
 41
1.34
 42
50.0
 43
0.0
 44
0.0
 50
0.0
 51
0.0
 71
0
 72
1000
 73
1
 74
3
 75
0
 76
0
 77
0
 78
0
281
0
 65
1
110
0.0
120
0.0
130
0.0
111
1.0
121
0.0
131
0.0
112
0.0
122
1.0
132
0.0
 79
0
146
0.0
  0
ENDTAB
  0
TABLE
  2
LTYPE
  5
2
330
0
100
AcDbSymbolTable
 70
3
  0
LTYPE
  5
24
330
2
100
AcDbSymbolTableRecord
100
AcDbLinetypeTableRecord
  2
ByBlock
 70
0
  3

 72
65
 73
0
 40
0.0
  0
LTYPE
  5
25
330
2
100
AcDbSymbolTableRecord
100
AcDbLinetypeTableRecord
  2
ByLayer
 70
0
  3

 72
65
 73
0
 40
0.0
  0
LTYPE
  5
26
330
2
100
AcDbSymbolTableRecord
100
AcDbLinetypeTableRecord
  2
Continuous
 70
0
  3

 72
65
 73
0
 40
0.0
  0
ENDTAB
  0
TABLE
  2
LAYER
  5
1
330
0
100
AcDbSymbolTable
 70
2
  0
LAYER
  5
27
330
1
100
AcDbSymbolTableRecord
100
AcDbLayerTableRecord
  2
0
 70
0
 62
7
  6
Continuous
370
-3
390
13
347
21
  0
LAYER
  5
28
330
1
100
AcDbSymbolTableRecord
100
AcDbLayerTableRecord
  2
Defpoints
 70
0
 62
7
  6
Continuous
290
0
370
-3
390
13
347
21
  0
ENDTAB
  0
TABLE
  2
STYLE
  5
5
330
0
100
AcDbSymbolTable
 70
1
  0
STYLE
  5
29
330
5
100
AcDbSymbolTableRecord
100
AcDbTextStyleTableRecord
  2
Standard
 70
0
 40
0.0
 41
1.0
 50
0.0
 71
0
 42
2.5
  3
txt
  4

  0
ENDTAB
  0
TABLE
  2
VIEW
  5
7
330
0
100
AcDbSymbolTable
 70
0
  0
ENDTAB
  0
TABLE
  2
UCS
  5
6
330
0
100
AcDbSymbolTable
 70
0
  0
ENDTAB
  0
TABLE
  2
APPID
  5
3
330
0
100
AcDbSymbolTable
 70
3
  0
APPID
  5
2A
330
3
100
AcDbSymbolTableRecord
100
AcDbRegAppTableRecord
  2
ACAD
 70
0
  0
APPID
  5
31
330
3
100
AcDbSymbolTableRecord
100
AcDbRegAppTableRecord
  2
HATCHBACKGROUNDCOLOR
 70
0
  0
APPID
  5
32
330
3
100
AcDbSymbolTableRecord
100
AcDbRegAppTableRecord
  2
EZDXF
 70
0
  0
ENDTAB
  0
TABLE
  2
DIMSTYLE
  5
4
330
0
100
AcDbSymbolTable
 70
1
100
AcDbDimStyleTable
  0
DIMSTYLE
105
2B
330
4
100
AcDbSymbolTableRecord
100
AcDbDimStyleTableRecord
  2
Standard
 70
0
 40
1.0
 41
2.5
 42
0.625
 43
3.75
 44
1.25
 45
0.0
 46
0.0
 47
0.0
 48
0.0
 49
2.5
140
2.5
141
2.5
142
0.0
143
0.03937007874
144
1.0
145
0.0
146
1.0
147
0.625
148
0.0
 69
0
 70
0
 71
0
 72
0
 73
0
 74
0
 75
0
 76
0
 77
1
 78
8
 79
3
170
0
171
3
172
1
173
0
174
0
175
0
176
0
177
0
178
0
179
2
271
2
272
2
273
2
274
3
275
0
276
0
277
2
278
44
279
0
280
0
281
0
282
0
283
0
284
8
285
0
286
0
288
0
289
3
290
0
371
-2
372
-2
  0
ENDTAB
  0
TABLE
  2
BLOCK_RECORD
  5
9
330
0
100
AcDbSymbolTable
 70
2
  0
BLOCK_RECORD
  5
17
330
9
100
AcDbSymbolTableRecord
100
AcDbBlockTableRecord
  2
*Model_Space
340
1A
 70
0
280
1
281
0
  0
BLOCK_RECORD
  5
1B
330
9
100
AcDbSymbolTableRecord
100
AcDbBlockTableRecord
  2
*Paper_Space
340
1E
 70
0
280
1
281
0
  0
ENDTAB
  0
ENDSEC
  0
SECTION
  2
BLOCKS
  0
BLOCK
  5
18
330
17
100
AcDbEntity
  8
0
100
AcDbBlockBegin
  2
*Model_Space
 70
0
 10
0.0
 20
0.0
 30
0.0
  3
*Model_Space
  1

  0
ENDBLK
  5
19
330
17
100
AcDbEntity
  8
0
100
AcDbBlockEnd
  0
BLOCK
  5
1C
330
1B
100
AcDbEntity
  8
0
100
AcDbBlockBegin
  2
*Paper_Space
 70
0
 10
0.0
 20
0.0
 30
0.0
  3
*Paper_Space
  1

  0
ENDBLK
  5
1D
330
1B
100
AcDbEntity
  8
0
100
AcDbBlockEnd
  0
ENDSEC
  0
SECTION
  2
ENTITIES
  0
SPLINE
  5
2F
330
17
100
AcDbEntity
  8
0
100
AcDbSpline
 70
0
 71
3
 72
206
 73
202
 74
0
 40
0.0
 40
0.0
 40
0.0
 40
0.0
 40
0.3246325495119887
 40
0.6492342196114422
 40
0.9738553605309259
 40
1.298464481338407
 40
1.6230794598103133
 40
1.9476919892144124
 40
2.2723058070859867
 40
2.5969187054613494
 40
2.9215320879111055
 40
3.24614521175255
 40
3.570758415624199
 40
3.895371600938464
 40
4.219984789016705
 40
4.54459796469086
 40
4.869211136449365
 40
5.193824296730351
 40
5.51843745889901
 40
5.8430506279437155
 40
6.167663793389193
 40
6.492276956068493
 40
6.816890117275548
 40
7.141503278564141
 40
7.466116439556592
 40
7.790729597283387
 40
8.115342757326774
 40
8.439955913591662
 40
8.764569071061402
 40
9.089182228742551
 40
9.413795386149825
 40
9.73840854359021
 40
10.063021700824846
 40
10.387634858082372
 40
10.712248015280382
 40
11.03686117242543
 40
11.361474329601826
 40
11.68608748661032
 40
12.010700643609704
 40
12.335313800683801
 40
12.6599269576665
 40
12.984540114589878
 40
13.309153271561343
 40
13.63376642852142
 40
13.958379585484945
 40
14.282992742437814
 40
14.607605899406023
 40
14.932219056344106
 40
15.256832213341276
 40
15.581445370395972
 40
15.906058527390538
 40
16.23067168434025
 40
16.555284841366888
 40
16.87989799834157
 40
17.204511155343532
 40
17.529124312314632
 40
17.853737469287218
 40
18.178350626233552
 40
18.50296378327923
 40
18.827576940269054
 40
19.152190097265752
 40
19.476803254264592
 40
19.80141641126355
 40
20.126029568260762
 40
20.45064272527016
 40
20.775255882257667
 40
21.099869039246787
 40
21.42448219624716
 40
21.74909535324347
 40
22.07370851024696
 40
22.398321667249284
 40
22.722934824257177
 40
23.04754798126222
 40
23.372161138275846
 40
23.696774295294343
 40
24.021387452301564
 40
24.34600060931899
 40
24.670613766323264
 40
24.99522692334414
 40
25.31984008034885
 40
25.64445323733147
 40
25.96906639434671
 40
26.293679551358483
 40
26.61829270843814
 40
26.942905865437314
 40
27.267519022621183
 40
27.592132179764803
 40
27.916745336749496
 40
28.241358493310525
 40
28.565971653446663
 40
28.890584797674006
 40
29.215197999487227
 40
29.539810991427398
 40
29.864424778589576
 40
30.189035472102216
 40
30.5136578419956
 40
30.838239861588733
 40
31.1629494622657
 40
31.487193872042198
 40
31.81385879708025
 40
32.12987304797292
 40
32.56731346805445
 40
32.76222117326887
 40
33.096216497208374
 40
33.42384549841807
 40
33.749193018320334
 40
34.07375954216108
 40
34.39835053744178
 40
34.72296712053441
 40
35.04758041175141
 40
35.37219347986166
 40
35.696806647524745
 40
36.021419808659516
 40
36.346032964685755
 40
36.67064612170814
 40
36.995259278290035
 40
37.31987243512516
 40
37.64448559212418
 40
37.969098749174876
 40
38.293711906234805
 40
38.61832506327469
 40
38.942938220262405
 40
39.267551377229694
 40
39.59216453417841
 40
39.916777691117396
 40
40.24139084805064
 40
40.566004004980925
 40
40.89061716190594
 40
41.21523031882856
 40
41.53984347574769
 40
41.86445663266438
 40
42.18906978957808
 40
42.51368294649097
 40
42.838296103401866
 40
43.162909260312254
 40
43.48752241722217
 40
43.81213557413164
 40
44.13674873104096
 40
44.461361887950396
 40
44.78597504485984
 40
45.1105882017694
 40
45.43520135867914
 40
45.75981451558875
 40
46.0844276724993
 40
46.409040829409676
 40
46.73365398632095
 40
47.05826714323101
 40
47.38288030014341
 40
47.707493457056316
 40
48.03210661396929
 40
48.35671977088269
 40
48.681332927795694
 40
49.00594608470809
 40
49.33055924161993
 40
49.655172398532216
 40
49.97978555544065
 40
50.30439871235036
 40
50.62901186926158
 40
50.953625026171665
 40
51.27823818308157
 40
51.6028513399914
 40
51.92746449690105
 40
52.25207765381179
 40
52.57669081072333
 40
52.901303967636615
 40
53.22591712454631
 40
53.55053028145955
 40
53.875143438372
 40
54.19975659528503
 40
54.524369752198176
 40
54.848982909111776
 40
55.173596066024814
 40
55.498209222941774
 40
55.822822379856156
 40
56.14743553676977
 40
56.47204869368569
 40
56.796661850599875
 40
57.12127500752287
 40
57.44588816443523
 40
57.7705013213526
 40
58.09511447827276
 40
58.419727635196345
 40
58.74434079212705
 40
59.068953949055164
 40
59.39356710598663
 40
59.71818026295081
 40
60.0427934199478
 40
60.36740657707836
 40
60.69201973341365
 40
61.0166328919331
 40
61.34124604466064
 40
61.665859212998996
 40
61.99047235216854
 40
62.31508547771176
 40
62.63969916290604
 40
62.96431222032091
 40
63.2889241919267
 40
63.61353950320925
 40
63.93814763820798
 40
64.2627740053331
 40
64.58736451891586
 40
64.58736451891586
 40
64.58736451891586
 40
64.58736451891586
 10
0.17593447919442617
 20
0.06452532915759181
 30
0.0
 10
0.22387046515541467
 20
0.16239157737439336
 30
0.0
 10
0.33761989705770734
 20
0.3467817855400437
 30
0.0
 10
0.5473376416421988
 20
0.5957140574519296
 30
0.0
 10
0.7732929028928474
 20
0.8291230805062897
 30
0.0
 10
1.0216948469940972
 20
1.038876421417093
 30
0.0
 10
1.284533322104111
 20
1.2297653277481078
 30
0.0
 10
1.5600782842810774
 20
1.4018278190556799
 30
0.0
 10
1.8453514835464873
 20
1.5570954425240686
 30
0.0
 10
2.1389475244809297
 20
1.6959257966044416
 30
0.0
 10
2.438828718872487
 20
1.8204895605393538
 30
0.0
 10
2.7438510817906336
 20
1.9318259180871935
 30
0.0
 10
3.052961011439016
 20
2.03118402412754
 30
0.0
 10
3.3653485844026503
 20
2.119655048938148
 30
0.0
 10
3.680427170284334
 20
2.1979736122275475
 30
0.0
 10
3.997756869118378
 20
2.266583924637081
 30
0.0
 10
4.316976181526625
 20
2.3257673468166837
 30
0.0
 10
4.637758891029571
 20
2.3757656814188244
 30
0.0
 10
4.959776939780401
 20
2.417022757035609
 30
0.0
 10
5.282718471534504
 20
2.4502217428411193
 30
0.0
 10
5.606311211376741
 20
2.476229069494692
 30
0.0
 10
5.9303308373924315
 20
2.496109227249146
 30
0.0
 10
6.254612084275064
 20
2.5110060272788033
 30
0.0
 10
6.579048552917295
 20
2.5219135961299086
 30
0.0
 10
6.903578103767795
 20
2.5294961084218013
 30
0.0
 10
7.228162637909831
 20
2.5341087458259377
 30
0.0
 10
7.552774183198797
 20
2.5359675328581335
 30
0.0
 10
7.877389718534196
 20
2.535205710052193
 30
0.0
 10
8.20199011569568
 20
2.5320418190359715
 30
0.0
 10
8.526561773984975
 20
2.526718766381201
 30
0.0
 10
8.851095324143161
 20
2.5194517776373218
 30
0.0
 10
9.17558457224184
 20
2.5104320990982743
 30
0.0
 10
9.500025521500268
 20
2.499823783419885
 30
0.0
 10
9.824415690845004
 20
2.487767168026506
 30
0.0
 10
10.148753288406178
 20
2.4743738964902557
 30
0.0
 10
10.473036759348089
 20
2.459730698524941
 30
0.0
 10
10.797264720588984
 20
2.4439075587117385
 30
0.0
 10
11.121436163845495
 20
2.4269674175936555
 30
0.0
 10
11.445551296954301
 20
2.408983569593723
 30
0.0
 10
11.769611441551083
 20
2.390036010862163
 30
0.0
 10
12.09361857556127
 20
2.3702038153614335
 30
0.0
 10
12.417575878514182
 20
2.349574838270913
 30
0.0
 10
12.741487736151196
 20
2.328245208444064
 30
0.0
 10
13.065358562876995
 20
2.306302099781305
 30
0.0
 10
13.389191914094166
 20
2.2838131472260543
 30
0.0
 10
13.712989791606825
 20
2.260819278356856
 30
0.0
 10
14.036752223438487
 20
2.2373315627344175
 30
0.0
 10
14.360477034342237
 20
2.2133306673512974
 30
0.0
 10
14.684159995893298
 20
2.188771377769699
 30
0.0
 10
15.007794603002607
 20
2.1635822208165605
 30
0.0
 10
15.331373043379612
 20
2.13768081073024
 30
0.0
 10
15.654888076996569
 20
2.110998539261812
 30
0.0
 10
15.978333677430673
 20
2.0834869565046206
 30
0.0
 10
16.30170468697954
 20
2.055111810458366
 30
0.0
 10
16.624997258970076
 20
2.0258564396478116
 30
0.0
 10
16.94820889781505
 20
1.9957201470360209
 30
0.0
 10
17.27133856935554
 20
1.9647175185541383
 30
0.0
 10
17.59438637152771
 20
1.9328733737156711
 30
0.0
 10
17.917352772201784
 20
1.9002141627747287
 30
0.0
 10
18.240237416543376
 20
1.8667564326678157
 30
0.0
 10
18.563039450144828
 20
1.8325109073186865
 30
0.0
 10
18.885757554991933
 20
1.7974833149834721
 30
0.0
 10
19.208389864597084
 20
1.7616740789194518
 30
0.0
 10
19.530934006174213
 20
1.7250791538000707
 30
0.0
 10
19.85338719494256
 20
1.6876912196839844
 30
0.0
 10
20.175746377479125
 20
1.6495011834142548
 30
0.0
 10
20.498008579559734
 20
1.6105012016314486
 30
0.0
 10
20.820170882981472
 20
1.570684374470167
 30
0.0
 10
21.14223027227407
 20
1.530043465390474
 30
0.0
 10
21.464183649147756
 20
1.4885710495543059
 30
0.0
 10
21.786027813072703
 20
1.4462593858282164
 30
0.0
 10
22.107759506960946
 20
1.403100789573994
 30
0.0
 10
22.429375444975868
 20
1.3590878368413435
 30
0.0
 10
22.750872362993228
 20
1.3142137087532086
 30
0.0
 10
23.07224697898078
 20
1.2684718697946094
 30
0.0
 10
23.393496027385414
 20
1.2218562930365275
 30
0.0
 10
23.71461632625921
 20
1.1743618724349383
 30
0.0
 10
24.035604616493487
 20
1.1259832880852294
 30
0.0
 10
24.35645747516037
 20
1.0767144596234357
 30
0.0
 10
24.677171133364165
 20
1.0265474459772526
 30
0.0
 10
24.997741664695006
 20
0.9754737775240478
 30
0.0
 10
25.31816508285801
 20
0.9234850844703663
 30
0.0
 10
25.638437055600846
 20
0.8705713662640922
 30
0.0
 10
25.95855296962935
 20
0.8167215038742298
 30
0.0
 10
26.278507951774486
 20
0.7619234850968204
 30
0.0
 10
26.598297174401974
 20
0.7061661876232405
 30
0.0
 10
26.917914225447667
 20
0.6494301273794686
 30
0.0
 10
27.237351390195435
 20
0.5916897232571472
 30
0.0
 10
27.556599984177105
 20
0.5329153621339339
 30
0.0
 10
27.875645267258957
 20
0.47304681839720397
 30
0.0
 10
28.194473925351208
 20
0.41203487001792766
 30
0.0
 10
28.513080637964258
 20
0.3498747973192911
 30
0.0
 10
28.83146013426955
 20
0.2865593619662908
 30
0.0
 10
29.14964685594403
 20
0.22229258987861272
 30
0.0
 10
29.467621435428434
 20
0.15694639925359943
 30
0.0
 10
29.785364080426046
 20
0.09061470200414869
 30
0.0
 10
30.102376166432727
 20
0.020338908903259102
 30
0.0
 10
30.41947193981394
 20
-0.04748122574807464
 30
0.0
 10
30.73538867045026
 20
-0.12936562164457047
 30
0.0
 10
31.045895278891717
 20
-0.19929073798943672
 30
0.0
 10
31.410754574684177
 20
-0.29263117831906843
 30
0.0
 10
31.661946474087255
 20
-0.3104127680875828
 30
0.0
 10
32.12980795453165
 20
-0.4050040535641202
 30
0.0
 10
31.58903454889488
 20
-0.39156004995354377
 30
0.0
 10
31.337879203941128
 20
-0.3970940328067832
 30
0.0
 10
30.99182814092975
 20
-0.3775625413625046
 30
0.0
 10
30.67336906732454
 20
-0.354216831285443
 30
0.0
 10
30.348583445383316
 20
-0.32480827420232716
 30
0.0
 10
30.024733469514032
 20
-0.3086124588296803
 30
0.0
 10
29.700535715709407
 20
-0.29033460321859134
 30
0.0
 10
29.376262992425843
 20
-0.2759216535536963
 30
0.0
 10
29.051910116356886
 20
-0.26276130628317984
 30
0.0
 10
28.72750799290139
 20
-0.2510699699738653
 30
0.0
 10
28.403057374435292
 20
-0.24075598410987725
 30
0.0
 10
28.078566973436487
 20
-0.23180110448942012
 30
0.0
 10
27.754044595306436
 20
-0.22409300388991304
 30
0.0
 10
27.4294974681787
 20
-0.2175171190172014
 30
0.0
 10
27.104931429520043
 20
-0.21195814633070043
 30
0.0
 10
26.780350855557398
 20
-0.20733012302512596
 30
0.0
 10
26.45575921803014
 20
-0.20356200355774315
 30
0.0
 10
26.131159345867424
 20
-0.2005918275004322
 30
0.0
 10
25.806553584176335
 20
-0.1983626167426762
 30
0.0
 10
25.48194390998893
 20
-0.19681299523695323
 30
0.0
 10
25.157331906701938
 20
-0.19588294092153324
 30
0.0
 10
24.8327188123904
 20
-0.19551484402570046
 30
0.0
 10
24.5081055672785
 20
-0.19565315312911294
 30
0.0
 10
24.18349285494968
 20
-0.19624383895911052
 30
0.0
 10
23.858881136276057
 20
-0.1972337075405633
 30
0.0
 10
23.53427067598847
 20
-0.19856964857675546
 30
0.0
 10
23.209661579954187
 20
-0.20020083048292936
 30
0.0
 10
22.885053835293963
 20
-0.20207981498831204
 30
0.0
 10
22.560447346139092
 20
-0.2041630807720431
 30
0.0
 10
22.2358419601244
 20
-0.20641075840314776
 30
0.0
 10
21.91123749818537
 20
-0.20878754020168458
 30
0.0
 10
21.586633762988274
 20
-0.21126118535169008
 30
0.0
 10
21.26203055467781
 20
-0.21380278998315877
 30
0.0
 10
20.937427681654984
 20
-0.2163867285929965
 30
0.0
 10
20.612824958471933
 20
-0.21898936778318495
 30
0.0
 10
20.28822220343696
 20
-0.22158804204901106
 30
0.0
 10
19.96361926039761
 20
-0.2241631813981407
 30
0.0
 10
19.63901599866146
 20
-0.226697913703329
 30
0.0
 10
19.314412310020987
 20
-0.2291774764155622
 30
0.0
 10
18.98980810573763
 20
-0.23158870857744576
 30
0.0
 10
18.665203311019543
 20
-0.23391924710306394
 30
0.0
 10
18.340597855485314
 20
-0.23615603319007786
 30
0.0
 10
18.015991682645033
 20
-0.2382863898834304
 30
0.0
 10
17.691384751644836
 20
-0.24029813511927595
 30
0.0
 10
17.366777039471238
 20
-0.2421798965412687
 30
0.0
 10
17.042168526420284
 20
-0.24391840160321754
 30
0.0
 10
16.717559210971938
 20
-0.24550040868171286
 30
0.0
 10
16.392949122973
 20
-0.2469153841574313
 30
0.0
 10
16.068338325236947
 20
-0.24815707423697977
 30
0.0
 10
15.74372690958178
 20
-0.2492249350274835
 30
0.0
 10
15.41911498596783
 20
-0.25012469078388866
 30
0.0
 10
15.094502668605825
 20
-0.25086795103513765
 30
0.0
 10
14.769890065234303
 20
-0.2514719517203171
 30
0.0
 10
14.445277270204574
 20
-0.2519602780755232
 30
0.0
 10
14.120664351688422
 20
-0.25235652339423376
 30
0.0
 10
13.796051351492636
 20
-0.2526779249940519
 30
0.0
 10
13.471438294502088
 20
-0.2529350651801933
 30
0.0
 10
13.146825195037753
 20
-0.2531314265572486
 30
0.0
 10
12.82221206233563
 20
-0.2532629800210765
 30
0.0
 10
12.497598906593202
 20
-0.25331855371876866
 30
0.0
 10
12.172985746428129
 20
-0.2532806622050287
 30
0.0
 10
11.848372617126378
 20
-0.2531288428739716
 30
0.0
 10
11.523759575186974
 20
-0.2528437500599376
 30
0.0
 10
11.199146694956674
 20
-0.25241061127034503
 30
0.0
 10
10.874534067615535
 20
-0.25181639746664386
 30
0.0
 10
10.54992179890692
 20
-0.2510502032261132
 30
0.0
 10
10.225310006181655
 20
-0.2501030745553262
 30
0.0
 10
9.90069881645695
 20
-0.2489675541668541
 30
0.0
 10
9.576088366300914
 20
-0.24763699425389557
 30
0.0
 10
9.251478804473171
 20
-0.24610463804460847
 30
0.0
 10
8.926870298656853
 20
-0.24436257861552285
 30
0.0
 10
8.602263026309833
 20
-0.2424038879410425
 30
0.0
 10
8.277657174170429
 20
-0.2402222605527901
 30
0.0
 10
7.953052952655162
 20
-0.23780990368312663
 30
0.0
 10
7.62845060949014
 20
-0.2351564286656285
 30
0.0
 10
7.303850449193098
 20
-0.23224773792028572
 30
0.0
 10
6.979252812743095
 20
-0.22906940719601673
 30
0.0
 10
6.654658121402009
 20
-0.22560271041435714
 30
0.0
 10
6.3300669336142015
 20
-0.22182132632447993
 30
0.0
 10
6.00547999677282
 20
-0.2176900102210687
 30
0.0
 10
5.680898294545814
 20
-0.21316469559971996
 30
0.0
 10
5.356323087144706
 20
-0.20819365156345282
 30
0.0
 10
5.031756018523675
 20
-0.20271479208021936
 30
0.0
 10
4.707199263685833
 20
-0.19665315644236844
 30
0.0
 10
4.38265551435723
 20
-0.18992848075799415
 30
0.0
 10
4.058127594138533
 20
-0.1824780770397955
 30
0.0
 10
3.7336179722852245
 20
-0.17426600440113163
 30
0.0
 10
3.4091309225812125
 20
-0.16520793558661345
 30
0.0
 10
3.084668640976231
 20
-0.15528866839148017
 30
0.0
 10
2.7602456335058556
 20
-0.1441752624290634
 30
0.0
 10
2.435830741571685
 20
-0.13280617170618933
 30
0.0
 10
2.111547356424626
 20
-0.11787137661837463
 30
0.0
 10
1.7869940519662941
 20
-0.11060240178388256
 30
0.0
 10
1.4626946419796956
 20
-0.09599348647587609
 30
0.0
 10
1.1386680889098504
 20
-0.07566638066482208
 30
0.0
 10
0.8155238987468935
 20
-0.044852130804767125
 30
0.0
 10
0.49302868403104105
 20
-0.005734713491206011
 30
0.0
 10
0.28087506816841806
 20
0.03705913109614743
 30
0.0
 10
0.17593447919442617
 20
0.06452532915759181
 30
0.0
  0
ENDSEC
  0
SECTION
  2
OBJECTS
  0
DICTIONARY
  5
A
330
0
100
AcDbDictionary
281
1
  3
ACAD_COLOR
350
B
  3
ACAD_GROUP
350
C
  3
ACAD_LAYOUT
350
D
  3
ACAD_MATERIAL
350
E
  3
ACAD_MLEADERSTYLE
350
F
  3
ACAD_MLINESTYLE
350
10
  3
ACAD_PLOTSETTINGS
350
11
  3
ACAD_PLOTSTYLENAME
350
12
  3
ACAD_SCALELIST
350
14
  3
ACAD_TABLESTYLE
350
15
  3
ACAD_VISUALSTYLE
350
16
  3
EZDXF_META
350
2D
  0
DICTIONARY
  5
B
330
A
100
AcDbDictionary
281
1
  0
DICTIONARY
  5
C
330
A
100
AcDbDictionary
281
1
  0
DICTIONARY
  5
D
330
A
100
AcDbDictionary
281
1
  3
Model
350
1A
  3
Layout1
350
1E
  0
DICTIONARY
  5
E
330
A
100
AcDbDictionary
281
1
  3
ByBlock
350
1F
  3
ByLayer
350
20
  3
Global
350
21
  0
DICTIONARY
  5
F
330
A
100
AcDbDictionary
281
1
  3
Standard
350
2C
  0
DICTIONARY
  5
10
330
A
100
AcDbDictionary
281
1
  3
Standard
350
22
  0
DICTIONARY
  5
11
330
A
100
AcDbDictionary
281
1
  0
ACDBDICTIONARYWDFLT
  5
12
330
A
100
AcDbDictionary
281
1
  3
Normal
350
13
100
AcDbDictionaryWithDefault
340
13
  0
ACDBPLACEHOLDER
  5
13
330
12
  0
DICTIONARY
  5
14
330
A
100
AcDbDictionary
281
1
  0
DICTIONARY
  5
15
330
A
100
AcDbDictionary
281
1
  0
DICTIONARY
  5
16
330
A
100
AcDbDictionary
281
1
  0
LAYOUT
  5
1A
330
D
100
AcDbPlotSettings
  1

  4
A3
  6

 40
7.5
 41
20.0
 42
7.5
 43
20.0
 44
420.0
 45
297.0
 46
0.0
 47
0.0
 48
0.0
 49
0.0
140
0.0
141
0.0
142
1.0
143
1.0
 70
1024
 72
1
 73
0
 74
5
  7

 75
16
 76
0
 77
2
 78
300
147
1.0
148
0.0
149
0.0
100
AcDbLayout
  1
Model
 70
1
 71
0
 10
0.0
 20
0.0
 11
420.0
 21
297.0
 12
0.0
 22
0.0
 32
0.0
 14
1e+20
 24
1e+20
 34
1e+20
 15
-1e+20
 25
-1e+20
 35
-1e+20
146
0.0
 13
0.0
 23
0.0
 33
0.0
 16
1.0
 26
0.0
 36
0.0
 17
0.0
 27
1.0
 37
0.0
 76
1
330
17
  0
LAYOUT
  5
1E
330
D
100
AcDbPlotSettings
  1

  4
A3
  6

 40
7.5
 41
20.0
 42
7.5
 43
20.0
 44
420.0
 45
297.0
 46
0.0
 47
0.0
 48
0.0
 49
0.0
140
0.0
141
0.0
142
1.0
143
1.0
 70
0
 72
1
 73
0
 74
5
  7

 75
16
 76
0
 77
2
 78
300
147
1.0
148
0.0
149
0.0
100
AcDbLayout
  1
Layout1
 70
1
 71
1
 10
0.0
 20
0.0
 11
420.0
 21
297.0
 12
0.0
 22
0.0
 32
0.0
 14
1e+20
 24
1e+20
 34
1e+20
 15
-1e+20
 25
-1e+20
 35
-1e+20
146
0.0
 13
0.0
 23
0.0
 33
0.0
 16
1.0
 26
0.0
 36
0.0
 17
0.0
 27
1.0
 37
0.0
 76
1
330
1B
  0
MATERIAL
  5
1F
102
{ACAD_REACTORS
330
E
102
}
330
E
100
AcDbMaterial
  1
ByBlock
  2

 70
0
 40
1.0
 71
1
 41
1.0
 91
-1023410177
 42
1.0
 72
1
  3

 73
1
 74
1
 75
1
 44
0.5
 73
0
 45
1.0
 46
1.0
 77
1
  4

 78
1
 79
1
170
1
 48
1.0
171
1
  6

172
1
173
1
174
1
140
1.0
141
1.0
175
1
  7

176
1
177
1
178
1
143
1.0
179
1
  8

270
1
271
1
272
1
145
1.0
146
1.0
273
1
  9

274
1
275
1
276
1
 42
1.0
 72
1
  3

 73
1
 74
1
 75
1
 94
63
  0
MATERIAL
  5
20
102
{ACAD_REACTORS
330
E
102
}
330
E
100
AcDbMaterial
  1
ByLayer
  2

 70
0
 40
1.0
 71
1
 41
1.0
 91
-1023410177
 42
1.0
 72
1
  3

 73
1
 74
1
 75
1
 44
0.5
 73
0
 45
1.0
 46
1.0
 77
1
  4

 78
1
 79
1
170
1
 48
1.0
171
1
  6

172
1
173
1
174
1
140
1.0
141
1.0
175
1
  7

176
1
177
1
178
1
143
1.0
179
1
  8

270
1
271
1
272
1
145
1.0
146
1.0
273
1
  9

274
1
275
1
276
1
 42
1.0
 72
1
  3

 73
1
 74
1
 75
1
 94
63
  0
MATERIAL
  5
21
102
{ACAD_REACTORS
330
E
102
}
330
E
100
AcDbMaterial
  1
Global
  2

 70
0
 40
1.0
 71
1
 41
1.0
 91
-1023410177
 42
1.0
 72
1
  3

 73
1
 74
1
 75
1
 44
0.5
 73
0
 45
1.0
 46
1.0
 77
1
  4

 78
1
 79
1
170
1
 48
1.0
171
1
  6

172
1
173
1
174
1
140
1.0
141
1.0
175
1
  7

176
1
177
1
178
1
143
1.0
179
1
  8

270
1
271
1
272
1
145
1.0
146
1.0
273
1
  9

274
1
275
1
276
1
 42
1.0
 72
1
  3

 73
1
 74
1
 75
1
 94
63
  0
MLINESTYLE
  5
22
102
{ACAD_REACTORS
330
10
102
}
330
10
100
AcDbMlineStyle
  2
Standard
 70
0
  3

 62
256
 51
90.0
 52
90.0
 71
2
 49
0.5
 62
256
  6
BYLAYER
 49
-0.5
 62
256
  6
BYLAYER
  0
MLEADERSTYLE
  5
2C
102
{ACAD_REACTORS
330
F
102
}
330
F
100
AcDbMLeaderStyle
179
2
170
2
171
1
172
0
 90
2
 40
0.0
 41
0.0
173
1
 91
-1056964608
 92
-2
290
1
 42
2.0
291
1
 43
8.0
  3
Standard
 44
4.0
300

342
29
174
1
175
1
176
0
178
1
 93
-1056964608
 45
4.0
292
0
297
0
 46
4.0
 94
-1056964608
 47
1.0
 49
1.0
140
1.0
294
1
141
0.0
177
0
142
1.0
295
0
296
0
143
3.75
271
0
272
9
273
9
  0
DICTIONARY
  5
2D
330
A
100
AcDbDictionary
280
1
281
1
  3
CREATED_BY_EZDXF
350
2E
  3
WRITTEN_BY_EZDXF
350
33
  0
DICTIONARYVAR
  5
2E
330
2D
100
DictionaryVariables
280
0
  1
1.4.2 @ 2026-01-01T13:58:01.789014+00:00
  0
DICTIONARYVAR
  5
33
330
2D
100
DictionaryVariables
280
0
  1
1.4.2 @ 2026-01-01T13:58:01.802078+00:00
  0
ENDSEC
  0
EOF
