  0
SECTION
  2
HEADER
  9
$ACADVER
  1
AC1027
  9
$ACADMAINTVER
 70
105
  9
$DWGCODEPAGE
  3
ANSI_1252
  9
$LASTSAVEDBY
  1
ezdxf
  9
$REQUIREDVERSIONS
160
0
  9
$INSBASE
 10
0.0
 20
0.0
 30
0.0
  9
$EXTMIN
 10
1e+20
 20
1e+20
 30
1e+20
  9
$EXTMAX
 10
-1e+20
 20
-1e+20
 30
-1e+20
  9
$LIMMIN
 10
0.0
 20
0.0
  9
$LIMMAX
 10
420.0
 20
297.0
  9
$ORTHOMODE
 70
0
  9
$REGENMODE
 70
1
  9
$FILLMODE
 70
1
  9
$QTEXTMODE
 70
0
  9
$MIRRTEXT
 70
1
  9
$LTSCALE
 40
1.0
  9
$ATTMODE
 70
1
  9
$TEXTSIZE
 40
2.5
  9
$TRACEWID
 40
1.0
  9
$TEXTSTYLE
  7
Standard
  9
$CLAYER
  8
0
  9
$CELTYPE
  6
ByLayer
  9
$CECOLOR
 62
256
  9
$CELTSCALE
 40
1.0
  9
$DISPSILH
 70
0
  9
$DIMSCALE
 40
1.0
  9
$DIMASZ
 40
2.5
  9
$DIMEXO
 40
0.625
  9
$DIMDLI
 40
3.75
  9
$DIMRND
 40
0.0
  9
$DIMDLE
 40
0.0
  9
$DIMEXE
 40
1.25
  9
$DIMTP
 40
0.0
  9
$DIMTM
 40
0.0
  9
$DIMTXT
 40
2.5
  9
$DIMCEN
 40
2.5
  9
$DIMTSZ
 40
0.0
  9
$DIMTOL
 70
0
  9
$DIMLIM
 70
0
  9
$DIMTIH
 70
0
  9
$DIMTOH
 70
0
  9
$DIMSE1
 70
0
  9
$DIMSE2
 70
0
  9
$DIMTAD
 70
1
  9
$DIMZIN
 70
8
  9
$DIMBLK
  1

  9
$DIMASO
 70
1
  9
$DIMSHO
 70
1
  9
$DIMPOST
  1

  9
$DIMAPOST
  1

  9
$DIMALT
 70
0
  9
$DIMALTD
 70
3
  9
$DIMALTF
 40
0.03937007874
  9
$DIMLFAC
 40
1.0
  9
$DIMTOFL
 70
1
  9
$DIMTVP
 40
0.0
  9
$DIMTIX
 70
0
  9
$DIMSOXD
 70
0
  9
$DIMSAH
 70
0
  9
$DIMBLK1
  1

  9
$DIMBLK2
  1

  9
$DIMSTYLE
  2
ISO-25
  9
$DIMCLRD
 70
0
  9
$DIMCLRE
 70
0
  9
$DIMCLRT
 70
0
  9
$DIMTFAC
 40
1.0
  9
$DIMGAP
 40
0.625
  9
$DIMJUST
 70
0
  9
$DIMSD1
 70
0
  9
$DIMSD2
 70
0
  9
$DIMTOLJ
 70
0
  9
$DIMTZIN
 70
8
  9
$DIMALTZ
 70
0
  9
$DIMALTTZ
 70
0
  9
$DIMUPT
 70
0
  9
$DIMDEC
 70
2
  9
$DIMTDEC
 70
2
  9
$DIMALTU
 70
2
  9
$DIMALTTD
 70
3
  9
$DIMTXSTY
  7
Standard
  9
$DIMAUNIT
 70
0
  9
$DIMADEC
 70
0
  9
$DIMALTRND
 40
0.0
  9
$DIMAZIN
 70
0
  9
$DIMDSEP
 70
44
  9
$DIMATFIT
 70
3
  9
$DIMFRAC
 70
0
  9
$DIMLDRBLK
  1

  9
$DIMLUNIT
 70
2
  9
$DIMLWD
 70
-2
  9
$DIMLWE
 70
-2
  9
$DIMTMOVE
 70
0
  9
$DIMFXL
 40
1.0
  9
$DIMFXLON
 70
0
  9
$DIMJOGANG
 40
0.785398163397
  9
$DIMTFILL
 70
0
  9
$DIMTFILLCLR
 70
0
  9
$DIMARCSYM
 70
0
  9
$DIMLTYPE
  6

  9
$DIMLTEX1
  6

  9
$DIMLTEX2
  6

  9
$DIMTXTDIRECTION
 70
0
  9
$LUNITS
 70
2
  9
$LUPREC
 70
4
  9
$SKETCHINC
 40
1.0
  9
$FILLETRAD
 40
10.0
  9
$AUNITS
 70
0
  9
$AUPREC
 70
2
  9
$MENU
  1
.
  9
$ELEVATION
 40
0.0
  9
$PELEVATION
 40
0.0
  9
$THICKNESS
 40
0.0
  9
$LIMCHECK
 70
0
  9
$CHAMFERA
 40
0.0
  9
$CHAMFERB
 40
0.0
  9
$CHAMFERC
 40
0.0
  9
$CHAMFERD
 40
0.0
  9
$SKPOLY
 70
0
  9
$TDCREATE
 40
2461042.398576389
  9
$TDUCREATE
 40
2458532.153996898
  9
$TDUPDATE
 40
2461042.398576389
  9
$TDUUPDATE
 40
2458532.1544311
  9
$TDINDWG
 40
0.0
  9
$TDUSRTIMER
 40
0.0
  9
$USRTIMER
 70
1
  9
$ANGBASE
 50
0.0
  9
$ANGDIR
 70
0
  9
$PDMODE
 70
0
  9
$PDSIZE
 40
0.0
  9
$PLINEWID
 40
0.0
  9
$SPLFRAME
 70
0
  9
$SPLINETYPE
 70
6
  9
$SPLINESEGS
 70
8
  9
$HANDSEED
  5
34
  9
$SURFTAB1
 70
6
  9
$SURFTAB2
 70
6
  9
$SURFTYPE
 70
6
  9
$SURFU
 70
6
  9
$SURFV
 70
6
  9
$UCSBASE
  2

  9
$UCSNAME
  2

  9
$UCSORG
 10
0.0
 20
0.0
 30
0.0
  9
$UCSXDIR
 10
1.0
 20
0.0
 30
0.0
  9
$UCSYDIR
 10
0.0
 20
1.0
 30
0.0
  9
$UCSORTHOREF
  2

  9
$UCSORTHOVIEW
 70
0
  9
$UCSORGTOP
 10
0.0
 20
0.0
 30
0.0
  9
$UCSORGBOTTOM
 10
0.0
 20
0.0
 30
0.0
  9
$UCSORGLEFT
 10
0.0
 20
0.0
 30
0.0
  9
$UCSORGRIGHT
 10
0.0
 20
0.0
 30
0.0
  9
$UCSORGFRONT
 10
0.0
 20
0.0
 30
0.0
  9
$UCSORGBACK
 10
0.0
 20
0.0
 30
0.0
  9
$PUCSBASE
  2

  9
$PUCSNAME
  2

  9
$PUCSORG
 10
0.0
 20
0.0
 30
0.0
  9
$PUCSXDIR
 10
1.0
 20
0.0
 30
0.0
  9
$PUCSYDIR
 10
0.0
 20
1.0
 30
0.0
  9
$PUCSORTHOREF
  2

  9
$PUCSORTHOVIEW
 70
0
  9
$PUCSORGTOP
 10
0.0
 20
0.0
 30
0.0
  9
$PUCSORGBOTTOM
 10
0.0
 20
0.0
 30
0.0
  9
$PUCSORGLEFT
 10
0.0
 20
0.0
 30
0.0
  9
$PUCSORGRIGHT
 10
0.0
 20
0.0
 30
0.0
  9
$PUCSORGFRONT
 10
0.0
 20
0.0
 30
0.0
  9
$PUCSORGBACK
 10
0.0
 20
0.0
 30
0.0
  9
$USERI1
 70
0
  9
$USERI2
 70
0
  9
$USERI3
 70
0
  9
$USERI4
 70
0
  9
$USERI5
 70
0
  9
$USERR1
 40
0.0
  9
$USERR2
 40
0.0
  9
$USERR3
 40
0.0
  9
$USERR4
 40
0.0
  9
$USERR5
 40
0.0
  9
$WORLDVIEW
 70
1
  9
$SHADEDGE
 70
3
  9
$SHADEDIF
 70
70
  9
$TILEMODE
 70
1
  9
$MAXACTVP
 70
64
  9
$PINSBASE
 10
0.0
 20
0.0
 30
0.0
  9
$PLIMCHECK
 70
0
  9
$PEXTMIN
 10
1e+20
 20
1e+20
 30
1e+20
  9
$PEXTMAX
 10
-1e+20
 20
-1e+20
 30
-1e+20
  9
$PLIMMIN
 10
0.0
 20
0.0
  9
$PLIMMAX
 10
420.0
 20
297.0
  9
$UNITMODE
 70
0
  9
$VISRETAIN
 70
1
  9
$PLINEGEN
 70
0
  9
$PSLTSCALE
 70
1
  9
$TREEDEPTH
 70
3020
  9
$CMLSTYLE
  2
Standard
  9
$CMLJUST
 70
0
  9
$CMLSCALE
 40
20.0
  9
$PROXYGRAPHICS
 70
1
  9
$MEASUREMENT
 70
1
  9
$CELWEIGHT
370
-1
  9
$ENDCAPS
280
0
  9
$JOINSTYLE
280
0
  9
$LWDISPLAY
290
0
  9
$INSUNITS
 70
4
  9
$HYPERLINKBASE
  1

  9
$STYLESHEET
  1

  9
$XEDIT
290
1
  9
$CEPSNTYPE
380
0
  9
$PSTYLEMODE
290
1
  9
$FINGERPRINTGUID
  2
{C3D885B1-CCCB-4EE0-B7DC-23570DAC19C6}
  9
$VERSIONGUID
  2
{76133130-55F9-4BAF-937F-22156FDD2E36}
  9
$EXTNAMES
290
1
  9
$PSVPSCALE
 40
0.0
  9
$OLESTARTUP
290
0
  9
$SORTENTS
280
127
  9
$INDEXCTL
280
0
  9
$HIDETEXT
280
1
  9
$XCLIPFRAME
280
1
  9
$HALOGAP
280
0
  9
$OBSCOLOR
 70
257
  9
$OBSLTYPE
280
0
  9
$INTERSECTIONDISPLAY
280
0
  9
$INTERSECTIONCOLOR
 70
257
  9
$DIMASSOC
280
2
  9
$PROJECTNAME
  1

  9
$CAMERADISPLAY
290
0
  9
$LENSLENGTH
 40
50.0
  9
$CAMERAHEIGHT
 40
0.0
  9
$STEPSPERSEC
 40
24.0
  9
$STEPSIZE
 40
100.0
  9
$3DDWFPREC
 40
2.0
  9
$PSOLWIDTH
 40
0.005
  9
$PSOLHEIGHT
 40
0.08
  9
$LOFTANG1
 40
1.570796326795
  9
$LOFTANG2
 40
1.570796326795
  9
$LOFTMAG1
 40
0.0
  9
$LOFTMAG2
 40
0.0
  9
$LOFTPARAM
 70
7
  9
$LOFTNORMALS
280
1
  9
$LATITUDE
 40
37.795
  9
$LONGITUDE
 40
-122.394
  9
$NORTHDIRECTION
 40
0.0
  9
$TIMEZONE
 70
-8000
  9
$LIGHTGLYPHDISPLAY
280
1
  9
$TILEMODELIGHTSYNCH
280
1
  9
$CMATERIAL
347
20
  9
$SOLIDHIST
280
0
  9
$SHOWHIST
280
1
  9
$DWFFRAME
280
2
  9
$DGNFRAME
280
2
  9
$REALWORLDSCALE
290
1
  9
$INTERFERECOLOR
 62
256
  9
$CSHADOW
280
0
  9
$SHADOWPLANELOCATION
 40
0.0
  0
ENDSEC
  0
SECTION
  2
CLASSES
  0
CLASS
  1
ACDBDICTIONARYWDFLT
  2
AcDbDictionaryWithDefault
  3
ObjectDBX Classes
 90
0
 91
0
280
0
281
0
  0
CLASS
  1
SUN
  2
AcDbSun
  3
SCENEOE
 90
1153
 91
0
280
0
281
0
  0
CLASS
  1
VISUALSTYLE
  2
AcDbVisualStyle
  3
ObjectDBX Classes
 90
4095
 91
0
280
0
281
0
  0
CLASS
  1
MATERIAL
  2
AcDbMaterial
  3
ObjectDBX Classes
 90
1153
 91
0
280
0
281
0
  0
CLASS
  1
SCALE
  2
AcDbScale
  3
ObjectDBX Classes
 90
1153
 91
0
280
0
281
0
  0
CLASS
  1
TABLESTYLE
  2
AcDbTableStyle
  3
ObjectDBX Classes
 90
4095
 91
0
280
0
281
0
  0
CLASS
  1
MLEADERSTYLE
  2
AcDbMLeaderStyle
  3
ACDB_MLEADERSTYLE_CLASS
 90
4095
 91
0
280
0
281
0
  0
CLASS
  1
DICTIONARYVAR
  2
AcDbDictionaryVar
  3
ObjectDBX Classes
 90
0
 91
0
280
0
281
0
  0
CLASS
  1
CELLSTYLEMAP
  2
AcDbCellStyleMap
  3
ObjectDBX Classes
 90
1152
 91
0
280
0
281
0
  0
CLASS
  1
MENTALRAYRENDERSETTINGS
  2
AcDbMentalRayRenderSettings
  3
SCENEOE
 90
1024
 91
0
280
0
281
0
  0
CLASS
  1
ACDBDETAILVIEWSTYLE
  2
AcDbDetailViewStyle
  3
ObjectDBX Classes
 90
1025
 91
0
280
0
281
0
  0
CLASS
  1
ACDBSECTIONVIEWSTYLE
  2
AcDbSectionViewStyle
  3
ObjectDBX Classes
 90
1025
 91
0
280
0
281
0
  0
CLASS
  1
RASTERVARIABLES
  2
AcDbRasterVariables
  3
ISM
 90
0
 91
0
280
0
281
0
  0
CLASS
  1
ACDBPLACEHOLDER
  2
AcDbPlaceHolder
  3
ObjectDBX Classes
 90
0
 91
0
280
0
281
0
  0
CLASS
  1
LAYOUT
  2
AcDbLayout
  3
ObjectDBX Classes
 90
0
 91
0
280
0
281
0
  0
ENDSEC
  0
SECTION
  2
TABLES
  0
TABLE
  2
VPORT
  5
8
330
0
100
AcDbSymbolTable
 70
1
  0
VPORT
  5
30
330
8
100
AcDbSymbolTableRecord
100
AcDbViewportTableRecord
  2
*Active
 70
0
 10
0.0
 20
0.0
 11
1.0
 21
1.0
 12
8.526771693142006
 22
0.4609804241931691
 13
0.0
 23
0.0
 14
0.5
 24
0.5
 15
0.5
 25
0.5
 16
0.0
 26
0.0
 36
1.0
 17
0.0
 27
0.0
 37
0.0
 40
8.433271693142006
 41
1.34
 42
50.0
 43
0.0
 44
0.0
 50
0.0
 51
0.0
 71
0
 72
1000
 73
1
 74
3
 75
0
 76
0
 77
0
 78
0
281
0
 65
1
110
0.0
120
0.0
130
0.0
111
1.0
121
0.0
131
0.0
112
0.0
122
1.0
132
0.0
 79
0
146
0.0
  0
ENDTAB
  0
TABLE
  2
LTYPE
  5
2
330
0
100
AcDbSymbolTable
 70
3
  0
LTYPE
  5
24
330
2
100
AcDbSymbolTableRecord
100
AcDbLinetypeTableRecord
  2
ByBlock
 70
0
  3

 72
65
 73
0
 40
0.0
  0
LTYPE
  5
25
330
2
100
AcDbSymbolTableRecord
100
AcDbLinetypeTableRecord
  2
ByLayer
 70
0
  3

 72
65
 73
0
 40
0.0
  0
LTYPE
  5
26
330
2
100
AcDbSymbolTableRecord
100
AcDbLinetypeTableRecord
  2
Continuous
 70
0
  3

 72
65
 73
0
 40
0.0
  0
ENDTAB
  0
TABLE
  2
LAYER
  5
1
330
0
100
AcDbSymbolTable
 70
2
  0
LAYER
  5
27
330
1
100
AcDbSymbolTableRecord
100
AcDbLayerTableRecord
  2
0
 70
0
 62
7
  6
Continuous
370
-3
390
13
347
21
  0
LAYER
  5
28
330
1
100
AcDbSymbolTableRecord
100
AcDbLayerTableRecord
  2
Defpoints
 70
0
 62
7
  6
Continuous
290
0
370
-3
390
13
347
21
  0
ENDTAB
  0
TABLE
  2
STYLE
  5
5
330
0
100
AcDbSymbolTable
 70
1
  0
STYLE
  5
29
330
5
100
AcDbSymbolTableRecord
100
AcDbTextStyleTableRecord
  2
Standard
 70
0
 40
0.0
 41
1.0
 50
0.0
 71
0
 42
2.5
  3
txt
  4

  0
ENDTAB
  0
TABLE
  2
VIEW
  5
7
330
0
100
AcDbSymbolTable
 70
0
  0
ENDTAB
  0
TABLE
  2
UCS
  5
6
330
0
100
AcDbSymbolTable
 70
0
  0
ENDTAB
  0
TABLE
  2
APPID
  5
3
330
0
100
AcDbSymbolTable
 70
3
  0
APPID
  5
2A
330
3
100
AcDbSymbolTableRecord
100
AcDbRegAppTableRecord
  2
ACAD
 70
0
  0
APPID
  5
31
330
3
100
AcDbSymbolTableRecord
100
AcDbRegAppTableRecord
  2
HATCHBACKGROUNDCOLOR
 70
0
  0
APPID
  5
32
330
3
100
AcDbSymbolTableRecord
100
AcDbRegAppTableRecord
  2
EZDXF
 70
0
  0
ENDTAB
  0
TABLE
  2
DIMSTYLE
  5
4
330
0
100
AcDbSymbolTable
 70
1
100
AcDbDimStyleTable
  0
DIMSTYLE
105
2B
330
4
100
AcDbSymbolTableRecord
100
AcDbDimStyleTableRecord
  2
Standard
 70
0
 40
1.0
 41
2.5
 42
0.625
 43
3.75
 44
1.25
 45
0.0
 46
0.0
 47
0.0
 48
0.0
 49
2.5
140
2.5
141
2.5
142
0.0
143
0.03937007874
144
1.0
145
0.0
146
1.0
147
0.625
148
0.0
 69
0
 70
0
 71
0
 72
0
 73
0
 74
0
 75
0
 76
0
 77
1
 78
8
 79
3
170
0
171
3
172
1
173
0
174
0
175
0
176
0
177
0
178
0
179
2
271
2
272
2
273
2
274
3
275
0
276
0
277
2
278
44
279
0
280
0
281
0
282
0
283
0
284
8
285
0
286
0
288
0
289
3
290
0
371
-2
372
-2
  0
ENDTAB
  0
TABLE
  2
BLOCK_RECORD
  5
9
330
0
100
AcDbSymbolTable
 70
2
  0
BLOCK_RECORD
  5
17
330
9
100
AcDbSymbolTableRecord
100
AcDbBlockTableRecord
  2
*Model_Space
340
1A
 70
0
280
1
281
0
  0
BLOCK_RECORD
  5
1B
330
9
100
AcDbSymbolTableRecord
100
AcDbBlockTableRecord
  2
*Paper_Space
340
1E
 70
0
280
1
281
0
  0
ENDTAB
  0
ENDSEC
  0
SECTION
  2
BLOCKS
  0
BLOCK
  5
18
330
17
100
AcDbEntity
  8
0
100
AcDbBlockBegin
  2
*Model_Space
 70
0
 10
0.0
 20
0.0
 30
0.0
  3
*Model_Space
  1

  0
ENDBLK
  5
19
330
17
100
AcDbEntity
  8
0
100
AcDbBlockEnd
  0
BLOCK
  5
1C
330
1B
100
AcDbEntity
  8
0
100
AcDbBlockBegin
  2
*Paper_Space
 70
0
 10
0.0
 20
0.0
 30
0.0
  3
*Paper_Space
  1

  0
ENDBLK
  5
1D
330
1B
100
AcDbEntity
  8
0
100
AcDbBlockEnd
  0
ENDSEC
  0
SECTION
  2
ENTITIES
  0
SPLINE
  5
2F
330
17
100
AcDbEntity
  8
0
100
AcDbSpline
 70
0
 71
3
 72
206
 73
202
 74
0
 40
0.0
 40
0.0
 40
0.0
 40
0.0
 40
0.17308353899775072
 40
0.344213616789214
 40
0.5172922184340556
 40
0.690129299601995
 40
0.8621624558636871
 40
1.0337456020104696
 40
1.2053176277303705
 40
1.3769915321582842
 40
1.548704402512655
 40
1.7204512149851543
 40
1.8922111506930177
 40
2.0639769420189737
 40
2.23574260964361
 40
2.407482822852491
 40
2.5792136228957383
 40
2.7509499062927927
 40
2.9226998550167327
 40
3.0944686559182335
 40
3.2662493838663194
 40
3.4380219773073377
 40
3.6097751422240862
 40
3.781518881614897
 40
3.9532590545144184
 40
4.124998361058497
 40
4.296738119088111
 40
4.468479522246041
 40
4.64022316236506
 40
4.811968727495284
 40
4.98371521805564
 40
5.155461139767027
 40
5.327205477936794
 40
5.498948569363265
 40
5.6706907956109704
 40
5.842432460033701
 40
6.014173780546948
 40
6.18591481713923
 40
6.357655539150423
 40
6.5293962124642455
 40
6.701137067004534
 40
6.8728781217617865
 40
7.044619334688673
 40
7.216360792224119
 40
7.388102863131712
 40
7.559845892380345
 40
7.731589092947779
 40
7.903331782945637
 40
8.075073765155942
 40
8.246815237946514
 40
8.41855648286773
 40
8.590297566256515
 40
8.76203833932255
 40
8.933778901266757
 40
9.105519795286812
 40
9.277261286018733
 40
9.449003321828922
 40
9.620745677303361
 40
9.792488170825933
 40
9.964230774396846
 40
10.135973466530578
 40
10.307716021049776
 40
10.479458258315713
 40
10.651200100163573
 40
10.822941537631888
 40
10.99468257895491
 40
11.166423204891029
 40
11.338163500799348
 40
11.509903808444204
 40
11.681644517574272
 40
11.853386022705184
 40
12.02512870861032
 40
12.196872939725994
 40
12.368618888135197
 40
12.54036545866741
 40
12.712110945141731
 40
12.883853607157834
 40
13.055591709016086
 40
13.227323556686676
 40
13.399048757701042
 40
13.5707729623258
 40
13.742503701659668
 40
13.914248548471015
 40
14.086015076837777
 40
14.257808898578121
 40
14.429612005850068
 40
14.601390536121626
 40
14.773110554540937
 40
14.944738629298403
 40
15.116271900941843
 40
15.287834959824886
 40
15.459586153781228
 40
15.63168173182623
 40
15.804137762280357
 40
15.976349244977609
 40
16.147549378242022
 40
16.317147691766408
 40
16.487470731330095
 40
16.66260043362004
 40
16.84139000026928
 40
17.00297617003103
 40
17.175025975786657
 40
17.21901548414716
 40
17.378911619448896
 40
17.546546388065767
 40
17.72554380573864
 40
17.898971831561454
 40
18.068656680801734
 40
18.238630292636955
 40
18.410168789986944
 40
18.582524975260302
 40
18.754914210165875
 40
18.926893246288547
 40
19.098571326123558
 40
19.270108460636028
 40
19.44166413721607
 40
19.613326042426728
 40
19.785069513205045
 40
19.956860178231107
 40
20.12866371509352
 40
20.300448103879663
 40
20.47220595794391
 40
20.643944769329945
 40
20.815672179842913
 40
20.98739576777253
 40
21.15912292306082
 40
21.33085703137982
 40
21.502596727846292
 40
21.674340317465713
 40
21.84608605355462
 40
22.01783214343327
 40
22.18957683979182
 40
22.36131963616325
 40
22.533060977355543
 40
22.704801305677613
 40
22.876541042243296
 40
23.048280593142497
 40
23.220020352833924
 40
23.391760563108974
 40
23.563501165250557
 40
23.735242067106782
 40
23.90698317959173
 40
24.078724411216918
 40
24.250465660276213
 40
24.42220681166384
 40
24.59394781254104
 40
24.765688700416984
 40
24.937429505590355
 40
25.109170239009615
 40
25.28091091296756
 40
25.452651563501306
 40
25.624392264739587
 40
25.796133078940944
 40
25.967873946517773
 40
26.13961481825262
 40
26.311355683577858
 40
26.483096557269175
 40
26.654837448184995
 40
26.826578335193034
 40
26.998319170862462
 40
27.17005995102334
 40
27.34180072653571
 40
27.513541522510312
 40
27.685282339909698
 40
27.85702316727544
 40
28.02876399648582
 40
28.200504826847126
 40
28.37224565712758
 40
28.543986485443753
 40
28.715727311397696
 40
28.8874681353955
 40
29.059208957798205
 40
29.23094977822771
 40
29.40269059741481
 40
29.574431424049166
 40
29.74617226807671
 40
29.917913131764422
 40
30.08965400444884
 40
30.26139486237675
 40
30.433135695920548
 40
30.604876505536183
 40
30.776617298584753
 40
30.948358129730913
 40
31.120099089246864
 40
31.291840177034857
 40
31.463581283514614
 40
31.635322193202523
 40
31.807062828035885
 40
31.97880346493012
 40
32.150544524144244
 40
32.32228589117783
 40
32.49402682515399
 40
32.665767088797445
 40
32.83750794264335
 40
33.00924940257897
 40
33.18098870669106
 40
33.35270061757751
 40
33.52455110439911
 40
33.69673675265497
 40
33.869921952780345
 40
34.02354112723082
 40
34.02354112723082
 40
34.02354112723082
 40
34.02354112723082
 10
0.0935
 20
0.006523914563155559
 30
0.0
 10
0.10924877652198174
 20
0.06373259348582996
 30
0.0
 10
0.16061361262860083
 20
0.1667352273106601
 30
0.0
 10
0.2787918585337463
 20
0.29495265029648765
 30
0.0
 10
0.41358580546320994
 20
0.40269110251221474
 30
0.0
 10
0.5604555090781843
 20
0.4941824870371369
 30
0.0
 10
0.7145758769437732
 20
0.57127199496674
 30
0.0
 10
0.8734212684899538
 20
0.6368339983859485
 30
0.0
 10
1.0353977492880608
 20
0.6937102539505435
 30
0.0
 10
1.1997330230056118
 20
0.7434581349777571
 30
0.0
 10
1.36587661261175
 20
0.786968935598888
 30
0.0
 10
1.5333828793479534
 20
0.8249886136813243
 30
0.0
 10
1.7019239607107797
 20
0.8581798599572302
 30
0.0
 10
1.8712574447382628
 20
0.8870712393348983
 30
0.0
 10
2.041205943874216
 20
0.9120296760213789
 30
0.0
 10
2.2116384672931906
 20
0.9333262180626799
 30
0.0
 10
2.3824541992460935
 20
0.9511837731511801
 30
0.0
 10
2.5535764415762867
 20
0.9658338981362272
 30
0.0
 10
2.724933942778189
 20
0.9775716290164368
 30
0.0
 10
2.896461684523212
 20
0.9867304453968754
 30
0.0
 10
3.068099019667199
 20
0.9936790153777852
 30
0.0
 10
3.23979324250541
 20
0.9988248286491782
 30
0.0
 10
3.411511295574064
 20
1.0025326609428702
 30
0.0
 10
3.583239222516463
 20
1.0050785458782863
 30
0.0
 10
3.7549743139637544
 20
1.0066146086646912
 30
0.0
 10
3.92671372673685
 20
1.0072307281461723
 30
0.0
 10
4.098454389945192
 20
1.0069754631297552
 30
0.0
 10
4.270193238516646
 20
1.0059053811683063
 30
0.0
 10
4.4419277811892455
 20
1.0041026764743382
 30
0.0
 10
4.613655708084367
 20
1.0016377926969964
 30
0.0
 10
4.785374695104743
 20
0.9985745701157804
 30
0.0
 10
4.9570826725598724
 20
0.994968319911094
 30
0.0
 10
5.128778397184258
 20
0.9908685200932126
 30
0.0
 10
5.300461481917173
 20
0.9863172525379815
 30
0.0
 10
5.472132096225173
 20
0.9813492643471463
 30
0.0
 10
5.6437904403333325
 20
0.9759935213041248
 30
0.0
 10
5.815436677693279
 20
0.9702752945639255
 30
0.0
 10
5.987071021051095
 20
0.964219949934032
 30
0.0
 10
6.15869393352407
 20
0.9578551138602756
 30
0.0
 10
6.330306045207603
 20
0.9512073580249552
 30
0.0
 10
6.501908115400383
 20
0.9443028428857926
 30
0.0
 10
6.673501074621043
 20
0.9371714770936467
 30
0.0
 10
6.845085862421746
 20
0.9298416606759676
 30
0.0
 10
7.016663399607626
 20
0.9223364345219959
 30
0.0
 10
7.188234449685341
 20
0.9146708412031296
 30
0.0
 10
7.3597990729202785
 20
0.9068499585302806
 30
0.0
 10
7.531356494182416
 20
0.8988681426092353
 30
0.0
 10
7.702905282104315
 20
0.8907100789064678
 30
0.0
 10
7.874443837892229
 20
0.8823512163537738
 30
0.0
 10
8.04597043642015
 20
0.8737598033824838
 30
0.0
 10
8.217483353551655
 20
0.8649050038898989
 30
0.0
 10
8.388981045388096
 20
0.8557642414872068
 30
0.0
 10
8.560462100579466
 20
0.8463205029323723
 30
0.0
 10
8.73192554618781
 20
0.836563294497257
 30
0.0
 10
8.903370878978384
 20
0.8264887472592379
 30
0.0
 10
9.074797886982829
 20
0.8160989802571795
 30
0.0
 10
9.246206442902777
 20
0.8054013763918462
 30
0.0
 10
9.417596462065369
 20
0.7944056479228637
 30
0.0
 10
9.588967803391796
 20
0.7831197306609592
 30
0.0
 10
9.760320197187776
 20
0.7715480599193874
 30
0.0
 10
9.931653289182691
 20
0.7596937538990169
 30
0.0
 10
10.10296655567995
 20
0.7475580333685362
 30
0.0
 10
10.274259340798434
 20
0.7351404799517519
 30
0.0
 10
10.445530955445069
 20
0.7224392816823292
 30
0.0
 10
10.616780700737191
 20
0.7094517959649931
 30
0.0
 10
10.788007877728573
 20
0.6961753073935022
 30
0.0
 10
10.95921186682655
 20
0.6826078806301374
 30
0.0
 10
11.130392153763555
 20
0.668747625250208
 30
0.0
 10
11.301548362107846
 20
0.654592783634797
 30
0.0
 10
11.472680201139681
 20
0.6401414968579098
 30
0.0
 10
11.64378738882514
 20
0.625391955046376
 30
0.0
 10
11.814869645672404
 20
0.610342583164437
 30
0.0
 10
11.985926638405596
 20
0.5949921308286162
 30
0.0
 10
12.156957572877307
 20
0.5793397976574421
 30
0.0
 10
12.327960988780585
 20
0.5633851236994208
 30
0.0
 10
12.49893485083694
 20
0.5471283707051258
 30
0.0
 10
12.669876944384804
 20
0.5305701561550976
 30
0.0
 10
12.840785053422843
 20
0.5137110194838842
 30
0.0
 10
13.011657369142322
 20
0.49655103813790036
 30
0.0
 10
13.182494447659868
 20
0.479089222841722
 30
0.0
 10
13.353299898098738
 20
0.46132426152977846
 30
0.0
 10
13.524079896221215
 20
0.4432539120356079
 30
0.0
 10
13.694841217932527
 20
0.424875595778474
 30
0.0
 10
13.865589983785654
 20
0.406186722093088
 30
0.0
 10
14.036323947976614
 20
0.3871867067469181
 30
0.0
 10
14.207027057660346
 20
0.36787581551879367
 30
0.0
 10
14.377669955164865
 20
0.3482540799557974
 30
0.0
 10
14.548217980250811
 20
0.328320589614065
 30
0.0
 10
14.718646327040263
 20
0.3080700695405584
 30
0.0
 10
14.888981466447259
 20
0.2874811950604128
 30
0.0
 10
15.059315434343722
 20
0.2665445163892305
 30
0.0
 10
15.229793325504902
 20
0.24524164194596723
 30
0.0
 10
15.400524801918975
 20
0.2235834966360225
 30
0.0
 10
15.571377573608848
 20
0.20161515915342043
 30
0.0
 10
15.741869084080333
 20
0.1793605336514797
 30
0.0
 10
15.911401938799852
 20
0.15646581884651345
 30
0.0
 10
16.07994870847785
 20
0.1333689509397993
 30
0.0
 10
16.250772478079302
 20
0.10838650724557834
 30
0.0
 10
16.419702415850132
 20
0.0814264949693436
 30
0.0
 10
16.60404156497859
 20
0.05987751064428933
 30
0.0
 10
16.724096257926433
 20
0.02889175159921564
 30
0.0
 10
16.99115273576496
 20
0.03301615746858724
 30
0.0
 10
16.840093245132174
 20
-0.010315085174057126
 30
0.0
 10
16.728997007002324
 20
0.001231924092298894
 30
0.0
 10
16.5554117000939
 20
-0.0065127037600743775
 30
0.0
 10
16.383424374220827
 20
-0.0022499769472446515
 30
0.0
 10
16.209111840395543
 20
0.0027474906227064957
 30
0.0
 10
16.038248052708436
 20
0.007817606902788356
 30
0.0
 10
15.867875966310761
 20
0.012000843016134386
 30
0.0
 10
15.69664922159206
 20
0.016384267533730314
 30
0.0
 10
15.52460381868476
 20
0.020575612724929217
 30
0.0
 10
15.35241236863626
 20
0.024707366005653777
 30
0.0
 10
15.180441853123808
 20
0.028646717595075893
 30
0.0
 10
15.008749791767334
 20
0.032325078095171
 30
0.0
 10
14.837192467538742
 20
0.03569439824557507
 30
0.0
 10
14.66563436378268
 20
0.03873309988568205
 30
0.0
 10
14.494001823222273
 20
0.04143436270197477
 30
0.0
 10
14.322285974706467
 20
0.04379867919736876
 30
0.0
 10
14.150518607301812
 20
0.04582616181931907
 30
0.0
 10
13.978734040598674
 20
0.047524801930355055
 30
0.0
 10
13.806957581088994
 20
0.04890691745140485
 30
0.0
 10
13.63520052894075
 20
0.04998530014384316
 30
0.0
 10
13.463460891449976
 20
0.05077164955459847
 30
0.0
 10
13.291731634389224
 20
0.05127951805095504
 30
0.0
 10
13.120005692274205
 20
0.051523289447328514
 30
0.0
 10
12.948277351749496
 20
0.05151786039167285
 30
0.0
 10
12.776543816142814
 20
0.051277657596110415
 30
0.0
 10
12.604805258148904
 20
0.05081713123699355
 30
0.0
 10
12.433063504664336
 20
0.05015094710284253
 30
0.0
 10
12.261320473318934
 20
0.04929358315459618
 30
0.0
 10
12.089578053100114
 20
0.048259141176467936
 30
0.0
 10
11.917837679820277
 20
0.0470611722089819
 30
0.0
 10
11.74610000985442
 20
0.04571258464380822
 30
0.0
 10
11.574364939934265
 20
0.04422581830365701
 30
0.0
 10
11.402632028641372
 20
0.042613196577519184
 30
0.0
 10
11.230900826548345
 20
0.040886418547414954
 30
0.0
 10
11.05917088563267
 20
0.039056363882159564
 30
0.0
 10
10.887441806594754
 20
0.03713314880516802
 30
0.0
 10
10.715713340143397
 20
0.03512590334258045
 30
0.0
 10
10.543985399649982
 20
0.033042619228993556
 30
0.0
 10
10.372258012275651
 20
0.030890166997523956
 30
0.0
 10
10.200531220333463
 20
0.028674452763566772
 30
0.0
 10
10.028805067295954
 20
0.02640105027659183
 30
0.0
 10
9.857079594764949
 20
0.024075902065679004
 30
0.0
 10
9.685354814357439
 20
0.021705798103471556
 30
0.0
 10
9.513630679519965
 20
0.01929798344220691
 30
0.0
 10
9.341907083439633
 20
0.01686019586091197
 30
0.0
 10
9.170183885801416
 20
0.01440074513073692
 30
0.0
 10
8.998460928134225
 20
0.011929562720969188
 30
0.0
 10
8.826738052449281
 20
0.009456268891796765
 30
0.0
 10
8.655015104746228
 20
0.006988721629432482
 30
0.0
 10
8.483291954241874
 20
0.004532052653409579
 30
0.0
 10
8.311568546255787
 20
0.0020883576530463517
 30
0.0
 10
8.13984491383097
 20
-0.0003435267966779408
 30
0.0
 10
7.968121154783506
 20
-0.0027676550087894843
 30
0.0
 10
7.796397382567854
 20
-0.005190993667935685
 30
0.0
 10
7.624673720962778
 20
-0.007622620076629615
 30
0.0
 10
7.45295029016554
 20
-0.0100710155038832
 30
0.0
 10
7.281227194336315
 20
-0.01254192672474944
 30
0.0
 10
7.109504516236052
 20
-0.015039172573099443
 30
0.0
 10
6.937782282413525
 20
-0.017564259177984216
 30
0.0
 10
6.766060461822908
 20
-0.020116396576265638
 30
0.0
 10
6.59433899006505
 20
-0.022692714174009445
 30
0.0
 10
6.42261779868235
 20
-0.025288783489101456
 30
0.0
 10
6.250896816379031
 20
-0.02789936538458462
 30
0.0
 10
6.0791759783807455
 20
-0.030519700147818
 30
0.0
 10
5.907455226559639
 20
-0.03314573704129205
 30
0.0
 10
5.735734499418001
 20
-0.0357733669350412
 30
0.0
 10
5.564013737047231
 20
-0.03839859863138327
 30
0.0
 10
5.392292880749557
 20
-0.04101754495919989
 30
0.0
 10
5.220571871877139
 20
-0.043626343267712454
 30
0.0
 10
5.048850651650612
 20
-0.04622107733164078
 30
0.0
 10
4.877129160613682
 20
-0.0487977296137452
 30
0.0
 10
4.705407334463051
 20
-0.05135205721045031
 30
0.0
 10
4.53368511320833
 20
-0.053880230446265207
 30
0.0
 10
4.361962437854172
 20
-0.05637840554526573
 30
0.0
 10
4.190239247270121
 20
-0.05884200363285473
 30
0.0
 10
4.018515478323811
 20
-0.061265315055095346
 30
0.0
 10
3.846791055793455
 20
-0.06364118896326112
 30
0.0
 10
3.6750658779691614
 20
-0.06596035290294504
 30
0.0
 10
3.50333982762783
 20
-0.06821244638208694
 30
0.0
 10
3.3316127649144045
 20
-0.07038604329102506
 30
0.0
 10
3.1598845704378506
 20
-0.0724724951686285
 30
0.0
 10
2.988155210821061
 20
-0.07446923094344562
 30
0.0
 10
2.8164246922515246
 20
-0.07637210313451072
 30
0.0
 10
2.6446930159132616
 20
-0.07816631478640719
 30
0.0
 10
2.4729600787843506
 20
-0.07982095547910295
 30
0.0
 10
2.301225627385464
 20
-0.08129380734345829
 30
0.0
 10
2.129489342022318
 20
-0.08254359140766615
 30
0.0
 10
1.9577510602216288
 20
-0.08352848442544215
 30
0.0
 10
1.7860110858280043
 20
-0.08418709831794215
 30
0.0
 10
1.6142704044792386
 20
-0.08449806531320685
 30
0.0
 10
1.442529242255362
 20
-0.08427061710948958
 30
0.0
 10
1.270790467028328
 20
-0.08402765804165169
 30
0.0
 10
1.0990483949116685
 20
-0.08161668999275759
 30
0.0
 10
0.9273371979157158
 20
-0.08582436594854383
 30
0.0
 10
0.7555685529576959
 20
-0.08390533158798785
 30
0.0
 10
0.5836852268310828
 20
-0.0775550639045021
 30
0.0
 10
0.4120334755532108
 20
-0.0621792487813794
 30
0.0
 10
0.24644946213441826
 20
-0.04187223197061551
 30
0.0
 10
0.14155836880978567
 20
-0.01247619284580768
 30
0.0
 10
0.0935
 20
0.006523914563155559
 30
0.0
  0
ENDSEC
  0
SECTION
  2
OBJECTS
  0
DICTIONARY
  5
A
330
0
100
AcDbDictionary
281
1
  3
ACAD_COLOR
350
B
  3
ACAD_GROUP
350
C
  3
ACAD_LAYOUT
350
D
  3
ACAD_MATERIAL
350
E
  3
ACAD_MLEADERSTYLE
350
F
  3
ACAD_MLINESTYLE
350
10
  3
ACAD_PLOTSETTINGS
350
11
  3
ACAD_PLOTSTYLENAME
350
12
  3
ACAD_SCALELIST
350
14
  3
ACAD_TABLESTYLE
350
15
  3
ACAD_VISUALSTYLE
350
16
  3
EZDXF_META
350
2D
  0
DICTIONARY
  5
B
330
A
100
AcDbDictionary
281
1
  0
DICTIONARY
  5
C
330
A
100
AcDbDictionary
281
1
  0
DICTIONARY
  5
D
330
A
100
AcDbDictionary
281
1
  3
Model
350
1A
  3
Layout1
350
1E
  0
DICTIONARY
  5
E
330
A
100
AcDbDictionary
281
1
  3
ByBlock
350
1F
  3
ByLayer
350
20
  3
Global
350
21
  0
DICTIONARY
  5
F
330
A
100
AcDbDictionary
281
1
  3
Standard
350
2C
  0
DICTIONARY
  5
10
330
A
100
AcDbDictionary
281
1
  3
Standard
350
22
  0
DICTIONARY
  5
11
330
A
100
AcDbDictionary
281
1
  0
ACDBDICTIONARYWDFLT
  5
12
330
A
100
AcDbDictionary
281
1
  3
Normal
350
13
100
AcDbDictionaryWithDefault
340
13
  0
ACDBPLACEHOLDER
  5
13
330
12
  0
DICTIONARY
  5
14
330
A
100
AcDbDictionary
281
1
  0
DICTIONARY
  5
15
330
A
100
AcDbDictionary
281
1
  0
DICTIONARY
  5
16
330
A
100
AcDbDictionary
281
1
  0
LAYOUT
  5
1A
330
D
100
AcDbPlotSettings
  1

  4
A3
  6

 40
7.5
 41
20.0
 42
7.5
 43
20.0
 44
420.0
 45
297.0
 46
0.0
 47
0.0
 48
0.0
 49
0.0
140
0.0
141
0.0
142
1.0
143
1.0
 70
1024
 72
1
 73
0
 74
5
  7

 75
16
 76
0
 77
2
 78
300
147
1.0
148
0.0
149
0.0
100
AcDbLayout
  1
Model
 70
1
 71
0
 10
0.0
 20
0.0
 11
420.0
 21
297.0
 12
0.0
 22
0.0
 32
0.0
 14
1e+20
 24
1e+20
 34
1e+20
 15
-1e+20
 25
-1e+20
 35
-1e+20
146
0.0
 13
0.0
 23
0.0
 33
0.0
 16
1.0
 26
0.0
 36
0.0
 17
0.0
 27
1.0
 37
0.0
 76
1
330
17
  0
LAYOUT
  5
1E
330
D
100
AcDbPlotSettings
  1

  4
A3
  6

 40
7.5
 41
20.0
 42
7.5
 43
20.0
 44
420.0
 45
297.0
 46
0.0
 47
0.0
 48
0.0
 49
0.0
140
0.0
141
0.0
142
1.0
143
1.0
 70
0
 72
1
 73
0
 74
5
  7

 75
16
 76
0
 77
2
 78
300
147
1.0
148
0.0
149
0.0
100
AcDbLayout
  1
Layout1
 70
1
 71
1
 10
0.0
 20
0.0
 11
420.0
 21
297.0
 12
0.0
 22
0.0
 32
0.0
 14
1e+20
 24
1e+20
 34
1e+20
 15
-1e+20
 25
-1e+20
 35
-1e+20
146
0.0
 13
0.0
 23
0.0
 33
0.0
 16
1.0
 26
0.0
 36
0.0
 17
0.0
 27
1.0
 37
0.0
 76
1
330
1B
  0
MATERIAL
  5
1F
102
{ACAD_REACTORS
330
E
102
}
330
E
100
AcDbMaterial
  1
ByBlock
  2

 70
0
 40
1.0
 71
1
 41
1.0
 91
-1023410177
 42
1.0
 72
1
  3

 73
1
 74
1
 75
1
 44
0.5
 73
0
 45
1.0
 46
1.0
 77
1
  4

 78
1
 79
1
170
1
 48
1.0
171
1
  6

172
1
173
1
174
1
140
1.0
141
1.0
175
1
  7

176
1
177
1
178
1
143
1.0
179
1
  8

270
1
271
1
272
1
145
1.0
146
1.0
273
1
  9

274
1
275
1
276
1
 42
1.0
 72
1
  3

 73
1
 74
1
 75
1
 94
63
  0
MATERIAL
  5
20
102
{ACAD_REACTORS
330
E
102
}
330
E
100
AcDbMaterial
  1
ByLayer
  2

 70
0
 40
1.0
 71
1
 41
1.0
 91
-1023410177
 42
1.0
 72
1
  3

 73
1
 74
1
 75
1
 44
0.5
 73
0
 45
1.0
 46
1.0
 77
1
  4

 78
1
 79
1
170
1
 48
1.0
171
1
  6

172
1
173
1
174
1
140
1.0
141
1.0
175
1
  7

176
1
177
1
178
1
143
1.0
179
1
  8

270
1
271
1
272
1
145
1.0
146
1.0
273
1
  9

274
1
275
1
276
1
 42
1.0
 72
1
  3

 73
1
 74
1
 75
1
 94
63
  0
MATERIAL
  5
21
102
{ACAD_REACTORS
330
E
102
}
330
E
100
AcDbMaterial
  1
Global
  2

 70
0
 40
1.0
 71
1
 41
1.0
 91
-1023410177
 42
1.0
 72
1
  3

 73
1
 74
1
 75
1
 44
0.5
 73
0
 45
1.0
 46
1.0
 77
1
  4

 78
1
 79
1
170
1
 48
1.0
171
1
  6

172
1
173
1
174
1
140
1.0
141
1.0
175
1
  7

176
1
177
1
178
1
143
1.0
179
1
  8

270
1
271
1
272
1
145
1.0
146
1.0
273
1
  9

274
1
275
1
276
1
 42
1.0
 72
1
  3

 73
1
 74
1
 75
1
 94
63
  0
MLINESTYLE
  5
22
102
{ACAD_REACTORS
330
10
102
}
330
10
100
AcDbMlineStyle
  2
Standard
 70
0
  3

 62
256
 51
90.0
 52
90.0
 71
2
 49
0.5
 62
256
  6
BYLAYER
 49
-0.5
 62
256
  6
BYLAYER
  0
MLEADERSTYLE
  5
2C
102
{ACAD_REACTORS
330
F
102
}
330
F
100
AcDbMLeaderStyle
179
2
170
2
171
1
172
0
 90
2
 40
0.0
 41
0.0
173
1
 91
-1056964608
 92
-2
290
1
 42
2.0
291
1
 43
8.0
  3
Standard
 44
4.0
300

342
29
174
1
175
1
176
0
178
1
 93
-1056964608
 45
4.0
292
0
297
0
 46
4.0
 94
-1056964608
 47
1.0
 49
1.0
140
1.0
294
1
141
0.0
177
0
142
1.0
295
0
296
0
143
3.75
271
0
272
9
273
9
  0
DICTIONARY
  5
2D
330
A
100
AcDbDictionary
280
1
281
1
  3
CREATED_BY_EZDXF
350
2E
  3
WRITTEN_BY_EZDXF
350
33
  0
DICTIONARYVAR
  5
2E
330
2D
100
DictionaryVariables
280
0
  1
1.4.3 @ 2026-01-01T15:33:57.872235+00:00
  0
DICTIONARYVAR
  5
33
330
2D
100
DictionaryVariables
280
0
  1
1.4.3 @ 2026-01-01T15:33:57.887223+00:00
  0
ENDSEC
  0
EOF
