  0
SECTION
  2
HEADER
  9
$ACADVER
  1
AC1027
  9
$ACADMAINTVER
 70
105
  9
$DWGCODEPAGE
  3
ANSI_1252
  9
$LASTSAVEDBY
  1
ezdxf
  9
$REQUIREDVERSIONS
160
0
  9
$INSBASE
 10
0.0
 20
0.0
 30
0.0
  9
$EXTMIN
 10
1e+20
 20
1e+20
 30
1e+20
  9
$EXTMAX
 10
-1e+20
 20
-1e+20
 30
-1e+20
  9
$LIMMIN
 10
0.0
 20
0.0
  9
$LIMMAX
 10
420.0
 20
297.0
  9
$ORTHOMODE
 70
0
  9
$REGENMODE
 70
1
  9
$FILLMODE
 70
1
  9
$QTEXTMODE
 70
0
  9
$MIRRTEXT
 70
1
  9
$LTSCALE
 40
1.0
  9
$ATTMODE
 70
1
  9
$TEXTSIZE
 40
2.5
  9
$TRACEWID
 40
1.0
  9
$TEXTSTYLE
  7
Standard
  9
$CLAYER
  8
0
  9
$CELTYPE
  6
ByLayer
  9
$CECOLOR
 62
256
  9
$CELTSCALE
 40
1.0
  9
$DISPSILH
 70
0
  9
$DIMSCALE
 40
1.0
  9
$DIMASZ
 40
2.5
  9
$DIMEXO
 40
0.625
  9
$DIMDLI
 40
3.75
  9
$DIMRND
 40
0.0
  9
$DIMDLE
 40
0.0
  9
$DIMEXE
 40
1.25
  9
$DIMTP
 40
0.0
  9
$DIMTM
 40
0.0
  9
$DIMTXT
 40
2.5
  9
$DIMCEN
 40
2.5
  9
$DIMTSZ
 40
0.0
  9
$DIMTOL
 70
0
  9
$DIMLIM
 70
0
  9
$DIMTIH
 70
0
  9
$DIMTOH
 70
0
  9
$DIMSE1
 70
0
  9
$DIMSE2
 70
0
  9
$DIMTAD
 70
1
  9
$DIMZIN
 70
8
  9
$DIMBLK
  1

  9
$DIMASO
 70
1
  9
$DIMSHO
 70
1
  9
$DIMPOST
  1

  9
$DIMAPOST
  1

  9
$DIMALT
 70
0
  9
$DIMALTD
 70
3
  9
$DIMALTF
 40
0.03937007874
  9
$DIMLFAC
 40
1.0
  9
$DIMTOFL
 70
1
  9
$DIMTVP
 40
0.0
  9
$DIMTIX
 70
0
  9
$DIMSOXD
 70
0
  9
$DIMSAH
 70
0
  9
$DIMBLK1
  1

  9
$DIMBLK2
  1

  9
$DIMSTYLE
  2
ISO-25
  9
$DIMCLRD
 70
0
  9
$DIMCLRE
 70
0
  9
$DIMCLRT
 70
0
  9
$DIMTFAC
 40
1.0
  9
$DIMGAP
 40
0.625
  9
$DIMJUST
 70
0
  9
$DIMSD1
 70
0
  9
$DIMSD2
 70
0
  9
$DIMTOLJ
 70
0
  9
$DIMTZIN
 70
8
  9
$DIMALTZ
 70
0
  9
$DIMALTTZ
 70
0
  9
$DIMUPT
 70
0
  9
$DIMDEC
 70
2
  9
$DIMTDEC
 70
2
  9
$DIMALTU
 70
2
  9
$DIMALTTD
 70
3
  9
$DIMTXSTY
  7
Standard
  9
$DIMAUNIT
 70
0
  9
$DIMADEC
 70
0
  9
$DIMALTRND
 40
0.0
  9
$DIMAZIN
 70
0
  9
$DIMDSEP
 70
44
  9
$DIMATFIT
 70
3
  9
$DIMFRAC
 70
0
  9
$DIMLDRBLK
  1

  9
$DIMLUNIT
 70
2
  9
$DIMLWD
 70
-2
  9
$DIMLWE
 70
-2
  9
$DIMTMOVE
 70
0
  9
$DIMFXL
 40
1.0
  9
$DIMFXLON
 70
0
  9
$DIMJOGANG
 40
0.785398163397
  9
$DIMTFILL
 70
0
  9
$DIMTFILLCLR
 70
0
  9
$DIMARCSYM
 70
0
  9
$DIMLTYPE
  6

  9
$DIMLTEX1
  6

  9
$DIMLTEX2
  6

  9
$DIMTXTDIRECTION
 70
0
  9
$LUNITS
 70
2
  9
$LUPREC
 70
4
  9
$SKETCHINC
 40
1.0
  9
$FILLETRAD
 40
10.0
  9
$AUNITS
 70
0
  9
$AUPREC
 70
2
  9
$MENU
  1
.
  9
$ELEVATION
 40
0.0
  9
$PELEVATION
 40
0.0
  9
$THICKNESS
 40
0.0
  9
$LIMCHECK
 70
0
  9
$CHAMFERA
 40
0.0
  9
$CHAMFERB
 40
0.0
  9
$CHAMFERC
 40
0.0
  9
$CHAMFERD
 40
0.0
  9
$SKPOLY
 70
0
  9
$TDCREATE
 40
2461042.398576389
  9
$TDUCREATE
 40
2458532.153996898
  9
$TDUPDATE
 40
2461042.398576389
  9
$TDUUPDATE
 40
2458532.1544311
  9
$TDINDWG
 40
0.0
  9
$TDUSRTIMER
 40
0.0
  9
$USRTIMER
 70
1
  9
$ANGBASE
 50
0.0
  9
$ANGDIR
 70
0
  9
$PDMODE
 70
0
  9
$PDSIZE
 40
0.0
  9
$PLINEWID
 40
0.0
  9
$SPLFRAME
 70
0
  9
$SPLINETYPE
 70
6
  9
$SPLINESEGS
 70
8
  9
$HANDSEED
  5
34
  9
$SURFTAB1
 70
6
  9
$SURFTAB2
 70
6
  9
$SURFTYPE
 70
6
  9
$SURFU
 70
6
  9
$SURFV
 70
6
  9
$UCSBASE
  2

  9
$UCSNAME
  2

  9
$UCSORG
 10
0.0
 20
0.0
 30
0.0
  9
$UCSXDIR
 10
1.0
 20
0.0
 30
0.0
  9
$UCSYDIR
 10
0.0
 20
1.0
 30
0.0
  9
$UCSORTHOREF
  2

  9
$UCSORTHOVIEW
 70
0
  9
$UCSORGTOP
 10
0.0
 20
0.0
 30
0.0
  9
$UCSORGBOTTOM
 10
0.0
 20
0.0
 30
0.0
  9
$UCSORGLEFT
 10
0.0
 20
0.0
 30
0.0
  9
$UCSORGRIGHT
 10
0.0
 20
0.0
 30
0.0
  9
$UCSORGFRONT
 10
0.0
 20
0.0
 30
0.0
  9
$UCSORGBACK
 10
0.0
 20
0.0
 30
0.0
  9
$PUCSBASE
  2

  9
$PUCSNAME
  2

  9
$PUCSORG
 10
0.0
 20
0.0
 30
0.0
  9
$PUCSXDIR
 10
1.0
 20
0.0
 30
0.0
  9
$PUCSYDIR
 10
0.0
 20
1.0
 30
0.0
  9
$PUCSORTHOREF
  2

  9
$PUCSORTHOVIEW
 70
0
  9
$PUCSORGTOP
 10
0.0
 20
0.0
 30
0.0
  9
$PUCSORGBOTTOM
 10
0.0
 20
0.0
 30
0.0
  9
$PUCSORGLEFT
 10
0.0
 20
0.0
 30
0.0
  9
$PUCSORGRIGHT
 10
0.0
 20
0.0
 30
0.0
  9
$PUCSORGFRONT
 10
0.0
 20
0.0
 30
0.0
  9
$PUCSORGBACK
 10
0.0
 20
0.0
 30
0.0
  9
$USERI1
 70
0
  9
$USERI2
 70
0
  9
$USERI3
 70
0
  9
$USERI4
 70
0
  9
$USERI5
 70
0
  9
$USERR1
 40
0.0
  9
$USERR2
 40
0.0
  9
$USERR3
 40
0.0
  9
$USERR4
 40
0.0
  9
$USERR5
 40
0.0
  9
$WORLDVIEW
 70
1
  9
$SHADEDGE
 70
3
  9
$SHADEDIF
 70
70
  9
$TILEMODE
 70
1
  9
$MAXACTVP
 70
64
  9
$PINSBASE
 10
0.0
 20
0.0
 30
0.0
  9
$PLIMCHECK
 70
0
  9
$PEXTMIN
 10
1e+20
 20
1e+20
 30
1e+20
  9
$PEXTMAX
 10
-1e+20
 20
-1e+20
 30
-1e+20
  9
$PLIMMIN
 10
0.0
 20
0.0
  9
$PLIMMAX
 10
420.0
 20
297.0
  9
$UNITMODE
 70
0
  9
$VISRETAIN
 70
1
  9
$PLINEGEN
 70
0
  9
$PSLTSCALE
 70
1
  9
$TREEDEPTH
 70
3020
  9
$CMLSTYLE
  2
Standard
  9
$CMLJUST
 70
0
  9
$CMLSCALE
 40
20.0
  9
$PROXYGRAPHICS
 70
1
  9
$MEASUREMENT
 70
1
  9
$CELWEIGHT
370
-1
  9
$ENDCAPS
280
0
  9
$JOINSTYLE
280
0
  9
$LWDISPLAY
290
0
  9
$INSUNITS
 70
4
  9
$HYPERLINKBASE
  1

  9
$STYLESHEET
  1

  9
$XEDIT
290
1
  9
$CEPSNTYPE
380
0
  9
$PSTYLEMODE
290
1
  9
$FINGERPRINTGUID
  2
{D4735ACB-CC63-4789-8866-C9FB9F773203}
  9
$VERSIONGUID
  2
{041545DC-A128-48B1-9B6C-2CB8BFEAB79B}
  9
$EXTNAMES
290
1
  9
$PSVPSCALE
 40
0.0
  9
$OLESTARTUP
290
0
  9
$SORTENTS
280
127
  9
$INDEXCTL
280
0
  9
$HIDETEXT
280
1
  9
$XCLIPFRAME
280
1
  9
$HALOGAP
280
0
  9
$OBSCOLOR
 70
257
  9
$OBSLTYPE
280
0
  9
$INTERSECTIONDISPLAY
280
0
  9
$INTERSECTIONCOLOR
 70
257
  9
$DIMASSOC
280
2
  9
$PROJECTNAME
  1

  9
$CAMERADISPLAY
290
0
  9
$LENSLENGTH
 40
50.0
  9
$CAMERAHEIGHT
 40
0.0
  9
$STEPSPERSEC
 40
24.0
  9
$STEPSIZE
 40
100.0
  9
$3DDWFPREC
 40
2.0
  9
$PSOLWIDTH
 40
0.005
  9
$PSOLHEIGHT
 40
0.08
  9
$LOFTANG1
 40
1.570796326795
  9
$LOFTANG2
 40
1.570796326795
  9
$LOFTMAG1
 40
0.0
  9
$LOFTMAG2
 40
0.0
  9
$LOFTPARAM
 70
7
  9
$LOFTNORMALS
280
1
  9
$LATITUDE
 40
37.795
  9
$LONGITUDE
 40
-122.394
  9
$NORTHDIRECTION
 40
0.0
  9
$TIMEZONE
 70
-8000
  9
$LIGHTGLYPHDISPLAY
280
1
  9
$TILEMODELIGHTSYNCH
280
1
  9
$CMATERIAL
347
20
  9
$SOLIDHIST
280
0
  9
$SHOWHIST
280
1
  9
$DWFFRAME
280
2
  9
$DGNFRAME
280
2
  9
$REALWORLDSCALE
290
1
  9
$INTERFERECOLOR
 62
256
  9
$CSHADOW
280
0
  9
$SHADOWPLANELOCATION
 40
0.0
  0
ENDSEC
  0
SECTION
  2
CLASSES
  0
CLASS
  1
ACDBDICTIONARYWDFLT
  2
AcDbDictionaryWithDefault
  3
ObjectDBX Classes
 90
0
 91
0
280
0
281
0
  0
CLASS
  1
SUN
  2
AcDbSun
  3
SCENEOE
 90
1153
 91
0
280
0
281
0
  0
CLASS
  1
VISUALSTYLE
  2
AcDbVisualStyle
  3
ObjectDBX Classes
 90
4095
 91
0
280
0
281
0
  0
CLASS
  1
MATERIAL
  2
AcDbMaterial
  3
ObjectDBX Classes
 90
1153
 91
0
280
0
281
0
  0
CLASS
  1
SCALE
  2
AcDbScale
  3
ObjectDBX Classes
 90
1153
 91
0
280
0
281
0
  0
CLASS
  1
TABLESTYLE
  2
AcDbTableStyle
  3
ObjectDBX Classes
 90
4095
 91
0
280
0
281
0
  0
CLASS
  1
MLEADERSTYLE
  2
AcDbMLeaderStyle
  3
ACDB_MLEADERSTYLE_CLASS
 90
4095
 91
0
280
0
281
0
  0
CLASS
  1
DICTIONARYVAR
  2
AcDbDictionaryVar
  3
ObjectDBX Classes
 90
0
 91
0
280
0
281
0
  0
CLASS
  1
CELLSTYLEMAP
  2
AcDbCellStyleMap
  3
ObjectDBX Classes
 90
1152
 91
0
280
0
281
0
  0
CLASS
  1
MENTALRAYRENDERSETTINGS
  2
AcDbMentalRayRenderSettings
  3
SCENEOE
 90
1024
 91
0
280
0
281
0
  0
CLASS
  1
ACDBDETAILVIEWSTYLE
  2
AcDbDetailViewStyle
  3
ObjectDBX Classes
 90
1025
 91
0
280
0
281
0
  0
CLASS
  1
ACDBSECTIONVIEWSTYLE
  2
AcDbSectionViewStyle
  3
ObjectDBX Classes
 90
1025
 91
0
280
0
281
0
  0
CLASS
  1
RASTERVARIABLES
  2
AcDbRasterVariables
  3
ISM
 90
0
 91
0
280
0
281
0
  0
CLASS
  1
ACDBPLACEHOLDER
  2
AcDbPlaceHolder
  3
ObjectDBX Classes
 90
0
 91
0
280
0
281
0
  0
CLASS
  1
LAYOUT
  2
AcDbLayout
  3
ObjectDBX Classes
 90
0
 91
0
280
0
281
0
  0
ENDSEC
  0
SECTION
  2
TABLES
  0
TABLE
  2
VPORT
  5
8
330
0
100
AcDbSymbolTable
 70
1
  0
VPORT
  5
30
330
8
100
AcDbSymbolTableRecord
100
AcDbViewportTableRecord
  2
*Active
 70
0
 10
0.0
 20
0.0
 11
1.0
 21
1.0
 12
6.771259873976526
 22
0.36607268980036045
 13
0.0
 23
0.0
 14
0.5
 24
0.5
 15
0.5
 25
0.5
 16
0.0
 26
0.0
 36
1.0
 17
0.0
 27
0.0
 37
0.0
 40
6.697009873976526
 41
1.34
 42
50.0
 43
0.0
 44
0.0
 50
0.0
 51
0.0
 71
0
 72
1000
 73
1
 74
3
 75
0
 76
0
 77
0
 78
0
281
0
 65
1
110
0.0
120
0.0
130
0.0
111
1.0
121
0.0
131
0.0
112
0.0
122
1.0
132
0.0
 79
0
146
0.0
  0
ENDTAB
  0
TABLE
  2
LTYPE
  5
2
330
0
100
AcDbSymbolTable
 70
3
  0
LTYPE
  5
24
330
2
100
AcDbSymbolTableRecord
100
AcDbLinetypeTableRecord
  2
ByBlock
 70
0
  3

 72
65
 73
0
 40
0.0
  0
LTYPE
  5
25
330
2
100
AcDbSymbolTableRecord
100
AcDbLinetypeTableRecord
  2
ByLayer
 70
0
  3

 72
65
 73
0
 40
0.0
  0
LTYPE
  5
26
330
2
100
AcDbSymbolTableRecord
100
AcDbLinetypeTableRecord
  2
Continuous
 70
0
  3

 72
65
 73
0
 40
0.0
  0
ENDTAB
  0
TABLE
  2
LAYER
  5
1
330
0
100
AcDbSymbolTable
 70
2
  0
LAYER
  5
27
330
1
100
AcDbSymbolTableRecord
100
AcDbLayerTableRecord
  2
0
 70
0
 62
7
  6
Continuous
370
-3
390
13
347
21
  0
LAYER
  5
28
330
1
100
AcDbSymbolTableRecord
100
AcDbLayerTableRecord
  2
Defpoints
 70
0
 62
7
  6
Continuous
290
0
370
-3
390
13
347
21
  0
ENDTAB
  0
TABLE
  2
STYLE
  5
5
330
0
100
AcDbSymbolTable
 70
1
  0
STYLE
  5
29
330
5
100
AcDbSymbolTableRecord
100
AcDbTextStyleTableRecord
  2
Standard
 70
0
 40
0.0
 41
1.0
 50
0.0
 71
0
 42
2.5
  3
txt
  4

  0
ENDTAB
  0
TABLE
  2
VIEW
  5
7
330
0
100
AcDbSymbolTable
 70
0
  0
ENDTAB
  0
TABLE
  2
UCS
  5
6
330
0
100
AcDbSymbolTable
 70
0
  0
ENDTAB
  0
TABLE
  2
APPID
  5
3
330
0
100
AcDbSymbolTable
 70
3
  0
APPID
  5
2A
330
3
100
AcDbSymbolTableRecord
100
AcDbRegAppTableRecord
  2
ACAD
 70
0
  0
APPID
  5
31
330
3
100
AcDbSymbolTableRecord
100
AcDbRegAppTableRecord
  2
HATCHBACKGROUNDCOLOR
 70
0
  0
APPID
  5
32
330
3
100
AcDbSymbolTableRecord
100
AcDbRegAppTableRecord
  2
EZDXF
 70
0
  0
ENDTAB
  0
TABLE
  2
DIMSTYLE
  5
4
330
0
100
AcDbSymbolTable
 70
1
100
AcDbDimStyleTable
  0
DIMSTYLE
105
2B
330
4
100
AcDbSymbolTableRecord
100
AcDbDimStyleTableRecord
  2
Standard
 70
0
 40
1.0
 41
2.5
 42
0.625
 43
3.75
 44
1.25
 45
0.0
 46
0.0
 47
0.0
 48
0.0
 49
2.5
140
2.5
141
2.5
142
0.0
143
0.03937007874
144
1.0
145
0.0
146
1.0
147
0.625
148
0.0
 69
0
 70
0
 71
0
 72
0
 73
0
 74
0
 75
0
 76
0
 77
1
 78
8
 79
3
170
0
171
3
172
1
173
0
174
0
175
0
176
0
177
0
178
0
179
2
271
2
272
2
273
2
274
3
275
0
276
0
277
2
278
44
279
0
280
0
281
0
282
0
283
0
284
8
285
0
286
0
288
0
289
3
290
0
371
-2
372
-2
  0
ENDTAB
  0
TABLE
  2
BLOCK_RECORD
  5
9
330
0
100
AcDbSymbolTable
 70
2
  0
BLOCK_RECORD
  5
17
330
9
100
AcDbSymbolTableRecord
100
AcDbBlockTableRecord
  2
*Model_Space
340
1A
 70
0
280
1
281
0
  0
BLOCK_RECORD
  5
1B
330
9
100
AcDbSymbolTableRecord
100
AcDbBlockTableRecord
  2
*Paper_Space
340
1E
 70
0
280
1
281
0
  0
ENDTAB
  0
ENDSEC
  0
SECTION
  2
BLOCKS
  0
BLOCK
  5
18
330
17
100
AcDbEntity
  8
0
100
AcDbBlockBegin
  2
*Model_Space
 70
0
 10
0.0
 20
0.0
 30
0.0
  3
*Model_Space
  1

  0
ENDBLK
  5
19
330
17
100
AcDbEntity
  8
0
100
AcDbBlockEnd
  0
BLOCK
  5
1C
330
1B
100
AcDbEntity
  8
0
100
AcDbBlockBegin
  2
*Paper_Space
 70
0
 10
0.0
 20
0.0
 30
0.0
  3
*Paper_Space
  1

  0
ENDBLK
  5
1D
330
1B
100
AcDbEntity
  8
0
100
AcDbBlockEnd
  0
ENDSEC
  0
SECTION
  2
ENTITIES
  0
SPLINE
  5
2F
330
17
100
AcDbEntity
  8
0
100
AcDbSpline
 70
0
 71
3
 72
206
 73
202
 74
0
 40
0.0
 40
0.0
 40
0.0
 40
0.0
 40
0.13744869273350796
 40
0.2733461074502582
 40
0.4107908793446913
 40
0.5480438555662902
 40
0.684658420832928
 40
0.8209156251259613
 40
0.9571639984917649
 40
1.0934932755374611
 40
1.229853496112991
 40
1.366240670723505
 40
1.5026382667268088
 40
1.6390405127797738
 40
1.7754426605993379
 40
1.911824594618155
 40
2.048199053476028
 40
2.184577866761924
 40
2.320967531925053
 40
2.457372167935068
 40
2.593786275423254
 40
2.730193923155827
 40
2.866586142354422
 40
3.002970876576536
 40
3.1393527785849797
 40
3.2757339926052773
 40
3.4121155651582056
 40
3.548498444136562
 40
3.684883099525195
 40
3.8212692835991957
 40
3.957656202573596
 40
4.094042669814992
 40
4.230427879538042
 40
4.3668120992002395
 40
4.503195631808711
 40
4.639578718262056
 40
4.775961531610811
 40
4.912344119492917
 40
5.04872645756063
 40
5.185108756956899
 40
5.321491200268305
 40
5.457873802575536
 40
5.594256530488064
 40
5.730639452648566
 40
5.867022861898713
 40
6.003407032184391
 40
6.139791338517354
 40
6.276175239398006
 40
6.412558578212073
 40
6.548941512486938
 40
6.685324265806727
 40
6.821706890850761
 40
6.9580892694620236
 40
7.0944714804177185
 40
7.230853955080702
 40
7.367236903603111
 40
7.50362028498179
 40
7.640003920211492
 40
7.776387665067653
 40
7.912771497315142
 40
8.049155399891928
 40
8.185539193186587
 40
8.321922734544831
 40
8.4583059618946
 40
8.594688868119439
 40
8.731071459758311
 40
8.867453721531112
 40
9.003835721223012
 40
9.140217730235106
 40
9.276600058073688
 40
9.41298301803059
 40
9.549366915661137
 40
9.685752040370643
 40
9.822138528813245
 40
9.958525511294708
 40
10.094911632906669
 40
10.231295511566517
 40
10.36767576892454
 40
10.504051059721775
 40
10.640421072292007
 40
10.776790293611665
 40
10.913164704259149
 40
11.049550317903453
 40
11.185953149253528
 40
11.322377654753215
 40
11.458809534057409
 40
11.59522189633188
 40
11.731587793311922
 40
11.867880676207557
 40
12.004098274277348
 40
12.140339526919764
 40
12.276730180943918
 40
12.413394316450244
 40
12.550344693575578
 40
12.687100871011632
 40
12.823053918015724
 40
12.957734931696853
 40
13.092991463115073
 40
13.232065050227678
 40
13.374045000213837
 40
13.502363429142287
 40
13.638991216065877
 40
13.673924060940394
 40
13.800900403680007
 40
13.934022131699288
 40
14.076167139851275
 40
14.213889395651746
 40
14.34863912887197
 40
14.483618173564645
 40
14.619839921460223
 40
14.756711009765537
 40
14.893608343367022
 40
15.0301799308762
 40
15.166512523686356
 40
15.30273318932861
 40
15.438968579553938
 40
15.57528832780946
 40
15.711672848721653
 40
15.84809484741882
 40
15.984527067868385
 40
16.120944082492674
 40
16.257340025426046
 40
16.393720846232604
 40
16.530092613404666
 40
16.66646134499583
 40
16.802832909489474
 40
16.939209995507504
 40
17.075591519172054
 40
17.211976134458062
 40
17.348362454293373
 40
17.484749055079355
 40
17.621134549246438
 40
17.75751853460022
 40
17.893901364370574
 40
18.030283389802804
 40
18.166664945310846
 40
18.30304635337786
 40
18.43942792725046
 40
18.57580985893947
 40
18.71219210181661
 40
18.848574582702433
 40
18.984957230852245
 40
19.121339973613427
 40
19.257722730219335
 40
19.39410540926245
 40
19.53048796878258
 40
19.666870438566416
 40
19.80325284267468
 40
19.93963518980174
 40
20.07601748970952
 40
20.212399771015733
 40
20.34878209258731
 40
20.48516450386486
 40
20.62154695752881
 40
20.75792941449472
 40
20.89431186637064
 40
21.030694324890213
 40
21.16707679708807
 40
21.30345926618269
 40
21.439841694508413
 40
21.576224078753818
 40
21.712606459307757
 40
21.84898885611112
 40
21.98537126992828
 40
22.121753691659897
 40
22.258136114856377
 40
22.394518538966825
 40
22.530900963013067
 40
22.66728338549944
 40
22.803665806109926
 40
22.940048225167008
 40
23.07643064295739
 40
23.21281305918082
 40
23.349195474417634
 40
23.485577895568447
 40
23.621960330531497
 40
23.758342781107032
 40
23.89472523882701
 40
24.031107684828587
 40
24.16749011146631
 40
24.303872519102256
 40
24.440254913582002
 40
24.57663733831572
 40
24.71301986499015
 40
24.849402493527673
 40
24.985785136908657
 40
25.122167624013763
 40
25.25854989285202
 40
25.394932163326853
 40
25.53131476917336
 40
25.667697619464732
 40
25.804080125857563
 40
25.94046209992737
 40
26.076844542687354
 40
26.213227466753878
 40
26.349608678842888
 40
26.48596813748801
 40
26.62243764172869
 40
26.759173303578933
 40
26.89670272720791
 40
27.018694424565638
 40
27.018694424565638
 40
27.018694424565638
 40
27.018694424565638
 10
0.07425
 20
0.005180755682505885
 30
0.0
 10
0.08675638135569137
 20
0.050611177179923805
 30
0.0
 10
0.12754610414624176
 20
0.13240738639375946
 30
0.0
 10
0.22139353471797502
 20
0.23422710464721083
 30
0.0
 10
0.32843578669137263
 20
0.31978411081852354
 30
0.0
 10
0.4450676101503227
 20
0.3924390338236086
 30
0.0
 10
0.5674573140435848
 20
0.4536571724735877
 30
0.0
 10
0.6935992426243751
 20
0.5057211163653119
 30
0.0
 10
0.8222276244346366
 20
0.5508875546077847
 30
0.0
 10
0.9527291653279861
 20
0.5903932248352778
 30
0.0
 10
1.084666721779919
 20
0.6249459194461756
 30
0.0
 10
1.2176864041880804
 20
0.6551380167469338
 30
0.0
 10
1.3515278511526778
 20
0.6814957711425065
 30
0.0
 10
1.485998559056856
 20
0.704438925354184
 30
0.0
 10
1.6209576613118766
 20
0.7242588603699185
 30
0.0
 10
1.7563011357916516
 20
0.7411708202262458
 30
0.0
 10
1.8919489229307214
 20
0.7553518198553488
 30
0.0
 10
2.0278401153694046
 20
0.7669857426375923
 30
0.0
 10
2.163918131029738
 20
0.7763068818659938
 30
0.0
 10
2.3001313377096095
 20
0.7835800595798715
 30
0.0
 10
2.4364315744416
 20
0.7890980416235356
 30
0.0
 10
2.5727769866954735
 20
0.7931844227508181
 30
0.0
 10
2.709141322955874
 20
0.7961288778075737
 30
0.0
 10
2.845513500233662
 20
0.7981506099621686
 30
0.0
 10
2.981891366971216
 20
0.7993704245278429
 30
0.0
 10
3.1182726653498514
 20
0.7998596958807843
 30
0.0
 10
3.254654956721182
 20
0.7996569854265702
 30
0.0
 10
3.391035807057338
 20
0.7988072144571846
 30
0.0
 10
3.5274132380032226
 20
0.7973756548472684
 30
0.0
 10
3.6637854152434697
 20
0.7954182471417324
 30
0.0
 10
3.8001504931714125
 20
0.7929856880331198
 30
0.0
 10
3.9365068282093105
 20
0.790121901105869
 30
0.0
 10
4.0728534330580874
 20
0.7868661777210804
 30
0.0
 10
4.209190000345991
 20
0.7832519358389854
 30
0.0
 10
4.345516664649403
 20
0.7793067687462633
 30
0.0
 10
4.4818335849705875
 20
0.7750536786826877
 30
0.0
 10
4.618140891109369
 20
0.7705127339184114
 30
0.0
 10
4.754438752011164
 20
0.76570407788879
 30
0.0
 10
4.890727535445584
 20
0.7606496492419834
 30
0.0
 10
5.027007741782507
 20
0.7553705490198173
 30
0.0
 10
5.16327997399442
 20
0.7498875517034231
 30
0.0
 10
5.299544971022592
 20
0.7442244082802488
 30
0.0
 10
5.435803478981976
 20
0.7384036717132685
 30
0.0
 10
5.572056229100173
 20
0.7324436391792319
 30
0.0
 10
5.708303827691302
 20
0.7263562562495445
 30
0.0
 10
5.844546322613161
 20
0.7201455553034579
 30
0.0
 10
5.980783098321331
 20
0.7138070544249814
 30
0.0
 10
6.117013018141661
 20
0.7073285920727832
 30
0.0
 10
6.253234812443829
 20
0.7006906718103498
 30
0.0
 10
6.389447111274825
 20
0.6938680791566784
 30
0.0
 10
6.525648545467493
 20
0.6868363266184493
 30
0.0
 10
6.661837888984664
 20
0.6795774858868995
 30
0.0
 10
6.7980140210484015
 20
0.6720780464462958
 30
0.0
 10
6.934176169031495
 20
0.6643296750419394
 30
0.0
 10
7.070323933306364
 20
0.6563292992941007
 30
0.0
 10
7.206457145545185
 20
0.6480786019689364
 30
0.0
 10
7.342575704658089
 20
0.6395834459582312
 30
0.0
 10
7.478679543404849
 20
0.6308515439387445
 30
0.0
 10
7.614768549752309
 20
0.6218891978778206
 30
0.0
 10
7.750842509531469
 20
0.6126999299359842
 30
0.0
 10
7.886901141409782
 20
0.603286216331572
 30
0.0
 10
8.022944029510548
 20
0.5936490264985433
 30
0.0
 10
8.158970652986993
 20
0.5837880281969797
 30
0.0
 10
8.29498046461814
 20
0.5737017825124378
 30
0.0
 10
8.430972909408945
 20
0.5633881909133767
 30
0.0
 10
8.566947432313869
 20
0.5528450970477815
 30
0.0
 10
8.702903541303435
 20
0.542070964029815
 30
0.0
 10
8.838840827988706
 20
0.5310642906398708
 30
0.0
 10
8.974758993438584
 20
0.5198236811217509
 30
0.0
 10
9.11065780678739
 20
0.5083476592695162
 30
0.0
 10
9.246537044067022
 20
0.4966347878309458
 30
0.0
 10
9.382396483328089
 20
0.48468381604234706
 30
0.0
 10
9.518235859910325
 20
0.47249375095213647
 30
0.0
 10
9.654054543167275
 20
0.4600639569632628
 30
0.0
 10
9.789851373443405
 20
0.44739406882012844
 30
0.0
 10
9.925624734488162
 20
0.43448429438348213
 30
0.0
 10
10.061372867599696
 20
0.4213351240055186
 30
0.0
 10
10.19709401301226
 20
0.40794698606073165
 30
0.0
 10
10.3327867343189
 20
0.3943199420506855
 30
0.0
 10
10.468451473141663
 20
0.38045320637430896
 30
0.0
 10
10.604091095548997
 20
0.3663457370971768
 30
0.0
 10
10.73971050582273
 20
0.35199575367533575
 30
0.0
 10
10.875315084828772
 20
0.33740120841231774
 30
0.0
 10
11.010909693006251
 20
0.322560044015099
 30
0.0
 10
11.146492546922605
 20
0.30747179653431744
 30
0.0
 10
11.282050898730274
 20
0.29213667702963036
 30
0.0
 10
11.417561434983863
 20
0.2765547105531331
 30
0.0
 10
11.552996631375645
 20
0.26072517410528695
 30
0.0
 10
11.688336789120207
 20
0.24464387875279625
 30
0.0
 10
11.82360292923753
 20
0.22829389019503382
 30
0.0
 10
11.958868139037662
 20
0.21166770419144762
 30
0.0
 10
12.094247640842129
 20
0.19475071566297406
 30
0.0
 10
12.229828519170951
 20
0.17755160026978276
 30
0.0
 10
12.365505720218787
 20
0.16010615579830417
 30
0.0
 10
12.500896037357915
 20
0.14243336495852824
 30
0.0
 10
12.635525069046942
 20
0.12425226790752528
 30
0.0
 10
12.769371033202999
 20
0.10591063751101737
 30
0.0
 10
12.905025203180623
 20
0.0860716381067822
 30
0.0
 10
13.039175447880984
 20
0.06466221659330286
 30
0.0
 10
13.185562419247704
 20
0.0475497878645824
 30
0.0
 10
13.28089996952981
 20
0.022943449799376674
 30
0.0
 10
13.492974231342767
 20
0.026218713283879022
 30
0.0
 10
13.373015224075548
 20
-0.008191391167633998
 30
0.0
 10
13.284791740854784
 20
0.0009782926615316755
 30
0.0
 10
13.146944585368686
 20
-0.005171852985941476
 30
0.0
 10
13.010366414822425
 20
-0.0017867463992825247
 30
0.0
 10
12.871941755608221
 20
0.002181830788619887
 30
0.0
 10
12.736255806562584
 20
0.006208099599273092
 30
0.0
 10
12.600960326187952
 20
0.00953008121869492
 30
0.0
 10
12.4649861465584
 20
0.01301103598266823
 30
0.0
 10
12.32836185601437
 20
0.016339457163914384
 30
0.0
 10
12.191621586858208
 20
0.01962055535743088
 30
0.0
 10
12.055056765715966
 20
0.022748863972560315
 30
0.0
 10
11.918713069932883
 20
0.0256699149579299
 30
0.0
 10
11.782476371280767
 20
0.02834555154795671
 30
0.0
 10
11.646239053592128
 20
0.030758638144512178
 30
0.0
 10
11.50994262432357
 20
0.03290375861627409
 30
0.0
 10
11.37358003873749
 20
0.03478130406849871
 30
0.0
 10
11.237176541092614
 20
0.03639136379769457
 30
0.0
 10
11.100759385181302
 20
0.037740283885870175
 30
0.0
 10
10.96434866733538
 20
0.038837846211409746
 30
0.0
 10
10.827953361217652
 20
0.039694208937757804
 30
0.0
 10
10.691571884386747
 20
0.040318662881592915
 30
0.0
 10
10.5551986508385
 20
0.040721970216934876
 30
0.0
 10
10.418828049747164
 20
0.040915553384643234
 30
0.0
 10
10.282455544036367
 20
0.040911242075740206
 30
0.0
 10
10.146078912819297
 20
0.04072049279691122
 30
0.0
 10
10.00969829323589
 20
0.04035478068820076
 30
0.0
 10
9.873315136056974
 20
0.0398257521110808
 30
0.0
 10
9.736930964106215
 20
0.03914490426982639
 30
0.0
 10
9.600547277461851
 20
0.03832343564013628
 30
0.0
 10
9.46416521632787
 20
0.03737210734242681
 30
0.0
 10
9.327785301943212
 20
0.036301170158318276
 30
0.0
 10
9.19140745230074
 20
0.03512050277055119
 30
0.0
 10
9.055031316862268
 20
0.033839891399794646
 30
0.0
 10
8.918656538729564
 20
0.03246862649353539
 30
0.0
 10
8.782282762120065
 20
0.03101534778877379
 30
0.0
 10
8.645909669942894
 20
0.029488088757045193
 30
0.0
 10
8.50953706423152
 20
0.027894099713225637
 30
0.0
 10
8.37316487619263
 20
0.02623972703478901
 30
0.0
 10
8.236793127395366
 20
0.02453042673332784
 30
0.0
 10
8.10042185144128
 20
0.02277088895930299
 30
0.0
 10
7.964051082852673
 20
0.020965539925528867
 30
0.0
 10
7.827680854666281
 20
0.019119098699215655
 30
0.0
 10
7.691311176107375
 20
0.017236957317462685
 30
0.0
 10
7.554942010207033
 20
0.015324869204105526
 30
0.0
 10
7.418573272143235
 20
0.013388979066018318
 30
0.0
 10
7.282204850489358
 20
0.01143588583911459
 30
0.0
 10
7.145836619400713
 20
0.009473476278416734
 30
0.0
 10
7.0094684534156
 20
0.007509390002309175
 30
0.0
 10
6.873100230239656
 20
0.005549867176314037
 30
0.0
 10
6.736731846015604
 20
0.0035989829894723176
 30
0.0
 10
6.6003632573207724
 20
0.001658401665654467
 30
0.0
 10
6.463994490395183
 20
-0.00027280069147955056
 30
0.0
 10
6.327625622916313
 20
-0.002197843683450451
 30
0.0
 10
6.191256744980352
 20
-0.004122259677478349
 30
0.0
 10
6.054887954882204
 20
-0.006053257119676482
 30
0.0
 10
5.918519348072638
 20
-0.007997571135436626
 30
0.0
 10
5.782151007267071
 20
-0.009959765340242238
 30
0.0
 10
5.645782998187453
 20
-0.011942872337461323
 30
0.0
 10
5.509415341916622
 20
-0.013948088170752151
 30
0.0
 10
5.373048013800545
 20
-0.01597478551644626
 30
0.0
 10
5.236680962698717
 20
-0.018020684785242786
 30
0.0
 10
5.100314134247749
 20
-0.020082269241345256
 30
0.0
 10
4.963947471830407
 20
-0.022155378393640734
 30
0.0
 10
4.827580924008239
 20
-0.024236232470326056
 30
0.0
 10
4.691214444620886
 20
-0.02632161470926134
 30
0.0
 10
4.554847984831944
 20
-0.02840826197782683
 30
0.0
 10
4.418481497066918
 20
-0.03049300479551023
 30
0.0
 10
4.282114934712883
 20
-0.03257275629112934
 30
0.0
 10
4.145748251196551
 20
-0.03464444906553635
 30
0.0
 10
4.009381399840194
 20
-0.0367049731751265
 30
0.0
 10
3.873014333428514
 20
-0.038751138222680004
 30
0.0
 10
3.7366470008971264
 20
-0.040779574843592924
 30
0.0
 10
3.600279354606615
 20
-0.04278724182497532
 30
0.0
 10
3.463911347707727
 20
-0.044771086756534524
 30
0.0
 10
3.3275429316556835
 20
-0.04672747347314938
 30
0.0
 10
3.191174056315968
 20
-0.04865186783786983
 30
0.0
 10
3.0548046619536255
 20
-0.05053859123553092
 30
0.0
 10
2.9184346677990414
 20
-0.05238028024645636
 30
0.0
 10
2.7820639807632777
 20
-0.054168707421069016
 30
0.0
 10
2.6456924897849654
 20
-0.05589479908404935
 30
0.0
 10
2.5093201000535896
 20
-0.057551687339793184
 30
0.0
 10
2.3729467850637844
 20
-0.05913733045508915
 30
0.0
 10
2.2365725497291518
 20
-0.06064843484211148
 30
0.0
 10
2.100197394989941
 20
-0.062073249977441
 30
0.0
 10
1.9638212390346337
 20
-0.06338722935105234
 30
0.0
 10
1.8274438805708093
 20
-0.0645568470080404
 30
0.0
 10
1.6910650657236077
 20
-0.06554932258844079
 30
0.0
 10
1.5546846654701152
 20
-0.0663314435143217
 30
0.0
 10
1.4183029210987104
 20
-0.06685446042895406
 30
0.0
 10
1.2819206153217455
 20
-0.0671014048075466
 30
0.0
 10
1.145537927673376
 20
-0.06692078417518292
 30
0.0
 10
1.0091571355813214
 20
-0.06672784609189987
 30
0.0
 10
0.87277372537103
 20
-0.0648132538177781
 30
0.0
 10
0.7364148336389518
 20
-0.06815464354737306
 30
0.0
 10
0.6000103214664023
 20
-0.06663070449634322
 30
0.0
 10
0.4635147389540984
 20
-0.06158784486534012
 30
0.0
 10
0.32720305411578204
 20
-0.04937763873815387
 30
0.0
 10
0.1957098669890997
 20
-0.03325147832960704
 30
0.0
 10
0.11241399876071374
 20
-0.009907564906965089
 30
0.0
 10
0.07425
 20
0.005180755682505885
 30
0.0
  0
ENDSEC
  0
SECTION
  2
OBJECTS
  0
DICTIONARY
  5
A
330
0
100
AcDbDictionary
281
1
  3
ACAD_COLOR
350
B
  3
ACAD_GROUP
350
C
  3
ACAD_LAYOUT
350
D
  3
ACAD_MATERIAL
350
E
  3
ACAD_MLEADERSTYLE
350
F
  3
ACAD_MLINESTYLE
350
10
  3
ACAD_PLOTSETTINGS
350
11
  3
ACAD_PLOTSTYLENAME
350
12
  3
ACAD_SCALELIST
350
14
  3
ACAD_TABLESTYLE
350
15
  3
ACAD_VISUALSTYLE
350
16
  3
EZDXF_META
350
2D
  0
DICTIONARY
  5
B
330
A
100
AcDbDictionary
281
1
  0
DICTIONARY
  5
C
330
A
100
AcDbDictionary
281
1
  0
DICTIONARY
  5
D
330
A
100
AcDbDictionary
281
1
  3
Model
350
1A
  3
Layout1
350
1E
  0
DICTIONARY
  5
E
330
A
100
AcDbDictionary
281
1
  3
ByBlock
350
1F
  3
ByLayer
350
20
  3
Global
350
21
  0
DICTIONARY
  5
F
330
A
100
AcDbDictionary
281
1
  3
Standard
350
2C
  0
DICTIONARY
  5
10
330
A
100
AcDbDictionary
281
1
  3
Standard
350
22
  0
DICTIONARY
  5
11
330
A
100
AcDbDictionary
281
1
  0
ACDBDICTIONARYWDFLT
  5
12
330
A
100
AcDbDictionary
281
1
  3
Normal
350
13
100
AcDbDictionaryWithDefault
340
13
  0
ACDBPLACEHOLDER
  5
13
330
12
  0
DICTIONARY
  5
14
330
A
100
AcDbDictionary
281
1
  0
DICTIONARY
  5
15
330
A
100
AcDbDictionary
281
1
  0
DICTIONARY
  5
16
330
A
100
AcDbDictionary
281
1
  0
LAYOUT
  5
1A
330
D
100
AcDbPlotSettings
  1

  4
A3
  6

 40
7.5
 41
20.0
 42
7.5
 43
20.0
 44
420.0
 45
297.0
 46
0.0
 47
0.0
 48
0.0
 49
0.0
140
0.0
141
0.0
142
1.0
143
1.0
 70
1024
 72
1
 73
0
 74
5
  7

 75
16
 76
0
 77
2
 78
300
147
1.0
148
0.0
149
0.0
100
AcDbLayout
  1
Model
 70
1
 71
0
 10
0.0
 20
0.0
 11
420.0
 21
297.0
 12
0.0
 22
0.0
 32
0.0
 14
1e+20
 24
1e+20
 34
1e+20
 15
-1e+20
 25
-1e+20
 35
-1e+20
146
0.0
 13
0.0
 23
0.0
 33
0.0
 16
1.0
 26
0.0
 36
0.0
 17
0.0
 27
1.0
 37
0.0
 76
1
330
17
  0
LAYOUT
  5
1E
330
D
100
AcDbPlotSettings
  1

  4
A3
  6

 40
7.5
 41
20.0
 42
7.5
 43
20.0
 44
420.0
 45
297.0
 46
0.0
 47
0.0
 48
0.0
 49
0.0
140
0.0
141
0.0
142
1.0
143
1.0
 70
0
 72
1
 73
0
 74
5
  7

 75
16
 76
0
 77
2
 78
300
147
1.0
148
0.0
149
0.0
100
AcDbLayout
  1
Layout1
 70
1
 71
1
 10
0.0
 20
0.0
 11
420.0
 21
297.0
 12
0.0
 22
0.0
 32
0.0
 14
1e+20
 24
1e+20
 34
1e+20
 15
-1e+20
 25
-1e+20
 35
-1e+20
146
0.0
 13
0.0
 23
0.0
 33
0.0
 16
1.0
 26
0.0
 36
0.0
 17
0.0
 27
1.0
 37
0.0
 76
1
330
1B
  0
MATERIAL
  5
1F
102
{ACAD_REACTORS
330
E
102
}
330
E
100
AcDbMaterial
  1
ByBlock
  2

 70
0
 40
1.0
 71
1
 41
1.0
 91
-1023410177
 42
1.0
 72
1
  3

 73
1
 74
1
 75
1
 44
0.5
 73
0
 45
1.0
 46
1.0
 77
1
  4

 78
1
 79
1
170
1
 48
1.0
171
1
  6

172
1
173
1
174
1
140
1.0
141
1.0
175
1
  7

176
1
177
1
178
1
143
1.0
179
1
  8

270
1
271
1
272
1
145
1.0
146
1.0
273
1
  9

274
1
275
1
276
1
 42
1.0
 72
1
  3

 73
1
 74
1
 75
1
 94
63
  0
MATERIAL
  5
20
102
{ACAD_REACTORS
330
E
102
}
330
E
100
AcDbMaterial
  1
ByLayer
  2

 70
0
 40
1.0
 71
1
 41
1.0
 91
-1023410177
 42
1.0
 72
1
  3

 73
1
 74
1
 75
1
 44
0.5
 73
0
 45
1.0
 46
1.0
 77
1
  4

 78
1
 79
1
170
1
 48
1.0
171
1
  6

172
1
173
1
174
1
140
1.0
141
1.0
175
1
  7

176
1
177
1
178
1
143
1.0
179
1
  8

270
1
271
1
272
1
145
1.0
146
1.0
273
1
  9

274
1
275
1
276
1
 42
1.0
 72
1
  3

 73
1
 74
1
 75
1
 94
63
  0
MATERIAL
  5
21
102
{ACAD_REACTORS
330
E
102
}
330
E
100
AcDbMaterial
  1
Global
  2

 70
0
 40
1.0
 71
1
 41
1.0
 91
-1023410177
 42
1.0
 72
1
  3

 73
1
 74
1
 75
1
 44
0.5
 73
0
 45
1.0
 46
1.0
 77
1
  4

 78
1
 79
1
170
1
 48
1.0
171
1
  6

172
1
173
1
174
1
140
1.0
141
1.0
175
1
  7

176
1
177
1
178
1
143
1.0
179
1
  8

270
1
271
1
272
1
145
1.0
146
1.0
273
1
  9

274
1
275
1
276
1
 42
1.0
 72
1
  3

 73
1
 74
1
 75
1
 94
63
  0
MLINESTYLE
  5
22
102
{ACAD_REACTORS
330
10
102
}
330
10
100
AcDbMlineStyle
  2
Standard
 70
0
  3

 62
256
 51
90.0
 52
90.0
 71
2
 49
0.5
 62
256
  6
BYLAYER
 49
-0.5
 62
256
  6
BYLAYER
  0
MLEADERSTYLE
  5
2C
102
{ACAD_REACTORS
330
F
102
}
330
F
100
AcDbMLeaderStyle
179
2
170
2
171
1
172
0
 90
2
 40
0.0
 41
0.0
173
1
 91
-1056964608
 92
-2
290
1
 42
2.0
291
1
 43
8.0
  3
Standard
 44
4.0
300

342
29
174
1
175
1
176
0
178
1
 93
-1056964608
 45
4.0
292
0
297
0
 46
4.0
 94
-1056964608
 47
1.0
 49
1.0
140
1.0
294
1
141
0.0
177
0
142
1.0
295
0
296
0
143
3.75
271
0
272
9
273
9
  0
DICTIONARY
  5
2D
330
A
100
AcDbDictionary
280
1
281
1
  3
CREATED_BY_EZDXF
350
2E
  3
WRITTEN_BY_EZDXF
350
33
  0
DICTIONARYVAR
  5
2E
330
2D
100
DictionaryVariables
280
0
  1
1.4.3 @ 2026-01-01T15:33:57.907749+00:00
  0
DICTIONARYVAR
  5
33
330
2D
100
DictionaryVariables
280
0
  1
1.4.3 @ 2026-01-01T15:33:57.920625+00:00
  0
ENDSEC
  0
EOF
