  0
SECTION
  2
HEADER
  9
$ACADVER
  1
AC1027
  9
$ACADMAINTVER
 70
105
  9
$DWGCODEPAGE
  3
ANSI_1252
  9
$LASTSAVEDBY
  1
ezdxf
  9
$REQUIREDVERSIONS
160
0
  9
$INSBASE
 10
0.0
 20
0.0
 30
0.0
  9
$EXTMIN
 10
1e+20
 20
1e+20
 30
1e+20
  9
$EXTMAX
 10
-1e+20
 20
-1e+20
 30
-1e+20
  9
$LIMMIN
 10
0.0
 20
0.0
  9
$LIMMAX
 10
420.0
 20
297.0
  9
$ORTHOMODE
 70
0
  9
$REGENMODE
 70
1
  9
$FILLMODE
 70
1
  9
$QTEXTMODE
 70
0
  9
$MIRRTEXT
 70
1
  9
$LTSCALE
 40
1.0
  9
$ATTMODE
 70
1
  9
$TEXTSIZE
 40
2.5
  9
$TRACEWID
 40
1.0
  9
$TEXTSTYLE
  7
Standard
  9
$CLAYER
  8
0
  9
$CELTYPE
  6
ByLayer
  9
$CECOLOR
 62
256
  9
$CELTSCALE
 40
1.0
  9
$DISPSILH
 70
0
  9
$DIMSCALE
 40
1.0
  9
$DIMASZ
 40
2.5
  9
$DIMEXO
 40
0.625
  9
$DIMDLI
 40
3.75
  9
$DIMRND
 40
0.0
  9
$DIMDLE
 40
0.0
  9
$DIMEXE
 40
1.25
  9
$DIMTP
 40
0.0
  9
$DIMTM
 40
0.0
  9
$DIMTXT
 40
2.5
  9
$DIMCEN
 40
2.5
  9
$DIMTSZ
 40
0.0
  9
$DIMTOL
 70
0
  9
$DIMLIM
 70
0
  9
$DIMTIH
 70
0
  9
$DIMTOH
 70
0
  9
$DIMSE1
 70
0
  9
$DIMSE2
 70
0
  9
$DIMTAD
 70
1
  9
$DIMZIN
 70
8
  9
$DIMBLK
  1

  9
$DIMASO
 70
1
  9
$DIMSHO
 70
1
  9
$DIMPOST
  1

  9
$DIMAPOST
  1

  9
$DIMALT
 70
0
  9
$DIMALTD
 70
3
  9
$DIMALTF
 40
0.03937007874
  9
$DIMLFAC
 40
1.0
  9
$DIMTOFL
 70
1
  9
$DIMTVP
 40
0.0
  9
$DIMTIX
 70
0
  9
$DIMSOXD
 70
0
  9
$DIMSAH
 70
0
  9
$DIMBLK1
  1

  9
$DIMBLK2
  1

  9
$DIMSTYLE
  2
ISO-25
  9
$DIMCLRD
 70
0
  9
$DIMCLRE
 70
0
  9
$DIMCLRT
 70
0
  9
$DIMTFAC
 40
1.0
  9
$DIMGAP
 40
0.625
  9
$DIMJUST
 70
0
  9
$DIMSD1
 70
0
  9
$DIMSD2
 70
0
  9
$DIMTOLJ
 70
0
  9
$DIMTZIN
 70
8
  9
$DIMALTZ
 70
0
  9
$DIMALTTZ
 70
0
  9
$DIMUPT
 70
0
  9
$DIMDEC
 70
2
  9
$DIMTDEC
 70
2
  9
$DIMALTU
 70
2
  9
$DIMALTTD
 70
3
  9
$DIMTXSTY
  7
Standard
  9
$DIMAUNIT
 70
0
  9
$DIMADEC
 70
0
  9
$DIMALTRND
 40
0.0
  9
$DIMAZIN
 70
0
  9
$DIMDSEP
 70
44
  9
$DIMATFIT
 70
3
  9
$DIMFRAC
 70
0
  9
$DIMLDRBLK
  1

  9
$DIMLUNIT
 70
2
  9
$DIMLWD
 70
-2
  9
$DIMLWE
 70
-2
  9
$DIMTMOVE
 70
0
  9
$DIMFXL
 40
1.0
  9
$DIMFXLON
 70
0
  9
$DIMJOGANG
 40
0.785398163397
  9
$DIMTFILL
 70
0
  9
$DIMTFILLCLR
 70
0
  9
$DIMARCSYM
 70
0
  9
$DIMLTYPE
  6

  9
$DIMLTEX1
  6

  9
$DIMLTEX2
  6

  9
$DIMTXTDIRECTION
 70
0
  9
$LUNITS
 70
2
  9
$LUPREC
 70
4
  9
$SKETCHINC
 40
1.0
  9
$FILLETRAD
 40
10.0
  9
$AUNITS
 70
0
  9
$AUPREC
 70
2
  9
$MENU
  1
.
  9
$ELEVATION
 40
0.0
  9
$PELEVATION
 40
0.0
  9
$THICKNESS
 40
0.0
  9
$LIMCHECK
 70
0
  9
$CHAMFERA
 40
0.0
  9
$CHAMFERB
 40
0.0
  9
$CHAMFERC
 40
0.0
  9
$CHAMFERD
 40
0.0
  9
$SKPOLY
 70
0
  9
$TDCREATE
 40
2461042.398576389
  9
$TDUCREATE
 40
2458532.153996898
  9
$TDUPDATE
 40
2461042.398576389
  9
$TDUUPDATE
 40
2458532.1544311
  9
$TDINDWG
 40
0.0
  9
$TDUSRTIMER
 40
0.0
  9
$USRTIMER
 70
1
  9
$ANGBASE
 50
0.0
  9
$ANGDIR
 70
0
  9
$PDMODE
 70
0
  9
$PDSIZE
 40
0.0
  9
$PLINEWID
 40
0.0
  9
$SPLFRAME
 70
0
  9
$SPLINETYPE
 70
6
  9
$SPLINESEGS
 70
8
  9
$HANDSEED
  5
34
  9
$SURFTAB1
 70
6
  9
$SURFTAB2
 70
6
  9
$SURFTYPE
 70
6
  9
$SURFU
 70
6
  9
$SURFV
 70
6
  9
$UCSBASE
  2

  9
$UCSNAME
  2

  9
$UCSORG
 10
0.0
 20
0.0
 30
0.0
  9
$UCSXDIR
 10
1.0
 20
0.0
 30
0.0
  9
$UCSYDIR
 10
0.0
 20
1.0
 30
0.0
  9
$UCSORTHOREF
  2

  9
$UCSORTHOVIEW
 70
0
  9
$UCSORGTOP
 10
0.0
 20
0.0
 30
0.0
  9
$UCSORGBOTTOM
 10
0.0
 20
0.0
 30
0.0
  9
$UCSORGLEFT
 10
0.0
 20
0.0
 30
0.0
  9
$UCSORGRIGHT
 10
0.0
 20
0.0
 30
0.0
  9
$UCSORGFRONT
 10
0.0
 20
0.0
 30
0.0
  9
$UCSORGBACK
 10
0.0
 20
0.0
 30
0.0
  9
$PUCSBASE
  2

  9
$PUCSNAME
  2

  9
$PUCSORG
 10
0.0
 20
0.0
 30
0.0
  9
$PUCSXDIR
 10
1.0
 20
0.0
 30
0.0
  9
$PUCSYDIR
 10
0.0
 20
1.0
 30
0.0
  9
$PUCSORTHOREF
  2

  9
$PUCSORTHOVIEW
 70
0
  9
$PUCSORGTOP
 10
0.0
 20
0.0
 30
0.0
  9
$PUCSORGBOTTOM
 10
0.0
 20
0.0
 30
0.0
  9
$PUCSORGLEFT
 10
0.0
 20
0.0
 30
0.0
  9
$PUCSORGRIGHT
 10
0.0
 20
0.0
 30
0.0
  9
$PUCSORGFRONT
 10
0.0
 20
0.0
 30
0.0
  9
$PUCSORGBACK
 10
0.0
 20
0.0
 30
0.0
  9
$USERI1
 70
0
  9
$USERI2
 70
0
  9
$USERI3
 70
0
  9
$USERI4
 70
0
  9
$USERI5
 70
0
  9
$USERR1
 40
0.0
  9
$USERR2
 40
0.0
  9
$USERR3
 40
0.0
  9
$USERR4
 40
0.0
  9
$USERR5
 40
0.0
  9
$WORLDVIEW
 70
1
  9
$SHADEDGE
 70
3
  9
$SHADEDIF
 70
70
  9
$TILEMODE
 70
1
  9
$MAXACTVP
 70
64
  9
$PINSBASE
 10
0.0
 20
0.0
 30
0.0
  9
$PLIMCHECK
 70
0
  9
$PEXTMIN
 10
1e+20
 20
1e+20
 30
1e+20
  9
$PEXTMAX
 10
-1e+20
 20
-1e+20
 30
-1e+20
  9
$PLIMMIN
 10
0.0
 20
0.0
  9
$PLIMMAX
 10
420.0
 20
297.0
  9
$UNITMODE
 70
0
  9
$VISRETAIN
 70
1
  9
$PLINEGEN
 70
0
  9
$PSLTSCALE
 70
1
  9
$TREEDEPTH
 70
3020
  9
$CMLSTYLE
  2
Standard
  9
$CMLJUST
 70
0
  9
$CMLSCALE
 40
20.0
  9
$PROXYGRAPHICS
 70
1
  9
$MEASUREMENT
 70
1
  9
$CELWEIGHT
370
-1
  9
$ENDCAPS
280
0
  9
$JOINSTYLE
280
0
  9
$LWDISPLAY
290
0
  9
$INSUNITS
 70
4
  9
$HYPERLINKBASE
  1

  9
$STYLESHEET
  1

  9
$XEDIT
290
1
  9
$CEPSNTYPE
380
0
  9
$PSTYLEMODE
290
1
  9
$FINGERPRINTGUID
  2
{C6D0AA4A-3CFB-483E-958B-D6BC729BAA78}
  9
$VERSIONGUID
  2
{BF6FA1A8-D580-40DE-AF3A-41F9F0802F49}
  9
$EXTNAMES
290
1
  9
$PSVPSCALE
 40
0.0
  9
$OLESTARTUP
290
0
  9
$SORTENTS
280
127
  9
$INDEXCTL
280
0
  9
$HIDETEXT
280
1
  9
$XCLIPFRAME
280
1
  9
$HALOGAP
280
0
  9
$OBSCOLOR
 70
257
  9
$OBSLTYPE
280
0
  9
$INTERSECTIONDISPLAY
280
0
  9
$INTERSECTIONCOLOR
 70
257
  9
$DIMASSOC
280
2
  9
$PROJECTNAME
  1

  9
$CAMERADISPLAY
290
0
  9
$LENSLENGTH
 40
50.0
  9
$CAMERAHEIGHT
 40
0.0
  9
$STEPSPERSEC
 40
24.0
  9
$STEPSIZE
 40
100.0
  9
$3DDWFPREC
 40
2.0
  9
$PSOLWIDTH
 40
0.005
  9
$PSOLHEIGHT
 40
0.08
  9
$LOFTANG1
 40
1.570796326795
  9
$LOFTANG2
 40
1.570796326795
  9
$LOFTMAG1
 40
0.0
  9
$LOFTMAG2
 40
0.0
  9
$LOFTPARAM
 70
7
  9
$LOFTNORMALS
280
1
  9
$LATITUDE
 40
37.795
  9
$LONGITUDE
 40
-122.394
  9
$NORTHDIRECTION
 40
0.0
  9
$TIMEZONE
 70
-8000
  9
$LIGHTGLYPHDISPLAY
280
1
  9
$TILEMODELIGHTSYNCH
280
1
  9
$CMATERIAL
347
20
  9
$SOLIDHIST
280
0
  9
$SHOWHIST
280
1
  9
$DWFFRAME
280
2
  9
$DGNFRAME
280
2
  9
$REALWORLDSCALE
290
1
  9
$INTERFERECOLOR
 62
256
  9
$CSHADOW
280
0
  9
$SHADOWPLANELOCATION
 40
0.0
  0
ENDSEC
  0
SECTION
  2
CLASSES
  0
CLASS
  1
ACDBDICTIONARYWDFLT
  2
AcDbDictionaryWithDefault
  3
ObjectDBX Classes
 90
0
 91
0
280
0
281
0
  0
CLASS
  1
SUN
  2
AcDbSun
  3
SCENEOE
 90
1153
 91
0
280
0
281
0
  0
CLASS
  1
VISUALSTYLE
  2
AcDbVisualStyle
  3
ObjectDBX Classes
 90
4095
 91
0
280
0
281
0
  0
CLASS
  1
MATERIAL
  2
AcDbMaterial
  3
ObjectDBX Classes
 90
1153
 91
0
280
0
281
0
  0
CLASS
  1
SCALE
  2
AcDbScale
  3
ObjectDBX Classes
 90
1153
 91
0
280
0
281
0
  0
CLASS
  1
TABLESTYLE
  2
AcDbTableStyle
  3
ObjectDBX Classes
 90
4095
 91
0
280
0
281
0
  0
CLASS
  1
MLEADERSTYLE
  2
AcDbMLeaderStyle
  3
ACDB_MLEADERSTYLE_CLASS
 90
4095
 91
0
280
0
281
0
  0
CLASS
  1
DICTIONARYVAR
  2
AcDbDictionaryVar
  3
ObjectDBX Classes
 90
0
 91
0
280
0
281
0
  0
CLASS
  1
CELLSTYLEMAP
  2
AcDbCellStyleMap
  3
ObjectDBX Classes
 90
1152
 91
0
280
0
281
0
  0
CLASS
  1
MENTALRAYRENDERSETTINGS
  2
AcDbMentalRayRenderSettings
  3
SCENEOE
 90
1024
 91
0
280
0
281
0
  0
CLASS
  1
ACDBDETAILVIEWSTYLE
  2
AcDbDetailViewStyle
  3
ObjectDBX Classes
 90
1025
 91
0
280
0
281
0
  0
CLASS
  1
ACDBSECTIONVIEWSTYLE
  2
AcDbSectionViewStyle
  3
ObjectDBX Classes
 90
1025
 91
0
280
0
281
0
  0
CLASS
  1
RASTERVARIABLES
  2
AcDbRasterVariables
  3
ISM
 90
0
 91
0
280
0
281
0
  0
CLASS
  1
ACDBPLACEHOLDER
  2
AcDbPlaceHolder
  3
ObjectDBX Classes
 90
0
 91
0
280
0
281
0
  0
CLASS
  1
LAYOUT
  2
AcDbLayout
  3
ObjectDBX Classes
 90
0
 91
0
280
0
281
0
  0
ENDSEC
  0
SECTION
  2
TABLES
  0
TABLE
  2
VPORT
  5
8
330
0
100
AcDbSymbolTable
 70
1
  0
VPORT
  5
30
330
8
100
AcDbSymbolTableRecord
100
AcDbViewportTableRecord
  2
*Active
 70
0
 10
0.0
 20
0.0
 11
1.0
 21
1.0
 12
16.09134350990214
 22
1.066884390838763
 13
0.0
 23
0.0
 14
0.5
 24
0.5
 15
0.5
 25
0.5
 16
0.0
 26
0.0
 36
1.0
 17
0.0
 27
0.0
 37
0.0
 40
15.91540903070771
 41
1.34
 42
50.0
 43
0.0
 44
0.0
 50
0.0
 51
0.0
 71
0
 72
1000
 73
1
 74
3
 75
0
 76
0
 77
0
 78
0
281
0
 65
1
110
0.0
120
0.0
130
0.0
111
1.0
121
0.0
131
0.0
112
0.0
122
1.0
132
0.0
 79
0
146
0.0
  0
ENDTAB
  0
TABLE
  2
LTYPE
  5
2
330
0
100
AcDbSymbolTable
 70
3
  0
LTYPE
  5
24
330
2
100
AcDbSymbolTableRecord
100
AcDbLinetypeTableRecord
  2
ByBlock
 70
0
  3

 72
65
 73
0
 40
0.0
  0
LTYPE
  5
25
330
2
100
AcDbSymbolTableRecord
100
AcDbLinetypeTableRecord
  2
ByLayer
 70
0
  3

 72
65
 73
0
 40
0.0
  0
LTYPE
  5
26
330
2
100
AcDbSymbolTableRecord
100
AcDbLinetypeTableRecord
  2
Continuous
 70
0
  3

 72
65
 73
0
 40
0.0
  0
ENDTAB
  0
TABLE
  2
LAYER
  5
1
330
0
100
AcDbSymbolTable
 70
2
  0
LAYER
  5
27
330
1
100
AcDbSymbolTableRecord
100
AcDbLayerTableRecord
  2
0
 70
0
 62
7
  6
Continuous
370
-3
390
13
347
21
  0
LAYER
  5
28
330
1
100
AcDbSymbolTableRecord
100
AcDbLayerTableRecord
  2
Defpoints
 70
0
 62
7
  6
Continuous
290
0
370
-3
390
13
347
21
  0
ENDTAB
  0
TABLE
  2
STYLE
  5
5
330
0
100
AcDbSymbolTable
 70
1
  0
STYLE
  5
29
330
5
100
AcDbSymbolTableRecord
100
AcDbTextStyleTableRecord
  2
Standard
 70
0
 40
0.0
 41
1.0
 50
0.0
 71
0
 42
2.5
  3
txt
  4

  0
ENDTAB
  0
TABLE
  2
VIEW
  5
7
330
0
100
AcDbSymbolTable
 70
0
  0
ENDTAB
  0
TABLE
  2
UCS
  5
6
330
0
100
AcDbSymbolTable
 70
0
  0
ENDTAB
  0
TABLE
  2
APPID
  5
3
330
0
100
AcDbSymbolTable
 70
3
  0
APPID
  5
2A
330
3
100
AcDbSymbolTableRecord
100
AcDbRegAppTableRecord
  2
ACAD
 70
0
  0
APPID
  5
31
330
3
100
AcDbSymbolTableRecord
100
AcDbRegAppTableRecord
  2
HATCHBACKGROUNDCOLOR
 70
0
  0
APPID
  5
32
330
3
100
AcDbSymbolTableRecord
100
AcDbRegAppTableRecord
  2
EZDXF
 70
0
  0
ENDTAB
  0
TABLE
  2
DIMSTYLE
  5
4
330
0
100
AcDbSymbolTable
 70
1
100
AcDbDimStyleTable
  0
DIMSTYLE
105
2B
330
4
100
AcDbSymbolTableRecord
100
AcDbDimStyleTableRecord
  2
Standard
 70
0
 40
1.0
 41
2.5
 42
0.625
 43
3.75
 44
1.25
 45
0.0
 46
0.0
 47
0.0
 48
0.0
 49
2.5
140
2.5
141
2.5
142
0.0
143
0.03937007874
144
1.0
145
0.0
146
1.0
147
0.625
148
0.0
 69
0
 70
0
 71
0
 72
0
 73
0
 74
0
 75
0
 76
0
 77
1
 78
8
 79
3
170
0
171
3
172
1
173
0
174
0
175
0
176
0
177
0
178
0
179
2
271
2
272
2
273
2
274
3
275
0
276
0
277
2
278
44
279
0
280
0
281
0
282
0
283
0
284
8
285
0
286
0
288
0
289
3
290
0
371
-2
372
-2
  0
ENDTAB
  0
TABLE
  2
BLOCK_RECORD
  5
9
330
0
100
AcDbSymbolTable
 70
2
  0
BLOCK_RECORD
  5
17
330
9
100
AcDbSymbolTableRecord
100
AcDbBlockTableRecord
  2
*Model_Space
340
1A
 70
0
280
1
281
0
  0
BLOCK_RECORD
  5
1B
330
9
100
AcDbSymbolTableRecord
100
AcDbBlockTableRecord
  2
*Paper_Space
340
1E
 70
0
280
1
281
0
  0
ENDTAB
  0
ENDSEC
  0
SECTION
  2
BLOCKS
  0
BLOCK
  5
18
330
17
100
AcDbEntity
  8
0
100
AcDbBlockBegin
  2
*Model_Space
 70
0
 10
0.0
 20
0.0
 30
0.0
  3
*Model_Space
  1

  0
ENDBLK
  5
19
330
17
100
AcDbEntity
  8
0
100
AcDbBlockEnd
  0
BLOCK
  5
1C
330
1B
100
AcDbEntity
  8
0
100
AcDbBlockBegin
  2
*Paper_Space
 70
0
 10
0.0
 20
0.0
 30
0.0
  3
*Paper_Space
  1

  0
ENDBLK
  5
1D
330
1B
100
AcDbEntity
  8
0
100
AcDbBlockEnd
  0
ENDSEC
  0
SECTION
  2
ENTITIES
  0
SPLINE
  5
2F
330
17
100
AcDbEntity
  8
0
100
AcDbSpline
 70
0
 71
3
 72
206
 73
202
 74
0
 40
0.0
 40
0.0
 40
0.0
 40
0.0
 40
0.3246325495119887
 40
0.6492342196114422
 40
0.9738553605309259
 40
1.298464481338407
 40
1.6230794598103135
 40
1.9476919892144127
 40
2.2723058070859867
 40
2.59691870546135
 40
2.9215320879111055
 40
3.2461452117525504
 40
3.5707584156241996
 40
3.8953716009384642
 40
4.2199847890167055
 40
4.54459796469086
 40
4.8692111364493655
 40
5.193824296730352
 40
5.518437458899011
 40
5.843050627943715
 40
6.167663793389193
 40
6.492276956068493
 40
6.816890117275548
 40
7.141503278564141
 40
7.466116439556592
 40
7.790729597283388
 40
8.115342757326774
 40
8.439955913591662
 40
8.764569071061402
 40
9.08918222874255
 40
9.413795386149825
 40
9.73840854359021
 40
10.063021700824846
 40
10.387634858082372
 40
10.712248015280382
 40
11.03686117242543
 40
11.361474329601824
 40
11.68608748661032
 40
12.010700643609706
 40
12.335313800683803
 40
12.659926957666501
 40
12.98454011458988
 40
13.309153271561344
 40
13.633766428521422
 40
13.958379585484947
 40
14.282992742437816
 40
14.607605899406025
 40
14.932219056344106
 40
15.256832213341276
 40
15.581445370395972
 40
15.906058527390538
 40
16.23067168434025
 40
16.555284841366884
 40
16.879897998341566
 40
17.20451115534353
 40
17.52912431231463
 40
17.853737469287214
 40
18.17835062623355
 40
18.502963783279228
 40
18.82757694026905
 40
19.15219009726575
 40
19.47680325426459
 40
19.801416411263546
 40
20.12602956826076
 40
20.450642725270157
 40
20.775255882257664
 40
21.099869039246784
 40
21.424482196247155
 40
21.749095353243465
 40
22.073708510246956
 40
22.39832166724928
 40
22.722934824257173
 40
23.047547981262216
 40
23.372161138275843
 40
23.69677429529434
 40
24.02138745230156
 40
24.346000609318985
 40
24.67061376632326
 40
24.995226923344138
 40
25.319840080348847
 40
25.644453237331465
 40
25.969066394346704
 40
26.293679551358476
 40
26.618292708438133
 40
26.942905865437307
 40
27.267519022621176
 40
27.592132179764796
 40
27.91674533674949
 40
28.241358493310518
 40
28.565971653446656
 40
28.890584797674
 40
29.21519799948722
 40
29.53981099142739
 40
29.86442477858957
 40
30.18903547210221
 40
30.51365784199559
 40
30.838239861588725
 40
31.162949462265694
 40
31.48719387204219
 40
31.813858797080243
 40
32.129873047972914
 40
32.567313468054444
 40
32.76222117326886
 40
33.09621649720837
 40
33.42384549841806
 40
33.74919301832033
 40
34.07375954216107
 40
34.39835053744177
 40
34.722967120534406
 40
35.047580411751404
 40
35.37219347986165
 40
35.69680664752474
 40
36.02141980865951
 40
36.34603296468575
 40
36.67064612170813
 40
36.99525927829003
 40
37.319872435125156
 40
37.64448559212417
 40
37.96909874917487
 40
38.2937119062348
 40
38.61832506327468
 40
38.9429382202624
 40
39.26755137722969
 40
39.5921645341784
 40
39.91677769111739
 40
40.241390848050635
 40
40.56600400498092
 40
40.890617161905936
 40
41.21523031882855
 40
41.53984347574768
 40
41.86445663266437
 40
42.18906978957807
 40
42.51368294649096
 40
42.83829610340186
 40
43.16290926031225
 40
43.487522417222166
 40
43.81213557413163
 40
44.13674873104095
 40
44.46136188795039
 40
44.78597504485983
 40
45.110588201769396
 40
45.43520135867913
 40
45.759814515588744
 40
46.084427672499295
 40
46.40904082940967
 40
46.733653986320945
 40
47.058267143231
 40
47.382880300143405
 40
47.70749345705631
 40
48.03210661396928
 40
48.356719770882684
 40
48.68133292779569
 40
49.005946084708086
 40
49.33055924161992
 40
49.65517239853221
 40
49.97978555544064
 40
50.304398712350356
 40
50.629011869261575
 40
50.95362502617166
 40
51.27823818308156
 40
51.602851339991396
 40
51.927464496901045
 40
52.25207765381178
 40
52.57669081072332
 40
52.90130396763661
 40
53.2259171245463
 40
53.550530281459544
 40
53.87514343837199
 40
54.199756595285024
 40
54.52436975219817
 40
54.84898290911177
 40
55.17359606602481
 40
55.49820922294177
 40
55.82282237985615
 40
56.14743553676976
 40
56.472048693685686
 40
56.79666185059987
 40
57.12127500752286
 40
57.445888164435225
 40
57.77050132135259
 40
58.095114478272755
 40
58.41972763519634
 40
58.74434079212704
 40
59.06895394905516
 40
59.39356710598662
 40
59.7181802629508
 40
60.04279341994779
 40
60.367406577078356
 40
60.692019733413645
 40
61.01663289193309
 40
61.341246044660636
 40
61.66585921299899
 40
61.99047235216853
 40
62.315085477711754
 40
62.639699162906034
 40
62.964312220320906
 40
63.28892419192669
 40
63.613539503209246
 40
63.93814763820797
 40
64.26277400533309
 40
64.58736451891585
 40
64.58736451891585
 40
64.58736451891585
 40
64.58736451891585
 10
0.17593447919442617
 20
0.06452532915759181
 30
0.0
 10
0.22387046515541467
 20
0.16239157737439336
 30
0.0
 10
0.33761989705770734
 20
0.3467817855400437
 30
0.0
 10
0.5473376416421987
 20
0.5957140574519296
 30
0.0
 10
0.7732929028928475
 20
0.8291230805062897
 30
0.0
 10
1.0216948469940972
 20
1.0388764214170934
 30
0.0
 10
1.2845333221041109
 20
1.2297653277481073
 30
0.0
 10
1.560078284281077
 20
1.401827819055681
 30
0.0
 10
1.8453514835464866
 20
1.5570954425240682
 30
0.0
 10
2.1389475244809293
 20
1.6959257966044434
 30
0.0
 10
2.4388287188724855
 20
1.820489560539354
 30
0.0
 10
2.7438510817906323
 20
1.9318259180871955
 30
0.0
 10
3.052961011439015
 20
2.031184024127541
 30
0.0
 10
3.365348584402649
 20
2.1196550489381503
 30
0.0
 10
3.6804271702843314
 20
2.1979736122275506
 30
0.0
 10
3.9977568691183767
 20
2.2665839246370822
 30
0.0
 10
4.3169761815266225
 20
2.3257673468166864
 30
0.0
 10
4.637758891029568
 20
2.375765681418827
 30
0.0
 10
4.959776939780398
 20
2.417022757035612
 30
0.0
 10
5.2827184715345
 20
2.450221742841123
 30
0.0
 10
5.606311211376738
 20
2.476229069494693
 30
0.0
 10
5.930330837392431
 20
2.4961092272491494
 30
0.0
 10
6.254612084275061
 20
2.511006027278807
 30
0.0
 10
6.579048552917292
 20
2.5219135961299126
 30
0.0
 10
6.903578103767792
 20
2.5294961084218026
 30
0.0
 10
7.228162637909828
 20
2.534108745825944
 30
0.0
 10
7.552774183198793
 20
2.5359675328581366
 30
0.0
 10
7.877389718534196
 20
2.5352057100521974
 30
0.0
 10
8.201990115695676
 20
2.532041819035976
 30
0.0
 10
8.526561773984975
 20
2.5267187663812054
 30
0.0
 10
8.85109532414316
 20
2.519451777637326
 30
0.0
 10
9.175584572241839
 20
2.510432099098278
 30
0.0
 10
9.500025521500266
 20
2.499823783419889
 30
0.0
 10
9.824415690845004
 20
2.4877671680265103
 30
0.0
 10
10.148753288406173
 20
2.4743738964902593
 30
0.0
 10
10.473036759348089
 20
2.4597306985249454
 30
0.0
 10
10.797264720588982
 20
2.4439075587117434
 30
0.0
 10
11.121436163845495
 20
2.4269674175936586
 30
0.0
 10
11.4455512969543
 20
2.408983569593727
 30
0.0
 10
11.769611441551085
 20
2.390036010862166
 30
0.0
 10
12.09361857556127
 20
2.370203815361439
 30
0.0
 10
12.417575878514182
 20
2.349574838270916
 30
0.0
 10
12.741487736151196
 20
2.3282452084440695
 30
0.0
 10
13.065358562876995
 20
2.3063020997813077
 30
0.0
 10
13.389191914094166
 20
2.283813147226059
 30
0.0
 10
13.712989791606823
 20
2.2608192783568586
 30
0.0
 10
14.03675222343849
 20
2.2373315627344206
 30
0.0
 10
14.360477034342233
 20
2.2133306673513014
 30
0.0
 10
14.684159995893298
 20
2.1887713777697027
 30
0.0
 10
15.007794603002607
 20
2.1635822208165654
 30
0.0
 10
15.331373043379612
 20
2.1376808107302434
 30
0.0
 10
15.654888076996572
 20
2.1109985392618147
 30
0.0
 10
15.97833367743068
 20
2.083486956504624
 30
0.0
 10
16.301704686979534
 20
2.0551118104583708
 30
0.0
 10
16.62499725897008
 20
2.0258564396478147
 30
0.0
 10
16.94820889781505
 20
1.9957201470360242
 30
0.0
 10
17.27133856935554
 20
1.9647175185541408
 30
0.0
 10
17.59438637152771
 20
1.9328733737156751
 30
0.0
 10
17.917352772201784
 20
1.9002141627747322
 30
0.0
 10
18.240237416543376
 20
1.8667564326678185
 30
0.0
 10
18.563039450144828
 20
1.8325109073186905
 30
0.0
 10
18.885757554991933
 20
1.7974833149834752
 30
0.0
 10
19.208389864597084
 20
1.7616740789194543
 30
0.0
 10
19.530934006174213
 20
1.725079153800074
 30
0.0
 10
19.85338719494256
 20
1.6876912196839875
 30
0.0
 10
20.175746377479125
 20
1.6495011834142579
 30
0.0
 10
20.498008579559734
 20
1.6105012016314524
 30
0.0
 10
20.820170882981472
 20
1.57068437447017
 30
0.0
 10
21.14223027227407
 20
1.5300434653904778
 30
0.0
 10
21.464183649147756
 20
1.488571049554308
 30
0.0
 10
21.786027813072703
 20
1.4462593858282207
 30
0.0
 10
22.107759506960946
 20
1.4031007895739955
 30
0.0
 10
22.429375444975868
 20
1.3590878368413464
 30
0.0
 10
22.750872362993228
 20
1.3142137087532118
 30
0.0
 10
23.07224697898078
 20
1.2684718697946118
 30
0.0
 10
23.393496027385414
 20
1.2218562930365304
 30
0.0
 10
23.71461632625921
 20
1.1743618724349407
 30
0.0
 10
24.035604616493487
 20
1.1259832880852323
 30
0.0
 10
24.35645747516037
 20
1.0767144596234377
 30
0.0
 10
24.677171133364162
 20
1.0265474459772557
 30
0.0
 10
24.997741664695006
 20
0.97547377752405
 30
0.0
 10
25.318165082858012
 20
0.9234850844703688
 30
0.0
 10
25.63843705560085
 20
0.8705713662640946
 30
0.0
 10
25.95855296962935
 20
0.8167215038742319
 30
0.0
 10
26.278507951774486
 20
0.7619234850968227
 30
0.0
 10
26.598297174401974
 20
0.706166187623242
 30
0.0
 10
26.917914225447667
 20
0.6494301273794708
 30
0.0
 10
27.237351390195435
 20
0.5916897232571489
 30
0.0
 10
27.556599984177105
 20
0.5329153621339358
 30
0.0
 10
27.875645267258957
 20
0.4730468183972054
 30
0.0
 10
28.194473925351208
 20
0.41203487001792943
 30
0.0
 10
28.513080637964258
 20
0.34987479731929244
 30
0.0
 10
28.83146013426955
 20
0.2865593619662921
 30
0.0
 10
29.14964685594403
 20
0.2222925898786141
 30
0.0
 10
29.467621435428434
 20
0.15694639925360065
 30
0.0
 10
29.785364080426046
 20
0.09061470200415005
 30
0.0
 10
30.102376166432727
 20
0.020338908903260115
 30
0.0
 10
30.41947193981394
 20
-0.047481225748073626
 30
0.0
 10
30.73538867045026
 20
-0.1293656216445695
 30
0.0
 10
31.045895278891717
 20
-0.19929073798943603
 30
0.0
 10
31.410754574684177
 20
-0.2926311783190678
 30
0.0
 10
31.661946474087255
 20
-0.31041276808758217
 30
0.0
 10
32.12980795453165
 20
-0.40500405356412006
 30
0.0
 10
31.58903454889488
 20
-0.3915600499535437
 30
0.0
 10
31.337879203941128
 20
-0.397094032806783
 30
0.0
 10
30.99182814092975
 20
-0.3775625413625046
 30
0.0
 10
30.67336906732454
 20
-0.3542168312854429
 30
0.0
 10
30.348583445383316
 20
-0.3248082742023271
 30
0.0
 10
30.024733469514032
 20
-0.30861245882968025
 30
0.0
 10
29.700535715709407
 20
-0.29033460321859134
 30
0.0
 10
29.376262992425843
 20
-0.2759216535536962
 30
0.0
 10
29.051910116356886
 20
-0.2627613062831797
 30
0.0
 10
28.72750799290139
 20
-0.2510699699738651
 30
0.0
 10
28.403057374435292
 20
-0.24075598410987709
 30
0.0
 10
28.078566973436487
 20
-0.23180110448942
 30
0.0
 10
27.754044595306436
 20
-0.22409300388991293
 30
0.0
 10
27.4294974681787
 20
-0.21751711901720122
 30
0.0
 10
27.104931429520043
 20
-0.21195814633070023
 30
0.0
 10
26.780350855557398
 20
-0.20733012302512566
 30
0.0
 10
26.45575921803014
 20
-0.20356200355774298
 30
0.0
 10
26.131159345867424
 20
-0.20059182750043206
 30
0.0
 10
25.806553584176335
 20
-0.19836261674267597
 30
0.0
 10
25.48194390998893
 20
-0.19681299523695306
 30
0.0
 10
25.157331906701938
 20
-0.195882940921533
 30
0.0
 10
24.8327188123904
 20
-0.19551484402570027
 30
0.0
 10
24.5081055672785
 20
-0.19565315312911272
 30
0.0
 10
24.18349285494968
 20
-0.1962438389591103
 30
0.0
 10
23.858881136276057
 20
-0.19723370754056313
 30
0.0
 10
23.53427067598847
 20
-0.19856964857675524
 30
0.0
 10
23.209661579954187
 20
-0.20020083048292917
 30
0.0
 10
22.885053835293963
 20
-0.20207981498831196
 30
0.0
 10
22.560447346139092
 20
-0.20416308077204287
 30
0.0
 10
22.2358419601244
 20
-0.20641075840314765
 30
0.0
 10
21.91123749818537
 20
-0.20878754020168447
 30
0.0
 10
21.586633762988274
 20
-0.21126118535169003
 30
0.0
 10
21.26203055467781
 20
-0.21380278998315858
 30
0.0
 10
20.937427681654984
 20
-0.21638672859299646
 30
0.0
 10
20.612824958471933
 20
-0.21898936778318487
 30
0.0
 10
20.28822220343696
 20
-0.22158804204901097
 30
0.0
 10
19.96361926039761
 20
-0.22416318139814062
 30
0.0
 10
19.63901599866146
 20
-0.22669791370332895
 30
0.0
 10
19.314412310020987
 20
-0.22917747641556221
 30
0.0
 10
18.98980810573763
 20
-0.2315887085774457
 30
0.0
 10
18.665203311019543
 20
-0.23391924710306397
 30
0.0
 10
18.340597855485314
 20
-0.23615603319007794
 30
0.0
 10
18.015991682645033
 20
-0.23828638988343048
 30
0.0
 10
17.691384751644836
 20
-0.240298135119276
 30
0.0
 10
17.366777039471238
 20
-0.24217989654126879
 30
0.0
 10
17.042168526420284
 20
-0.24391840160321768
 30
0.0
 10
16.717559210971938
 20
-0.24550040868171294
 30
0.0
 10
16.392949122973
 20
-0.2469153841574313
 30
0.0
 10
16.068338325236947
 20
-0.2481570742369799
 30
0.0
 10
15.74372690958178
 20
-0.24922493502748347
 30
0.0
 10
15.41911498596783
 20
-0.25012469078388905
 30
0.0
 10
15.094502668605825
 20
-0.25086795103513765
 30
0.0
 10
14.769890065234303
 20
-0.2514719517203173
 30
0.0
 10
14.445277270204574
 20
-0.2519602780755232
 30
0.0
 10
14.120664351688422
 20
-0.2523565233942342
 30
0.0
 10
13.796051351492636
 20
-0.25267792499405195
 30
0.0
 10
13.471438294502088
 20
-0.2529350651801937
 30
0.0
 10
13.146825195037753
 20
-0.25313142655724863
 30
0.0
 10
12.82221206233563
 20
-0.2532629800210767
 30
0.0
 10
12.497598906593202
 20
-0.253318553718769
 30
0.0
 10
12.172985746428129
 20
-0.2532806622050288
 30
0.0
 10
11.848372617126378
 20
-0.2531288428739718
 30
0.0
 10
11.523759575186974
 20
-0.2528437500599377
 30
0.0
 10
11.199146694956674
 20
-0.25241061127034536
 30
0.0
 10
10.874534067615535
 20
-0.251816397466644
 30
0.0
 10
10.54992179890692
 20
-0.2510502032261136
 30
0.0
 10
10.225310006181655
 20
-0.25010307455532665
 30
0.0
 10
9.90069881645695
 20
-0.24896755416685437
 30
0.0
 10
9.576088366300914
 20
-0.24763699425389585
 30
0.0
 10
9.251478804473171
 20
-0.24610463804460891
 30
0.0
 10
8.926870298656853
 20
-0.2443625786155231
 30
0.0
 10
8.602263026309833
 20
-0.24240388794104295
 30
0.0
 10
8.277657174170429
 20
-0.2402222605527904
 30
0.0
 10
7.953052952655162
 20
-0.23780990368312704
 30
0.0
 10
7.62845060949014
 20
-0.23515642866562889
 30
0.0
 10
7.303850449193098
 20
-0.23224773792028597
 30
0.0
 10
6.979252812743095
 20
-0.22906940719601718
 30
0.0
 10
6.654658121402009
 20
-0.2256027104143575
 30
0.0
 10
6.3300669336142015
 20
-0.22182132632448026
 30
0.0
 10
6.00547999677282
 20
-0.21769001022106912
 30
0.0
 10
5.680898294545814
 20
-0.21316469559972032
 30
0.0
 10
5.356323087144706
 20
-0.20819365156345318
 30
0.0
 10
5.031756018523675
 20
-0.20271479208021975
 30
0.0
 10
4.707199263685833
 20
-0.19665315644236894
 30
0.0
 10
4.38265551435723
 20
-0.18992848075799454
 30
0.0
 10
4.058127594138533
 20
-0.182478077039796
 30
0.0
 10
3.7336179722852245
 20
-0.17426600440113196
 30
0.0
 10
3.4091309225812125
 20
-0.1652079355866138
 30
0.0
 10
3.084668640976231
 20
-0.15528866839148062
 30
0.0
 10
2.7602456335058556
 20
-0.1441752624290638
 30
0.0
 10
2.435830741571685
 20
-0.13280617170618977
 30
0.0
 10
2.111547356424626
 20
-0.11787137661837495
 30
0.0
 10
1.7869940519662941
 20
-0.11060240178388314
 30
0.0
 10
1.4626946419796956
 20
-0.09599348647587592
 30
0.0
 10
1.13866808890985
 20
-0.07566638066482209
 30
0.0
 10
0.8155238987468978
 20
-0.044852130804767645
 30
0.0
 10
0.4930286840310374
 20
-0.005734713491205386
 30
0.0
 10
0.28087506816841534
 20
0.03705913109614773
 30
0.0
 10
0.17593447919442617
 20
0.06452532915759181
 30
0.0
  0
ENDSEC
  0
SECTION
  2
OBJECTS
  0
DICTIONARY
  5
A
330
0
100
AcDbDictionary
281
1
  3
ACAD_COLOR
350
B
  3
ACAD_GROUP
350
C
  3
ACAD_LAYOUT
350
D
  3
ACAD_MATERIAL
350
E
  3
ACAD_MLEADERSTYLE
350
F
  3
ACAD_MLINESTYLE
350
10
  3
ACAD_PLOTSETTINGS
350
11
  3
ACAD_PLOTSTYLENAME
350
12
  3
ACAD_SCALELIST
350
14
  3
ACAD_TABLESTYLE
350
15
  3
ACAD_VISUALSTYLE
350
16
  3
EZDXF_META
350
2D
  0
DICTIONARY
  5
B
330
A
100
AcDbDictionary
281
1
  0
DICTIONARY
  5
C
330
A
100
AcDbDictionary
281
1
  0
DICTIONARY
  5
D
330
A
100
AcDbDictionary
281
1
  3
Model
350
1A
  3
Layout1
350
1E
  0
DICTIONARY
  5
E
330
A
100
AcDbDictionary
281
1
  3
ByBlock
350
1F
  3
ByLayer
350
20
  3
Global
350
21
  0
DICTIONARY
  5
F
330
A
100
AcDbDictionary
281
1
  3
Standard
350
2C
  0
DICTIONARY
  5
10
330
A
100
AcDbDictionary
281
1
  3
Standard
350
22
  0
DICTIONARY
  5
11
330
A
100
AcDbDictionary
281
1
  0
ACDBDICTIONARYWDFLT
  5
12
330
A
100
AcDbDictionary
281
1
  3
Normal
350
13
100
AcDbDictionaryWithDefault
340
13
  0
ACDBPLACEHOLDER
  5
13
330
12
  0
DICTIONARY
  5
14
330
A
100
AcDbDictionary
281
1
  0
DICTIONARY
  5
15
330
A
100
AcDbDictionary
281
1
  0
DICTIONARY
  5
16
330
A
100
AcDbDictionary
281
1
  0
LAYOUT
  5
1A
330
D
100
AcDbPlotSettings
  1

  4
A3
  6

 40
7.5
 41
20.0
 42
7.5
 43
20.0
 44
420.0
 45
297.0
 46
0.0
 47
0.0
 48
0.0
 49
0.0
140
0.0
141
0.0
142
1.0
143
1.0
 70
1024
 72
1
 73
0
 74
5
  7

 75
16
 76
0
 77
2
 78
300
147
1.0
148
0.0
149
0.0
100
AcDbLayout
  1
Model
 70
1
 71
0
 10
0.0
 20
0.0
 11
420.0
 21
297.0
 12
0.0
 22
0.0
 32
0.0
 14
1e+20
 24
1e+20
 34
1e+20
 15
-1e+20
 25
-1e+20
 35
-1e+20
146
0.0
 13
0.0
 23
0.0
 33
0.0
 16
1.0
 26
0.0
 36
0.0
 17
0.0
 27
1.0
 37
0.0
 76
1
330
17
  0
LAYOUT
  5
1E
330
D
100
AcDbPlotSettings
  1

  4
A3
  6

 40
7.5
 41
20.0
 42
7.5
 43
20.0
 44
420.0
 45
297.0
 46
0.0
 47
0.0
 48
0.0
 49
0.0
140
0.0
141
0.0
142
1.0
143
1.0
 70
0
 72
1
 73
0
 74
5
  7

 75
16
 76
0
 77
2
 78
300
147
1.0
148
0.0
149
0.0
100
AcDbLayout
  1
Layout1
 70
1
 71
1
 10
0.0
 20
0.0
 11
420.0
 21
297.0
 12
0.0
 22
0.0
 32
0.0
 14
1e+20
 24
1e+20
 34
1e+20
 15
-1e+20
 25
-1e+20
 35
-1e+20
146
0.0
 13
0.0
 23
0.0
 33
0.0
 16
1.0
 26
0.0
 36
0.0
 17
0.0
 27
1.0
 37
0.0
 76
1
330
1B
  0
MATERIAL
  5
1F
102
{ACAD_REACTORS
330
E
102
}
330
E
100
AcDbMaterial
  1
ByBlock
  2

 70
0
 40
1.0
 71
1
 41
1.0
 91
-1023410177
 42
1.0
 72
1
  3

 73
1
 74
1
 75
1
 44
0.5
 73
0
 45
1.0
 46
1.0
 77
1
  4

 78
1
 79
1
170
1
 48
1.0
171
1
  6

172
1
173
1
174
1
140
1.0
141
1.0
175
1
  7

176
1
177
1
178
1
143
1.0
179
1
  8

270
1
271
1
272
1
145
1.0
146
1.0
273
1
  9

274
1
275
1
276
1
 42
1.0
 72
1
  3

 73
1
 74
1
 75
1
 94
63
  0
MATERIAL
  5
20
102
{ACAD_REACTORS
330
E
102
}
330
E
100
AcDbMaterial
  1
ByLayer
  2

 70
0
 40
1.0
 71
1
 41
1.0
 91
-1023410177
 42
1.0
 72
1
  3

 73
1
 74
1
 75
1
 44
0.5
 73
0
 45
1.0
 46
1.0
 77
1
  4

 78
1
 79
1
170
1
 48
1.0
171
1
  6

172
1
173
1
174
1
140
1.0
141
1.0
175
1
  7

176
1
177
1
178
1
143
1.0
179
1
  8

270
1
271
1
272
1
145
1.0
146
1.0
273
1
  9

274
1
275
1
276
1
 42
1.0
 72
1
  3

 73
1
 74
1
 75
1
 94
63
  0
MATERIAL
  5
21
102
{ACAD_REACTORS
330
E
102
}
330
E
100
AcDbMaterial
  1
Global
  2

 70
0
 40
1.0
 71
1
 41
1.0
 91
-1023410177
 42
1.0
 72
1
  3

 73
1
 74
1
 75
1
 44
0.5
 73
0
 45
1.0
 46
1.0
 77
1
  4

 78
1
 79
1
170
1
 48
1.0
171
1
  6

172
1
173
1
174
1
140
1.0
141
1.0
175
1
  7

176
1
177
1
178
1
143
1.0
179
1
  8

270
1
271
1
272
1
145
1.0
146
1.0
273
1
  9

274
1
275
1
276
1
 42
1.0
 72
1
  3

 73
1
 74
1
 75
1
 94
63
  0
MLINESTYLE
  5
22
102
{ACAD_REACTORS
330
10
102
}
330
10
100
AcDbMlineStyle
  2
Standard
 70
0
  3

 62
256
 51
90.0
 52
90.0
 71
2
 49
0.5
 62
256
  6
BYLAYER
 49
-0.5
 62
256
  6
BYLAYER
  0
MLEADERSTYLE
  5
2C
102
{ACAD_REACTORS
330
F
102
}
330
F
100
AcDbMLeaderStyle
179
2
170
2
171
1
172
0
 90
2
 40
0.0
 41
0.0
173
1
 91
-1056964608
 92
-2
290
1
 42
2.0
291
1
 43
8.0
  3
Standard
 44
4.0
300

342
29
174
1
175
1
176
0
178
1
 93
-1056964608
 45
4.0
292
0
297
0
 46
4.0
 94
-1056964608
 47
1.0
 49
1.0
140
1.0
294
1
141
0.0
177
0
142
1.0
295
0
296
0
143
3.75
271
0
272
9
273
9
  0
DICTIONARY
  5
2D
330
A
100
AcDbDictionary
280
1
281
1
  3
CREATED_BY_EZDXF
350
2E
  3
WRITTEN_BY_EZDXF
350
33
  0
DICTIONARYVAR
  5
2E
330
2D
100
DictionaryVariables
280
0
  1
1.4.3 @ 2026-01-01T15:33:57.839977+00:00
  0
DICTIONARYVAR
  5
33
330
2D
100
DictionaryVariables
280
0
  1
1.4.3 @ 2026-01-01T15:33:57.854272+00:00
  0
ENDSEC
  0
EOF
